<?xml version="1.0" encoding="utf-8" standalone="no"?>
<!DOCTYPE svg PUBLIC "-//W3C//DTD SVG 1.1//EN"
  "http://www.w3.org/Graphics/SVG/1.1/DTD/svg11.dtd">
<svg xmlns:xlink="http://www.w3.org/1999/xlink" width="712.73pt" height="459.754375pt" viewBox="0 0 712.73 459.754375" xmlns="http://www.w3.org/2000/svg" version="1.1">
 <metadata>
  <rdf:RDF xmlns:dc="http://purl.org/dc/elements/1.1/" xmlns:cc="http://creativecommons.org/ns#" xmlns:rdf="http://www.w3.org/1999/02/22-rdf-syntax-ns#">
   <cc:Work>
    <dc:type rdf:resource="http://purl.org/dc/dcmitype/StillImage"/>
    <dc:date>2026-05-13T01:28:31.695530</dc:date>
    <dc:format>image/svg+xml</dc:format>
    <dc:creator>
     <cc:Agent>
      <dc:title>Matplotlib v3.10.9, https://matplotlib.org/</dc:title>
     </cc:Agent>
    </dc:creator>
   </cc:Work>
  </rdf:RDF>
 </metadata>
 <defs>
  <style type="text/css">*{stroke-linejoin: round; stroke-linecap: butt}</style>
 </defs>
 <g id="figure_1">
  <g id="patch_1">
   <path d="M 0 459.754375 
L 712.73 459.754375 
L 712.73 0 
L 0 0 
z
" style="fill: #ffffff"/>
  </g>
  <g id="axes_1">
   <g id="patch_2">
    <path d="M 216.117188 422.198125 
L 632.977188 422.198125 
L 632.977188 22.318125 
L 216.117188 22.318125 
z
" style="fill: #ffffff"/>
   </g>
   <g id="patch_3">
    <path d="M 216.117188 404.021761 
L 466.947472 404.021761 
L 466.947472 379.375845 
L 216.117188 379.375845 
z
" clip-path="url(#pc873e51c4c)" style="fill: #636efa"/>
   </g>
   <g id="patch_4">
    <path d="M 216.117188 373.214365 
L 470.269728 373.214365 
L 470.269728 348.568449 
L 216.117188 348.568449 
z
" clip-path="url(#pc873e51c4c)" style="fill: #636efa"/>
   </g>
   <g id="patch_5">
    <path d="M 216.117188 342.406969 
L 478.575366 342.406969 
L 478.575366 317.761053 
L 216.117188 317.761053 
z
" clip-path="url(#pc873e51c4c)" style="fill: #636efa"/>
   </g>
   <g id="patch_6">
    <path d="M 216.117188 311.599573 
L 481.897622 311.599573 
L 481.897622 286.953657 
L 216.117188 286.953657 
z
" clip-path="url(#pc873e51c4c)" style="fill: #636efa"/>
   </g>
   <g id="patch_7">
    <path d="M 216.117188 280.792177 
L 485.219877 280.792177 
L 485.219877 256.146261 
L 216.117188 256.146261 
z
" clip-path="url(#pc873e51c4c)" style="fill: #636efa"/>
   </g>
   <g id="patch_8">
    <path d="M 216.117188 249.984781 
L 488.542133 249.984781 
L 488.542133 225.338865 
L 216.117188 225.338865 
z
" clip-path="url(#pc873e51c4c)" style="fill: #636efa"/>
   </g>
   <g id="patch_9">
    <path d="M 216.117188 219.177385 
L 490.20326 219.177385 
L 490.20326 194.531469 
L 216.117188 194.531469 
z
" clip-path="url(#pc873e51c4c)" style="fill: #636efa"/>
   </g>
   <g id="patch_10">
    <path d="M 216.117188 188.369989 
L 508.475665 188.369989 
L 508.475665 163.724073 
L 216.117188 163.724073 
z
" clip-path="url(#pc873e51c4c)" style="fill: #636efa"/>
   </g>
   <g id="patch_11">
    <path d="M 216.117188 157.562593 
L 531.731453 157.562593 
L 531.731453 132.916677 
L 216.117188 132.916677 
z
" clip-path="url(#pc873e51c4c)" style="fill: #636efa"/>
   </g>
   <g id="patch_12">
    <path d="M 216.117188 126.755197 
L 545.020475 126.755197 
L 545.020475 102.109281 
L 216.117188 102.109281 
z
" clip-path="url(#pc873e51c4c)" style="fill: #636efa"/>
   </g>
   <g id="patch_13">
    <path d="M 216.117188 95.947801 
L 563.29288 95.947801 
L 563.29288 71.301885 
L 216.117188 71.301885 
z
" clip-path="url(#pc873e51c4c)" style="fill: #636efa"/>
   </g>
   <g id="patch_14">
    <path d="M 216.117188 65.140405 
L 613.126711 65.140405 
L 613.126711 40.494489 
L 216.117188 40.494489 
z
" clip-path="url(#pc873e51c4c)" style="fill: #636efa"/>
   </g>
   <g id="matplotlib.axis_1">
    <g id="xtick_1">
     <g id="line2d_1">
      <defs>
       <path id="mee6441575a" d="M 0 0 
L 0 3.5 
" style="stroke: #000000; stroke-width: 0.8"/>
      </defs>
      <g>
       <use xlink:href="#mee6441575a" x="216.117188" y="422.198125" style="stroke: #000000; stroke-width: 0.8"/>
      </g>
     </g>
     <g id="text_1">
      <!-- 0 -->
      <g transform="translate(212.935938 436.796562) scale(0.1 -0.1)">
       <defs>
        <path id="DejaVuSans-30" d="M 2034 4250 
Q 1547 4250 1301 3770 
Q 1056 3291 1056 2328 
Q 1056 1369 1301 889 
Q 1547 409 2034 409 
Q 2525 409 2770 889 
Q 3016 1369 3016 2328 
Q 3016 3291 2770 3770 
Q 2525 4250 2034 4250 
z
M 2034 4750 
Q 2819 4750 3233 4129 
Q 3647 3509 3647 2328 
Q 3647 1150 3233 529 
Q 2819 -91 2034 -91 
Q 1250 -91 836 529 
Q 422 1150 422 2328 
Q 422 3509 836 4129 
Q 1250 4750 2034 4750 
z
" transform="scale(0.015625)"/>
       </defs>
       <use xlink:href="#DejaVuSans-30"/>
      </g>
     </g>
    </g>
    <g id="xtick_2">
     <g id="line2d_2">
      <g>
       <use xlink:href="#mee6441575a" x="265.951019" y="422.198125" style="stroke: #000000; stroke-width: 0.8"/>
      </g>
     </g>
     <g id="text_2">
      <!-- 6 -->
      <g transform="translate(262.769769 436.796562) scale(0.1 -0.1)">
       <defs>
        <path id="DejaVuSans-36" d="M 2113 2584 
Q 1688 2584 1439 2293 
Q 1191 2003 1191 1497 
Q 1191 994 1439 701 
Q 1688 409 2113 409 
Q 2538 409 2786 701 
Q 3034 994 3034 1497 
Q 3034 2003 2786 2293 
Q 2538 2584 2113 2584 
z
M 3366 4563 
L 3366 3988 
Q 3128 4100 2886 4159 
Q 2644 4219 2406 4219 
Q 1781 4219 1451 3797 
Q 1122 3375 1075 2522 
Q 1259 2794 1537 2939 
Q 1816 3084 2150 3084 
Q 2853 3084 3261 2657 
Q 3669 2231 3669 1497 
Q 3669 778 3244 343 
Q 2819 -91 2113 -91 
Q 1303 -91 875 529 
Q 447 1150 447 2328 
Q 447 3434 972 4092 
Q 1497 4750 2381 4750 
Q 2619 4750 2861 4703 
Q 3103 4656 3366 4563 
z
" transform="scale(0.015625)"/>
       </defs>
       <use xlink:href="#DejaVuSans-36"/>
      </g>
     </g>
    </g>
    <g id="xtick_3">
     <g id="line2d_3">
      <g>
       <use xlink:href="#mee6441575a" x="315.78485" y="422.198125" style="stroke: #000000; stroke-width: 0.8"/>
      </g>
     </g>
     <g id="text_3">
      <!-- 12 -->
      <g transform="translate(309.42235 436.796562) scale(0.1 -0.1)">
       <defs>
        <path id="DejaVuSans-31" d="M 794 531 
L 1825 531 
L 1825 4091 
L 703 3866 
L 703 4441 
L 1819 4666 
L 2450 4666 
L 2450 531 
L 3481 531 
L 3481 0 
L 794 0 
L 794 531 
z
" transform="scale(0.015625)"/>
        <path id="DejaVuSans-32" d="M 1228 531 
L 3431 531 
L 3431 0 
L 469 0 
L 469 531 
Q 828 903 1448 1529 
Q 2069 2156 2228 2338 
Q 2531 2678 2651 2914 
Q 2772 3150 2772 3378 
Q 2772 3750 2511 3984 
Q 2250 4219 1831 4219 
Q 1534 4219 1204 4116 
Q 875 4013 500 3803 
L 500 4441 
Q 881 4594 1212 4672 
Q 1544 4750 1819 4750 
Q 2544 4750 2975 4387 
Q 3406 4025 3406 3419 
Q 3406 3131 3298 2873 
Q 3191 2616 2906 2266 
Q 2828 2175 2409 1742 
Q 1991 1309 1228 531 
z
" transform="scale(0.015625)"/>
       </defs>
       <use xlink:href="#DejaVuSans-31"/>
       <use xlink:href="#DejaVuSans-32" transform="translate(63.623047 0)"/>
      </g>
     </g>
    </g>
    <g id="xtick_4">
     <g id="line2d_4">
      <g>
       <use xlink:href="#mee6441575a" x="365.618682" y="422.198125" style="stroke: #000000; stroke-width: 0.8"/>
      </g>
     </g>
     <g id="text_4">
      <!-- 18 -->
      <g transform="translate(359.256182 436.796562) scale(0.1 -0.1)">
       <defs>
        <path id="DejaVuSans-38" d="M 2034 2216 
Q 1584 2216 1326 1975 
Q 1069 1734 1069 1313 
Q 1069 891 1326 650 
Q 1584 409 2034 409 
Q 2484 409 2743 651 
Q 3003 894 3003 1313 
Q 3003 1734 2745 1975 
Q 2488 2216 2034 2216 
z
M 1403 2484 
Q 997 2584 770 2862 
Q 544 3141 544 3541 
Q 544 4100 942 4425 
Q 1341 4750 2034 4750 
Q 2731 4750 3128 4425 
Q 3525 4100 3525 3541 
Q 3525 3141 3298 2862 
Q 3072 2584 2669 2484 
Q 3125 2378 3379 2068 
Q 3634 1759 3634 1313 
Q 3634 634 3220 271 
Q 2806 -91 2034 -91 
Q 1263 -91 848 271 
Q 434 634 434 1313 
Q 434 1759 690 2068 
Q 947 2378 1403 2484 
z
M 1172 3481 
Q 1172 3119 1398 2916 
Q 1625 2713 2034 2713 
Q 2441 2713 2670 2916 
Q 2900 3119 2900 3481 
Q 2900 3844 2670 4047 
Q 2441 4250 2034 4250 
Q 1625 4250 1398 4047 
Q 1172 3844 1172 3481 
z
" transform="scale(0.015625)"/>
       </defs>
       <use xlink:href="#DejaVuSans-31"/>
       <use xlink:href="#DejaVuSans-38" transform="translate(63.623047 0)"/>
      </g>
     </g>
    </g>
    <g id="xtick_5">
     <g id="line2d_5">
      <g>
       <use xlink:href="#mee6441575a" x="415.452513" y="422.198125" style="stroke: #000000; stroke-width: 0.8"/>
      </g>
     </g>
     <g id="text_5">
      <!-- 24 -->
      <g transform="translate(409.090013 436.796562) scale(0.1 -0.1)">
       <defs>
        <path id="DejaVuSans-34" d="M 2419 4116 
L 825 1625 
L 2419 1625 
L 2419 4116 
z
M 2253 4666 
L 3047 4666 
L 3047 1625 
L 3713 1625 
L 3713 1100 
L 3047 1100 
L 3047 0 
L 2419 0 
L 2419 1100 
L 313 1100 
L 313 1709 
L 2253 4666 
z
" transform="scale(0.015625)"/>
       </defs>
       <use xlink:href="#DejaVuSans-32"/>
       <use xlink:href="#DejaVuSans-34" transform="translate(63.623047 0)"/>
      </g>
     </g>
    </g>
    <g id="xtick_6">
     <g id="line2d_6">
      <g>
       <use xlink:href="#mee6441575a" x="465.286345" y="422.198125" style="stroke: #000000; stroke-width: 0.8"/>
      </g>
     </g>
     <g id="text_6">
      <!-- 30 -->
      <g transform="translate(458.923845 436.796562) scale(0.1 -0.1)">
       <defs>
        <path id="DejaVuSans-33" d="M 2597 2516 
Q 3050 2419 3304 2112 
Q 3559 1806 3559 1356 
Q 3559 666 3084 287 
Q 2609 -91 1734 -91 
Q 1441 -91 1130 -33 
Q 819 25 488 141 
L 488 750 
Q 750 597 1062 519 
Q 1375 441 1716 441 
Q 2309 441 2620 675 
Q 2931 909 2931 1356 
Q 2931 1769 2642 2001 
Q 2353 2234 1838 2234 
L 1294 2234 
L 1294 2753 
L 1863 2753 
Q 2328 2753 2575 2939 
Q 2822 3125 2822 3475 
Q 2822 3834 2567 4026 
Q 2313 4219 1838 4219 
Q 1578 4219 1281 4162 
Q 984 4106 628 3988 
L 628 4550 
Q 988 4650 1302 4700 
Q 1616 4750 1894 4750 
Q 2613 4750 3031 4423 
Q 3450 4097 3450 3541 
Q 3450 3153 3228 2886 
Q 3006 2619 2597 2516 
z
" transform="scale(0.015625)"/>
       </defs>
       <use xlink:href="#DejaVuSans-33"/>
       <use xlink:href="#DejaVuSans-30" transform="translate(63.623047 0)"/>
      </g>
     </g>
    </g>
    <g id="xtick_7">
     <g id="line2d_7">
      <g>
       <use xlink:href="#mee6441575a" x="515.120176" y="422.198125" style="stroke: #000000; stroke-width: 0.8"/>
      </g>
     </g>
     <g id="text_7">
      <!-- 36 -->
      <g transform="translate(508.757676 436.796562) scale(0.1 -0.1)">
       <use xlink:href="#DejaVuSans-33"/>
       <use xlink:href="#DejaVuSans-36" transform="translate(63.623047 0)"/>
      </g>
     </g>
    </g>
    <g id="xtick_8">
     <g id="line2d_8">
      <g>
       <use xlink:href="#mee6441575a" x="564.954008" y="422.198125" style="stroke: #000000; stroke-width: 0.8"/>
      </g>
     </g>
     <g id="text_8">
      <!-- 42 -->
      <g transform="translate(558.591508 436.796562) scale(0.1 -0.1)">
       <use xlink:href="#DejaVuSans-34"/>
       <use xlink:href="#DejaVuSans-32" transform="translate(63.623047 0)"/>
      </g>
     </g>
    </g>
    <g id="xtick_9">
     <g id="line2d_9">
      <g>
       <use xlink:href="#mee6441575a" x="614.787839" y="422.198125" style="stroke: #000000; stroke-width: 0.8"/>
      </g>
     </g>
     <g id="text_9">
      <!-- 48 -->
      <g transform="translate(608.425339 436.796562) scale(0.1 -0.1)">
       <use xlink:href="#DejaVuSans-34"/>
       <use xlink:href="#DejaVuSans-38" transform="translate(63.623047 0)"/>
      </g>
     </g>
    </g>
    <g id="text_10">
     <!-- Messages per minute (messages in 5-min bin / 5) -->
     <g transform="translate(300.829219 450.474687) scale(0.1 -0.1)">
      <defs>
       <path id="DejaVuSans-4d" d="M 628 4666 
L 1569 4666 
L 2759 1491 
L 3956 4666 
L 4897 4666 
L 4897 0 
L 4281 0 
L 4281 4097 
L 3078 897 
L 2444 897 
L 1241 4097 
L 1241 0 
L 628 0 
L 628 4666 
z
" transform="scale(0.015625)"/>
       <path id="DejaVuSans-65" d="M 3597 1894 
L 3597 1613 
L 953 1613 
Q 991 1019 1311 708 
Q 1631 397 2203 397 
Q 2534 397 2845 478 
Q 3156 559 3463 722 
L 3463 178 
Q 3153 47 2828 -22 
Q 2503 -91 2169 -91 
Q 1331 -91 842 396 
Q 353 884 353 1716 
Q 353 2575 817 3079 
Q 1281 3584 2069 3584 
Q 2775 3584 3186 3129 
Q 3597 2675 3597 1894 
z
M 3022 2063 
Q 3016 2534 2758 2815 
Q 2500 3097 2075 3097 
Q 1594 3097 1305 2825 
Q 1016 2553 972 2059 
L 3022 2063 
z
" transform="scale(0.015625)"/>
       <path id="DejaVuSans-73" d="M 2834 3397 
L 2834 2853 
Q 2591 2978 2328 3040 
Q 2066 3103 1784 3103 
Q 1356 3103 1142 2972 
Q 928 2841 928 2578 
Q 928 2378 1081 2264 
Q 1234 2150 1697 2047 
L 1894 2003 
Q 2506 1872 2764 1633 
Q 3022 1394 3022 966 
Q 3022 478 2636 193 
Q 2250 -91 1575 -91 
Q 1294 -91 989 -36 
Q 684 19 347 128 
L 347 722 
Q 666 556 975 473 
Q 1284 391 1588 391 
Q 1994 391 2212 530 
Q 2431 669 2431 922 
Q 2431 1156 2273 1281 
Q 2116 1406 1581 1522 
L 1381 1569 
Q 847 1681 609 1914 
Q 372 2147 372 2553 
Q 372 3047 722 3315 
Q 1072 3584 1716 3584 
Q 2034 3584 2315 3537 
Q 2597 3491 2834 3397 
z
" transform="scale(0.015625)"/>
       <path id="DejaVuSans-61" d="M 2194 1759 
Q 1497 1759 1228 1600 
Q 959 1441 959 1056 
Q 959 750 1161 570 
Q 1363 391 1709 391 
Q 2188 391 2477 730 
Q 2766 1069 2766 1631 
L 2766 1759 
L 2194 1759 
z
M 3341 1997 
L 3341 0 
L 2766 0 
L 2766 531 
Q 2569 213 2275 61 
Q 1981 -91 1556 -91 
Q 1019 -91 701 211 
Q 384 513 384 1019 
Q 384 1609 779 1909 
Q 1175 2209 1959 2209 
L 2766 2209 
L 2766 2266 
Q 2766 2663 2505 2880 
Q 2244 3097 1772 3097 
Q 1472 3097 1187 3025 
Q 903 2953 641 2809 
L 641 3341 
Q 956 3463 1253 3523 
Q 1550 3584 1831 3584 
Q 2591 3584 2966 3190 
Q 3341 2797 3341 1997 
z
" transform="scale(0.015625)"/>
       <path id="DejaVuSans-67" d="M 2906 1791 
Q 2906 2416 2648 2759 
Q 2391 3103 1925 3103 
Q 1463 3103 1205 2759 
Q 947 2416 947 1791 
Q 947 1169 1205 825 
Q 1463 481 1925 481 
Q 2391 481 2648 825 
Q 2906 1169 2906 1791 
z
M 3481 434 
Q 3481 -459 3084 -895 
Q 2688 -1331 1869 -1331 
Q 1566 -1331 1297 -1286 
Q 1028 -1241 775 -1147 
L 775 -588 
Q 1028 -725 1275 -790 
Q 1522 -856 1778 -856 
Q 2344 -856 2625 -561 
Q 2906 -266 2906 331 
L 2906 616 
Q 2728 306 2450 153 
Q 2172 0 1784 0 
Q 1141 0 747 490 
Q 353 981 353 1791 
Q 353 2603 747 3093 
Q 1141 3584 1784 3584 
Q 2172 3584 2450 3431 
Q 2728 3278 2906 2969 
L 2906 3500 
L 3481 3500 
L 3481 434 
z
" transform="scale(0.015625)"/>
       <path id="DejaVuSans-20" transform="scale(0.015625)"/>
       <path id="DejaVuSans-70" d="M 1159 525 
L 1159 -1331 
L 581 -1331 
L 581 3500 
L 1159 3500 
L 1159 2969 
Q 1341 3281 1617 3432 
Q 1894 3584 2278 3584 
Q 2916 3584 3314 3078 
Q 3713 2572 3713 1747 
Q 3713 922 3314 415 
Q 2916 -91 2278 -91 
Q 1894 -91 1617 61 
Q 1341 213 1159 525 
z
M 3116 1747 
Q 3116 2381 2855 2742 
Q 2594 3103 2138 3103 
Q 1681 3103 1420 2742 
Q 1159 2381 1159 1747 
Q 1159 1113 1420 752 
Q 1681 391 2138 391 
Q 2594 391 2855 752 
Q 3116 1113 3116 1747 
z
" transform="scale(0.015625)"/>
       <path id="DejaVuSans-72" d="M 2631 2963 
Q 2534 3019 2420 3045 
Q 2306 3072 2169 3072 
Q 1681 3072 1420 2755 
Q 1159 2438 1159 1844 
L 1159 0 
L 581 0 
L 581 3500 
L 1159 3500 
L 1159 2956 
Q 1341 3275 1631 3429 
Q 1922 3584 2338 3584 
Q 2397 3584 2469 3576 
Q 2541 3569 2628 3553 
L 2631 2963 
z
" transform="scale(0.015625)"/>
       <path id="DejaVuSans-6d" d="M 3328 2828 
Q 3544 3216 3844 3400 
Q 4144 3584 4550 3584 
Q 5097 3584 5394 3201 
Q 5691 2819 5691 2113 
L 5691 0 
L 5113 0 
L 5113 2094 
Q 5113 2597 4934 2840 
Q 4756 3084 4391 3084 
Q 3944 3084 3684 2787 
Q 3425 2491 3425 1978 
L 3425 0 
L 2847 0 
L 2847 2094 
Q 2847 2600 2669 2842 
Q 2491 3084 2119 3084 
Q 1678 3084 1418 2786 
Q 1159 2488 1159 1978 
L 1159 0 
L 581 0 
L 581 3500 
L 1159 3500 
L 1159 2956 
Q 1356 3278 1631 3431 
Q 1906 3584 2284 3584 
Q 2666 3584 2933 3390 
Q 3200 3197 3328 2828 
z
" transform="scale(0.015625)"/>
       <path id="DejaVuSans-69" d="M 603 3500 
L 1178 3500 
L 1178 0 
L 603 0 
L 603 3500 
z
M 603 4863 
L 1178 4863 
L 1178 4134 
L 603 4134 
L 603 4863 
z
" transform="scale(0.015625)"/>
       <path id="DejaVuSans-6e" d="M 3513 2113 
L 3513 0 
L 2938 0 
L 2938 2094 
Q 2938 2591 2744 2837 
Q 2550 3084 2163 3084 
Q 1697 3084 1428 2787 
Q 1159 2491 1159 1978 
L 1159 0 
L 581 0 
L 581 3500 
L 1159 3500 
L 1159 2956 
Q 1366 3272 1645 3428 
Q 1925 3584 2291 3584 
Q 2894 3584 3203 3211 
Q 3513 2838 3513 2113 
z
" transform="scale(0.015625)"/>
       <path id="DejaVuSans-75" d="M 544 1381 
L 544 3500 
L 1119 3500 
L 1119 1403 
Q 1119 906 1312 657 
Q 1506 409 1894 409 
Q 2359 409 2629 706 
Q 2900 1003 2900 1516 
L 2900 3500 
L 3475 3500 
L 3475 0 
L 2900 0 
L 2900 538 
Q 2691 219 2414 64 
Q 2138 -91 1772 -91 
Q 1169 -91 856 284 
Q 544 659 544 1381 
z
M 1991 3584 
L 1991 3584 
z
" transform="scale(0.015625)"/>
       <path id="DejaVuSans-74" d="M 1172 4494 
L 1172 3500 
L 2356 3500 
L 2356 3053 
L 1172 3053 
L 1172 1153 
Q 1172 725 1289 603 
Q 1406 481 1766 481 
L 2356 481 
L 2356 0 
L 1766 0 
Q 1100 0 847 248 
Q 594 497 594 1153 
L 594 3053 
L 172 3053 
L 172 3500 
L 594 3500 
L 594 4494 
L 1172 4494 
z
" transform="scale(0.015625)"/>
       <path id="DejaVuSans-28" d="M 1984 4856 
Q 1566 4138 1362 3434 
Q 1159 2731 1159 2009 
Q 1159 1288 1364 580 
Q 1569 -128 1984 -844 
L 1484 -844 
Q 1016 -109 783 600 
Q 550 1309 550 2009 
Q 550 2706 781 3412 
Q 1013 4119 1484 4856 
L 1984 4856 
z
" transform="scale(0.015625)"/>
       <path id="DejaVuSans-35" d="M 691 4666 
L 3169 4666 
L 3169 4134 
L 1269 4134 
L 1269 2991 
Q 1406 3038 1543 3061 
Q 1681 3084 1819 3084 
Q 2600 3084 3056 2656 
Q 3513 2228 3513 1497 
Q 3513 744 3044 326 
Q 2575 -91 1722 -91 
Q 1428 -91 1123 -41 
Q 819 9 494 109 
L 494 744 
Q 775 591 1075 516 
Q 1375 441 1709 441 
Q 2250 441 2565 725 
Q 2881 1009 2881 1497 
Q 2881 1984 2565 2268 
Q 2250 2553 1709 2553 
Q 1456 2553 1204 2497 
Q 953 2441 691 2322 
L 691 4666 
z
" transform="scale(0.015625)"/>
       <path id="DejaVuSans-2d" d="M 313 2009 
L 1997 2009 
L 1997 1497 
L 313 1497 
L 313 2009 
z
" transform="scale(0.015625)"/>
       <path id="DejaVuSans-62" d="M 3116 1747 
Q 3116 2381 2855 2742 
Q 2594 3103 2138 3103 
Q 1681 3103 1420 2742 
Q 1159 2381 1159 1747 
Q 1159 1113 1420 752 
Q 1681 391 2138 391 
Q 2594 391 2855 752 
Q 3116 1113 3116 1747 
z
M 1159 2969 
Q 1341 3281 1617 3432 
Q 1894 3584 2278 3584 
Q 2916 3584 3314 3078 
Q 3713 2572 3713 1747 
Q 3713 922 3314 415 
Q 2916 -91 2278 -91 
Q 1894 -91 1617 61 
Q 1341 213 1159 525 
L 1159 0 
L 581 0 
L 581 4863 
L 1159 4863 
L 1159 2969 
z
" transform="scale(0.015625)"/>
       <path id="DejaVuSans-2f" d="M 1625 4666 
L 2156 4666 
L 531 -594 
L 0 -594 
L 1625 4666 
z
" transform="scale(0.015625)"/>
       <path id="DejaVuSans-29" d="M 513 4856 
L 1013 4856 
Q 1481 4119 1714 3412 
Q 1947 2706 1947 2009 
Q 1947 1309 1714 600 
Q 1481 -109 1013 -844 
L 513 -844 
Q 928 -128 1133 580 
Q 1338 1288 1338 2009 
Q 1338 2731 1133 3434 
Q 928 4138 513 4856 
z
" transform="scale(0.015625)"/>
      </defs>
      <use xlink:href="#DejaVuSans-4d"/>
      <use xlink:href="#DejaVuSans-65" transform="translate(86.279297 0)"/>
      <use xlink:href="#DejaVuSans-73" transform="translate(147.802734 0)"/>
      <use xlink:href="#DejaVuSans-73" transform="translate(199.902344 0)"/>
      <use xlink:href="#DejaVuSans-61" transform="translate(252.001953 0)"/>
      <use xlink:href="#DejaVuSans-67" transform="translate(313.28125 0)"/>
      <use xlink:href="#DejaVuSans-65" transform="translate(376.757812 0)"/>
      <use xlink:href="#DejaVuSans-73" transform="translate(438.28125 0)"/>
      <use xlink:href="#DejaVuSans-20" transform="translate(490.380859 0)"/>
      <use xlink:href="#DejaVuSans-70" transform="translate(522.167969 0)"/>
      <use xlink:href="#DejaVuSans-65" transform="translate(585.644531 0)"/>
      <use xlink:href="#DejaVuSans-72" transform="translate(647.167969 0)"/>
      <use xlink:href="#DejaVuSans-20" transform="translate(688.28125 0)"/>
      <use xlink:href="#DejaVuSans-6d" transform="translate(720.068359 0)"/>
      <use xlink:href="#DejaVuSans-69" transform="translate(817.480469 0)"/>
      <use xlink:href="#DejaVuSans-6e" transform="translate(845.263672 0)"/>
      <use xlink:href="#DejaVuSans-75" transform="translate(908.642578 0)"/>
      <use xlink:href="#DejaVuSans-74" transform="translate(972.021484 0)"/>
      <use xlink:href="#DejaVuSans-65" transform="translate(1011.230469 0)"/>
      <use xlink:href="#DejaVuSans-20" transform="translate(1072.753906 0)"/>
      <use xlink:href="#DejaVuSans-28" transform="translate(1104.541016 0)"/>
      <use xlink:href="#DejaVuSans-6d" transform="translate(1143.554688 0)"/>
      <use xlink:href="#DejaVuSans-65" transform="translate(1240.966797 0)"/>
      <use xlink:href="#DejaVuSans-73" transform="translate(1302.490234 0)"/>
      <use xlink:href="#DejaVuSans-73" transform="translate(1354.589844 0)"/>
      <use xlink:href="#DejaVuSans-61" transform="translate(1406.689453 0)"/>
      <use xlink:href="#DejaVuSans-67" transform="translate(1467.96875 0)"/>
      <use xlink:href="#DejaVuSans-65" transform="translate(1531.445312 0)"/>
      <use xlink:href="#DejaVuSans-73" transform="translate(1592.96875 0)"/>
      <use xlink:href="#DejaVuSans-20" transform="translate(1645.068359 0)"/>
      <use xlink:href="#DejaVuSans-69" transform="translate(1676.855469 0)"/>
      <use xlink:href="#DejaVuSans-6e" transform="translate(1704.638672 0)"/>
      <use xlink:href="#DejaVuSans-20" transform="translate(1768.017578 0)"/>
      <use xlink:href="#DejaVuSans-35" transform="translate(1799.804688 0)"/>
      <use xlink:href="#DejaVuSans-2d" transform="translate(1863.427734 0)"/>
      <use xlink:href="#DejaVuSans-6d" transform="translate(1899.511719 0)"/>
      <use xlink:href="#DejaVuSans-69" transform="translate(1996.923828 0)"/>
      <use xlink:href="#DejaVuSans-6e" transform="translate(2024.707031 0)"/>
      <use xlink:href="#DejaVuSans-20" transform="translate(2088.085938 0)"/>
      <use xlink:href="#DejaVuSans-62" transform="translate(2119.873047 0)"/>
      <use xlink:href="#DejaVuSans-69" transform="translate(2183.349609 0)"/>
      <use xlink:href="#DejaVuSans-6e" transform="translate(2211.132812 0)"/>
      <use xlink:href="#DejaVuSans-20" transform="translate(2274.511719 0)"/>
      <use xlink:href="#DejaVuSans-2f" transform="translate(2306.298828 0)"/>
      <use xlink:href="#DejaVuSans-20" transform="translate(2339.990234 0)"/>
      <use xlink:href="#DejaVuSans-35" transform="translate(2371.777344 0)"/>
      <use xlink:href="#DejaVuSans-29" transform="translate(2435.400391 0)"/>
     </g>
    </g>
   </g>
   <g id="matplotlib.axis_2">
    <g id="ytick_1">
     <g id="line2d_10">
      <defs>
       <path id="m54403098d2" d="M 0 0 
L -3.5 0 
" style="stroke: #000000; stroke-width: 0.8"/>
      </defs>
      <g>
       <use xlink:href="#m54403098d2" x="216.117188" y="391.698803" style="stroke: #000000; stroke-width: 0.8"/>
      </g>
     </g>
     <g id="text_11">
      <!-- Minutes 380 to 385 from stream start -->
      <g transform="translate(20.878125 395.498022) scale(0.1 -0.1)">
       <defs>
        <path id="DejaVuSans-6f" d="M 1959 3097 
Q 1497 3097 1228 2736 
Q 959 2375 959 1747 
Q 959 1119 1226 758 
Q 1494 397 1959 397 
Q 2419 397 2687 759 
Q 2956 1122 2956 1747 
Q 2956 2369 2687 2733 
Q 2419 3097 1959 3097 
z
M 1959 3584 
Q 2709 3584 3137 3096 
Q 3566 2609 3566 1747 
Q 3566 888 3137 398 
Q 2709 -91 1959 -91 
Q 1206 -91 779 398 
Q 353 888 353 1747 
Q 353 2609 779 3096 
Q 1206 3584 1959 3584 
z
" transform="scale(0.015625)"/>
        <path id="DejaVuSans-66" d="M 2375 4863 
L 2375 4384 
L 1825 4384 
Q 1516 4384 1395 4259 
Q 1275 4134 1275 3809 
L 1275 3500 
L 2222 3500 
L 2222 3053 
L 1275 3053 
L 1275 0 
L 697 0 
L 697 3053 
L 147 3053 
L 147 3500 
L 697 3500 
L 697 3744 
Q 697 4328 969 4595 
Q 1241 4863 1831 4863 
L 2375 4863 
z
" transform="scale(0.015625)"/>
       </defs>
       <use xlink:href="#DejaVuSans-4d"/>
       <use xlink:href="#DejaVuSans-69" transform="translate(86.279297 0)"/>
       <use xlink:href="#DejaVuSans-6e" transform="translate(114.0625 0)"/>
       <use xlink:href="#DejaVuSans-75" transform="translate(177.441406 0)"/>
       <use xlink:href="#DejaVuSans-74" transform="translate(240.820312 0)"/>
       <use xlink:href="#DejaVuSans-65" transform="translate(280.029297 0)"/>
       <use xlink:href="#DejaVuSans-73" transform="translate(341.552734 0)"/>
       <use xlink:href="#DejaVuSans-20" transform="translate(393.652344 0)"/>
       <use xlink:href="#DejaVuSans-33" transform="translate(425.439453 0)"/>
       <use xlink:href="#DejaVuSans-38" transform="translate(489.0625 0)"/>
       <use xlink:href="#DejaVuSans-30" transform="translate(552.685547 0)"/>
       <use xlink:href="#DejaVuSans-20" transform="translate(616.308594 0)"/>
       <use xlink:href="#DejaVuSans-74" transform="translate(648.095703 0)"/>
       <use xlink:href="#DejaVuSans-6f" transform="translate(687.304688 0)"/>
       <use xlink:href="#DejaVuSans-20" transform="translate(748.486328 0)"/>
       <use xlink:href="#DejaVuSans-33" transform="translate(780.273438 0)"/>
       <use xlink:href="#DejaVuSans-38" transform="translate(843.896484 0)"/>
       <use xlink:href="#DejaVuSans-35" transform="translate(907.519531 0)"/>
       <use xlink:href="#DejaVuSans-20" transform="translate(971.142578 0)"/>
       <use xlink:href="#DejaVuSans-66" transform="translate(1002.929688 0)"/>
       <use xlink:href="#DejaVuSans-72" transform="translate(1038.134766 0)"/>
       <use xlink:href="#DejaVuSans-6f" transform="translate(1076.998047 0)"/>
       <use xlink:href="#DejaVuSans-6d" transform="translate(1138.179688 0)"/>
       <use xlink:href="#DejaVuSans-20" transform="translate(1235.591797 0)"/>
       <use xlink:href="#DejaVuSans-73" transform="translate(1267.378906 0)"/>
       <use xlink:href="#DejaVuSans-74" transform="translate(1319.478516 0)"/>
       <use xlink:href="#DejaVuSans-72" transform="translate(1358.6875 0)"/>
       <use xlink:href="#DejaVuSans-65" transform="translate(1397.550781 0)"/>
       <use xlink:href="#DejaVuSans-61" transform="translate(1459.074219 0)"/>
       <use xlink:href="#DejaVuSans-6d" transform="translate(1520.353516 0)"/>
       <use xlink:href="#DejaVuSans-20" transform="translate(1617.765625 0)"/>
       <use xlink:href="#DejaVuSans-73" transform="translate(1649.552734 0)"/>
       <use xlink:href="#DejaVuSans-74" transform="translate(1701.652344 0)"/>
       <use xlink:href="#DejaVuSans-61" transform="translate(1740.861328 0)"/>
       <use xlink:href="#DejaVuSans-72" transform="translate(1802.140625 0)"/>
       <use xlink:href="#DejaVuSans-74" transform="translate(1843.253906 0)"/>
      </g>
     </g>
    </g>
    <g id="ytick_2">
     <g id="line2d_11">
      <g>
       <use xlink:href="#m54403098d2" x="216.117188" y="360.891407" style="stroke: #000000; stroke-width: 0.8"/>
      </g>
     </g>
     <g id="text_12">
      <!-- Minutes 125 to 130 from stream start -->
      <g transform="translate(20.878125 364.690626) scale(0.1 -0.1)">
       <use xlink:href="#DejaVuSans-4d"/>
       <use xlink:href="#DejaVuSans-69" transform="translate(86.279297 0)"/>
       <use xlink:href="#DejaVuSans-6e" transform="translate(114.0625 0)"/>
       <use xlink:href="#DejaVuSans-75" transform="translate(177.441406 0)"/>
       <use xlink:href="#DejaVuSans-74" transform="translate(240.820312 0)"/>
       <use xlink:href="#DejaVuSans-65" transform="translate(280.029297 0)"/>
       <use xlink:href="#DejaVuSans-73" transform="translate(341.552734 0)"/>
       <use xlink:href="#DejaVuSans-20" transform="translate(393.652344 0)"/>
       <use xlink:href="#DejaVuSans-31" transform="translate(425.439453 0)"/>
       <use xlink:href="#DejaVuSans-32" transform="translate(489.0625 0)"/>
       <use xlink:href="#DejaVuSans-35" transform="translate(552.685547 0)"/>
       <use xlink:href="#DejaVuSans-20" transform="translate(616.308594 0)"/>
       <use xlink:href="#DejaVuSans-74" transform="translate(648.095703 0)"/>
       <use xlink:href="#DejaVuSans-6f" transform="translate(687.304688 0)"/>
       <use xlink:href="#DejaVuSans-20" transform="translate(748.486328 0)"/>
       <use xlink:href="#DejaVuSans-31" transform="translate(780.273438 0)"/>
       <use xlink:href="#DejaVuSans-33" transform="translate(843.896484 0)"/>
       <use xlink:href="#DejaVuSans-30" transform="translate(907.519531 0)"/>
       <use xlink:href="#DejaVuSans-20" transform="translate(971.142578 0)"/>
       <use xlink:href="#DejaVuSans-66" transform="translate(1002.929688 0)"/>
       <use xlink:href="#DejaVuSans-72" transform="translate(1038.134766 0)"/>
       <use xlink:href="#DejaVuSans-6f" transform="translate(1076.998047 0)"/>
       <use xlink:href="#DejaVuSans-6d" transform="translate(1138.179688 0)"/>
       <use xlink:href="#DejaVuSans-20" transform="translate(1235.591797 0)"/>
       <use xlink:href="#DejaVuSans-73" transform="translate(1267.378906 0)"/>
       <use xlink:href="#DejaVuSans-74" transform="translate(1319.478516 0)"/>
       <use xlink:href="#DejaVuSans-72" transform="translate(1358.6875 0)"/>
       <use xlink:href="#DejaVuSans-65" transform="translate(1397.550781 0)"/>
       <use xlink:href="#DejaVuSans-61" transform="translate(1459.074219 0)"/>
       <use xlink:href="#DejaVuSans-6d" transform="translate(1520.353516 0)"/>
       <use xlink:href="#DejaVuSans-20" transform="translate(1617.765625 0)"/>
       <use xlink:href="#DejaVuSans-73" transform="translate(1649.552734 0)"/>
       <use xlink:href="#DejaVuSans-74" transform="translate(1701.652344 0)"/>
       <use xlink:href="#DejaVuSans-61" transform="translate(1740.861328 0)"/>
       <use xlink:href="#DejaVuSans-72" transform="translate(1802.140625 0)"/>
       <use xlink:href="#DejaVuSans-74" transform="translate(1843.253906 0)"/>
      </g>
     </g>
    </g>
    <g id="ytick_3">
     <g id="line2d_12">
      <g>
       <use xlink:href="#m54403098d2" x="216.117188" y="330.084011" style="stroke: #000000; stroke-width: 0.8"/>
      </g>
     </g>
     <g id="text_13">
      <!-- Minutes 300 to 305 from stream start -->
      <g transform="translate(20.878125 333.88323) scale(0.1 -0.1)">
       <use xlink:href="#DejaVuSans-4d"/>
       <use xlink:href="#DejaVuSans-69" transform="translate(86.279297 0)"/>
       <use xlink:href="#DejaVuSans-6e" transform="translate(114.0625 0)"/>
       <use xlink:href="#DejaVuSans-75" transform="translate(177.441406 0)"/>
       <use xlink:href="#DejaVuSans-74" transform="translate(240.820312 0)"/>
       <use xlink:href="#DejaVuSans-65" transform="translate(280.029297 0)"/>
       <use xlink:href="#DejaVuSans-73" transform="translate(341.552734 0)"/>
       <use xlink:href="#DejaVuSans-20" transform="translate(393.652344 0)"/>
       <use xlink:href="#DejaVuSans-33" transform="translate(425.439453 0)"/>
       <use xlink:href="#DejaVuSans-30" transform="translate(489.0625 0)"/>
       <use xlink:href="#DejaVuSans-30" transform="translate(552.685547 0)"/>
       <use xlink:href="#DejaVuSans-20" transform="translate(616.308594 0)"/>
       <use xlink:href="#DejaVuSans-74" transform="translate(648.095703 0)"/>
       <use xlink:href="#DejaVuSans-6f" transform="translate(687.304688 0)"/>
       <use xlink:href="#DejaVuSans-20" transform="translate(748.486328 0)"/>
       <use xlink:href="#DejaVuSans-33" transform="translate(780.273438 0)"/>
       <use xlink:href="#DejaVuSans-30" transform="translate(843.896484 0)"/>
       <use xlink:href="#DejaVuSans-35" transform="translate(907.519531 0)"/>
       <use xlink:href="#DejaVuSans-20" transform="translate(971.142578 0)"/>
       <use xlink:href="#DejaVuSans-66" transform="translate(1002.929688 0)"/>
       <use xlink:href="#DejaVuSans-72" transform="translate(1038.134766 0)"/>
       <use xlink:href="#DejaVuSans-6f" transform="translate(1076.998047 0)"/>
       <use xlink:href="#DejaVuSans-6d" transform="translate(1138.179688 0)"/>
       <use xlink:href="#DejaVuSans-20" transform="translate(1235.591797 0)"/>
       <use xlink:href="#DejaVuSans-73" transform="translate(1267.378906 0)"/>
       <use xlink:href="#DejaVuSans-74" transform="translate(1319.478516 0)"/>
       <use xlink:href="#DejaVuSans-72" transform="translate(1358.6875 0)"/>
       <use xlink:href="#DejaVuSans-65" transform="translate(1397.550781 0)"/>
       <use xlink:href="#DejaVuSans-61" transform="translate(1459.074219 0)"/>
       <use xlink:href="#DejaVuSans-6d" transform="translate(1520.353516 0)"/>
       <use xlink:href="#DejaVuSans-20" transform="translate(1617.765625 0)"/>
       <use xlink:href="#DejaVuSans-73" transform="translate(1649.552734 0)"/>
       <use xlink:href="#DejaVuSans-74" transform="translate(1701.652344 0)"/>
       <use xlink:href="#DejaVuSans-61" transform="translate(1740.861328 0)"/>
       <use xlink:href="#DejaVuSans-72" transform="translate(1802.140625 0)"/>
       <use xlink:href="#DejaVuSans-74" transform="translate(1843.253906 0)"/>
      </g>
     </g>
    </g>
    <g id="ytick_4">
     <g id="line2d_13">
      <g>
       <use xlink:href="#m54403098d2" x="216.117188" y="299.276615" style="stroke: #000000; stroke-width: 0.8"/>
      </g>
     </g>
     <g id="text_14">
      <!-- Minutes 285 to 290 from stream start -->
      <g transform="translate(20.878125 303.075834) scale(0.1 -0.1)">
       <defs>
        <path id="DejaVuSans-39" d="M 703 97 
L 703 672 
Q 941 559 1184 500 
Q 1428 441 1663 441 
Q 2288 441 2617 861 
Q 2947 1281 2994 2138 
Q 2813 1869 2534 1725 
Q 2256 1581 1919 1581 
Q 1219 1581 811 2004 
Q 403 2428 403 3163 
Q 403 3881 828 4315 
Q 1253 4750 1959 4750 
Q 2769 4750 3195 4129 
Q 3622 3509 3622 2328 
Q 3622 1225 3098 567 
Q 2575 -91 1691 -91 
Q 1453 -91 1209 -44 
Q 966 3 703 97 
z
M 1959 2075 
Q 2384 2075 2632 2365 
Q 2881 2656 2881 3163 
Q 2881 3666 2632 3958 
Q 2384 4250 1959 4250 
Q 1534 4250 1286 3958 
Q 1038 3666 1038 3163 
Q 1038 2656 1286 2365 
Q 1534 2075 1959 2075 
z
" transform="scale(0.015625)"/>
       </defs>
       <use xlink:href="#DejaVuSans-4d"/>
       <use xlink:href="#DejaVuSans-69" transform="translate(86.279297 0)"/>
       <use xlink:href="#DejaVuSans-6e" transform="translate(114.0625 0)"/>
       <use xlink:href="#DejaVuSans-75" transform="translate(177.441406 0)"/>
       <use xlink:href="#DejaVuSans-74" transform="translate(240.820312 0)"/>
       <use xlink:href="#DejaVuSans-65" transform="translate(280.029297 0)"/>
       <use xlink:href="#DejaVuSans-73" transform="translate(341.552734 0)"/>
       <use xlink:href="#DejaVuSans-20" transform="translate(393.652344 0)"/>
       <use xlink:href="#DejaVuSans-32" transform="translate(425.439453 0)"/>
       <use xlink:href="#DejaVuSans-38" transform="translate(489.0625 0)"/>
       <use xlink:href="#DejaVuSans-35" transform="translate(552.685547 0)"/>
       <use xlink:href="#DejaVuSans-20" transform="translate(616.308594 0)"/>
       <use xlink:href="#DejaVuSans-74" transform="translate(648.095703 0)"/>
       <use xlink:href="#DejaVuSans-6f" transform="translate(687.304688 0)"/>
       <use xlink:href="#DejaVuSans-20" transform="translate(748.486328 0)"/>
       <use xlink:href="#DejaVuSans-32" transform="translate(780.273438 0)"/>
       <use xlink:href="#DejaVuSans-39" transform="translate(843.896484 0)"/>
       <use xlink:href="#DejaVuSans-30" transform="translate(907.519531 0)"/>
       <use xlink:href="#DejaVuSans-20" transform="translate(971.142578 0)"/>
       <use xlink:href="#DejaVuSans-66" transform="translate(1002.929688 0)"/>
       <use xlink:href="#DejaVuSans-72" transform="translate(1038.134766 0)"/>
       <use xlink:href="#DejaVuSans-6f" transform="translate(1076.998047 0)"/>
       <use xlink:href="#DejaVuSans-6d" transform="translate(1138.179688 0)"/>
       <use xlink:href="#DejaVuSans-20" transform="translate(1235.591797 0)"/>
       <use xlink:href="#DejaVuSans-73" transform="translate(1267.378906 0)"/>
       <use xlink:href="#DejaVuSans-74" transform="translate(1319.478516 0)"/>
       <use xlink:href="#DejaVuSans-72" transform="translate(1358.6875 0)"/>
       <use xlink:href="#DejaVuSans-65" transform="translate(1397.550781 0)"/>
       <use xlink:href="#DejaVuSans-61" transform="translate(1459.074219 0)"/>
       <use xlink:href="#DejaVuSans-6d" transform="translate(1520.353516 0)"/>
       <use xlink:href="#DejaVuSans-20" transform="translate(1617.765625 0)"/>
       <use xlink:href="#DejaVuSans-73" transform="translate(1649.552734 0)"/>
       <use xlink:href="#DejaVuSans-74" transform="translate(1701.652344 0)"/>
       <use xlink:href="#DejaVuSans-61" transform="translate(1740.861328 0)"/>
       <use xlink:href="#DejaVuSans-72" transform="translate(1802.140625 0)"/>
       <use xlink:href="#DejaVuSans-74" transform="translate(1843.253906 0)"/>
      </g>
     </g>
    </g>
    <g id="ytick_5">
     <g id="line2d_14">
      <g>
       <use xlink:href="#m54403098d2" x="216.117188" y="268.469219" style="stroke: #000000; stroke-width: 0.8"/>
      </g>
     </g>
     <g id="text_15">
      <!-- Minutes 315 to 320 from stream start -->
      <g transform="translate(20.878125 272.268438) scale(0.1 -0.1)">
       <use xlink:href="#DejaVuSans-4d"/>
       <use xlink:href="#DejaVuSans-69" transform="translate(86.279297 0)"/>
       <use xlink:href="#DejaVuSans-6e" transform="translate(114.0625 0)"/>
       <use xlink:href="#DejaVuSans-75" transform="translate(177.441406 0)"/>
       <use xlink:href="#DejaVuSans-74" transform="translate(240.820312 0)"/>
       <use xlink:href="#DejaVuSans-65" transform="translate(280.029297 0)"/>
       <use xlink:href="#DejaVuSans-73" transform="translate(341.552734 0)"/>
       <use xlink:href="#DejaVuSans-20" transform="translate(393.652344 0)"/>
       <use xlink:href="#DejaVuSans-33" transform="translate(425.439453 0)"/>
       <use xlink:href="#DejaVuSans-31" transform="translate(489.0625 0)"/>
       <use xlink:href="#DejaVuSans-35" transform="translate(552.685547 0)"/>
       <use xlink:href="#DejaVuSans-20" transform="translate(616.308594 0)"/>
       <use xlink:href="#DejaVuSans-74" transform="translate(648.095703 0)"/>
       <use xlink:href="#DejaVuSans-6f" transform="translate(687.304688 0)"/>
       <use xlink:href="#DejaVuSans-20" transform="translate(748.486328 0)"/>
       <use xlink:href="#DejaVuSans-33" transform="translate(780.273438 0)"/>
       <use xlink:href="#DejaVuSans-32" transform="translate(843.896484 0)"/>
       <use xlink:href="#DejaVuSans-30" transform="translate(907.519531 0)"/>
       <use xlink:href="#DejaVuSans-20" transform="translate(971.142578 0)"/>
       <use xlink:href="#DejaVuSans-66" transform="translate(1002.929688 0)"/>
       <use xlink:href="#DejaVuSans-72" transform="translate(1038.134766 0)"/>
       <use xlink:href="#DejaVuSans-6f" transform="translate(1076.998047 0)"/>
       <use xlink:href="#DejaVuSans-6d" transform="translate(1138.179688 0)"/>
       <use xlink:href="#DejaVuSans-20" transform="translate(1235.591797 0)"/>
       <use xlink:href="#DejaVuSans-73" transform="translate(1267.378906 0)"/>
       <use xlink:href="#DejaVuSans-74" transform="translate(1319.478516 0)"/>
       <use xlink:href="#DejaVuSans-72" transform="translate(1358.6875 0)"/>
       <use xlink:href="#DejaVuSans-65" transform="translate(1397.550781 0)"/>
       <use xlink:href="#DejaVuSans-61" transform="translate(1459.074219 0)"/>
       <use xlink:href="#DejaVuSans-6d" transform="translate(1520.353516 0)"/>
       <use xlink:href="#DejaVuSans-20" transform="translate(1617.765625 0)"/>
       <use xlink:href="#DejaVuSans-73" transform="translate(1649.552734 0)"/>
       <use xlink:href="#DejaVuSans-74" transform="translate(1701.652344 0)"/>
       <use xlink:href="#DejaVuSans-61" transform="translate(1740.861328 0)"/>
       <use xlink:href="#DejaVuSans-72" transform="translate(1802.140625 0)"/>
       <use xlink:href="#DejaVuSans-74" transform="translate(1843.253906 0)"/>
      </g>
     </g>
    </g>
    <g id="ytick_6">
     <g id="line2d_15">
      <g>
       <use xlink:href="#m54403098d2" x="216.117188" y="237.661823" style="stroke: #000000; stroke-width: 0.8"/>
      </g>
     </g>
     <g id="text_16">
      <!-- Minutes 305 to 310 from stream start -->
      <g transform="translate(20.878125 241.461042) scale(0.1 -0.1)">
       <use xlink:href="#DejaVuSans-4d"/>
       <use xlink:href="#DejaVuSans-69" transform="translate(86.279297 0)"/>
       <use xlink:href="#DejaVuSans-6e" transform="translate(114.0625 0)"/>
       <use xlink:href="#DejaVuSans-75" transform="translate(177.441406 0)"/>
       <use xlink:href="#DejaVuSans-74" transform="translate(240.820312 0)"/>
       <use xlink:href="#DejaVuSans-65" transform="translate(280.029297 0)"/>
       <use xlink:href="#DejaVuSans-73" transform="translate(341.552734 0)"/>
       <use xlink:href="#DejaVuSans-20" transform="translate(393.652344 0)"/>
       <use xlink:href="#DejaVuSans-33" transform="translate(425.439453 0)"/>
       <use xlink:href="#DejaVuSans-30" transform="translate(489.0625 0)"/>
       <use xlink:href="#DejaVuSans-35" transform="translate(552.685547 0)"/>
       <use xlink:href="#DejaVuSans-20" transform="translate(616.308594 0)"/>
       <use xlink:href="#DejaVuSans-74" transform="translate(648.095703 0)"/>
       <use xlink:href="#DejaVuSans-6f" transform="translate(687.304688 0)"/>
       <use xlink:href="#DejaVuSans-20" transform="translate(748.486328 0)"/>
       <use xlink:href="#DejaVuSans-33" transform="translate(780.273438 0)"/>
       <use xlink:href="#DejaVuSans-31" transform="translate(843.896484 0)"/>
       <use xlink:href="#DejaVuSans-30" transform="translate(907.519531 0)"/>
       <use xlink:href="#DejaVuSans-20" transform="translate(971.142578 0)"/>
       <use xlink:href="#DejaVuSans-66" transform="translate(1002.929688 0)"/>
       <use xlink:href="#DejaVuSans-72" transform="translate(1038.134766 0)"/>
       <use xlink:href="#DejaVuSans-6f" transform="translate(1076.998047 0)"/>
       <use xlink:href="#DejaVuSans-6d" transform="translate(1138.179688 0)"/>
       <use xlink:href="#DejaVuSans-20" transform="translate(1235.591797 0)"/>
       <use xlink:href="#DejaVuSans-73" transform="translate(1267.378906 0)"/>
       <use xlink:href="#DejaVuSans-74" transform="translate(1319.478516 0)"/>
       <use xlink:href="#DejaVuSans-72" transform="translate(1358.6875 0)"/>
       <use xlink:href="#DejaVuSans-65" transform="translate(1397.550781 0)"/>
       <use xlink:href="#DejaVuSans-61" transform="translate(1459.074219 0)"/>
       <use xlink:href="#DejaVuSans-6d" transform="translate(1520.353516 0)"/>
       <use xlink:href="#DejaVuSans-20" transform="translate(1617.765625 0)"/>
       <use xlink:href="#DejaVuSans-73" transform="translate(1649.552734 0)"/>
       <use xlink:href="#DejaVuSans-74" transform="translate(1701.652344 0)"/>
       <use xlink:href="#DejaVuSans-61" transform="translate(1740.861328 0)"/>
       <use xlink:href="#DejaVuSans-72" transform="translate(1802.140625 0)"/>
       <use xlink:href="#DejaVuSans-74" transform="translate(1843.253906 0)"/>
      </g>
     </g>
    </g>
    <g id="ytick_7">
     <g id="line2d_16">
      <g>
       <use xlink:href="#m54403098d2" x="216.117188" y="206.854427" style="stroke: #000000; stroke-width: 0.8"/>
      </g>
     </g>
     <g id="text_17">
      <!-- Minutes 275 to 280 from stream start -->
      <g transform="translate(20.878125 210.653646) scale(0.1 -0.1)">
       <defs>
        <path id="DejaVuSans-37" d="M 525 4666 
L 3525 4666 
L 3525 4397 
L 1831 0 
L 1172 0 
L 2766 4134 
L 525 4134 
L 525 4666 
z
" transform="scale(0.015625)"/>
       </defs>
       <use xlink:href="#DejaVuSans-4d"/>
       <use xlink:href="#DejaVuSans-69" transform="translate(86.279297 0)"/>
       <use xlink:href="#DejaVuSans-6e" transform="translate(114.0625 0)"/>
       <use xlink:href="#DejaVuSans-75" transform="translate(177.441406 0)"/>
       <use xlink:href="#DejaVuSans-74" transform="translate(240.820312 0)"/>
       <use xlink:href="#DejaVuSans-65" transform="translate(280.029297 0)"/>
       <use xlink:href="#DejaVuSans-73" transform="translate(341.552734 0)"/>
       <use xlink:href="#DejaVuSans-20" transform="translate(393.652344 0)"/>
       <use xlink:href="#DejaVuSans-32" transform="translate(425.439453 0)"/>
       <use xlink:href="#DejaVuSans-37" transform="translate(489.0625 0)"/>
       <use xlink:href="#DejaVuSans-35" transform="translate(552.685547 0)"/>
       <use xlink:href="#DejaVuSans-20" transform="translate(616.308594 0)"/>
       <use xlink:href="#DejaVuSans-74" transform="translate(648.095703 0)"/>
       <use xlink:href="#DejaVuSans-6f" transform="translate(687.304688 0)"/>
       <use xlink:href="#DejaVuSans-20" transform="translate(748.486328 0)"/>
       <use xlink:href="#DejaVuSans-32" transform="translate(780.273438 0)"/>
       <use xlink:href="#DejaVuSans-38" transform="translate(843.896484 0)"/>
       <use xlink:href="#DejaVuSans-30" transform="translate(907.519531 0)"/>
       <use xlink:href="#DejaVuSans-20" transform="translate(971.142578 0)"/>
       <use xlink:href="#DejaVuSans-66" transform="translate(1002.929688 0)"/>
       <use xlink:href="#DejaVuSans-72" transform="translate(1038.134766 0)"/>
       <use xlink:href="#DejaVuSans-6f" transform="translate(1076.998047 0)"/>
       <use xlink:href="#DejaVuSans-6d" transform="translate(1138.179688 0)"/>
       <use xlink:href="#DejaVuSans-20" transform="translate(1235.591797 0)"/>
       <use xlink:href="#DejaVuSans-73" transform="translate(1267.378906 0)"/>
       <use xlink:href="#DejaVuSans-74" transform="translate(1319.478516 0)"/>
       <use xlink:href="#DejaVuSans-72" transform="translate(1358.6875 0)"/>
       <use xlink:href="#DejaVuSans-65" transform="translate(1397.550781 0)"/>
       <use xlink:href="#DejaVuSans-61" transform="translate(1459.074219 0)"/>
       <use xlink:href="#DejaVuSans-6d" transform="translate(1520.353516 0)"/>
       <use xlink:href="#DejaVuSans-20" transform="translate(1617.765625 0)"/>
       <use xlink:href="#DejaVuSans-73" transform="translate(1649.552734 0)"/>
       <use xlink:href="#DejaVuSans-74" transform="translate(1701.652344 0)"/>
       <use xlink:href="#DejaVuSans-61" transform="translate(1740.861328 0)"/>
       <use xlink:href="#DejaVuSans-72" transform="translate(1802.140625 0)"/>
       <use xlink:href="#DejaVuSans-74" transform="translate(1843.253906 0)"/>
      </g>
     </g>
    </g>
    <g id="ytick_8">
     <g id="line2d_17">
      <g>
       <use xlink:href="#m54403098d2" x="216.117188" y="176.047031" style="stroke: #000000; stroke-width: 0.8"/>
      </g>
     </g>
     <g id="text_18">
      <!-- Minutes 250 to 255 from stream start -->
      <g transform="translate(20.878125 179.84625) scale(0.1 -0.1)">
       <use xlink:href="#DejaVuSans-4d"/>
       <use xlink:href="#DejaVuSans-69" transform="translate(86.279297 0)"/>
       <use xlink:href="#DejaVuSans-6e" transform="translate(114.0625 0)"/>
       <use xlink:href="#DejaVuSans-75" transform="translate(177.441406 0)"/>
       <use xlink:href="#DejaVuSans-74" transform="translate(240.820312 0)"/>
       <use xlink:href="#DejaVuSans-65" transform="translate(280.029297 0)"/>
       <use xlink:href="#DejaVuSans-73" transform="translate(341.552734 0)"/>
       <use xlink:href="#DejaVuSans-20" transform="translate(393.652344 0)"/>
       <use xlink:href="#DejaVuSans-32" transform="translate(425.439453 0)"/>
       <use xlink:href="#DejaVuSans-35" transform="translate(489.0625 0)"/>
       <use xlink:href="#DejaVuSans-30" transform="translate(552.685547 0)"/>
       <use xlink:href="#DejaVuSans-20" transform="translate(616.308594 0)"/>
       <use xlink:href="#DejaVuSans-74" transform="translate(648.095703 0)"/>
       <use xlink:href="#DejaVuSans-6f" transform="translate(687.304688 0)"/>
       <use xlink:href="#DejaVuSans-20" transform="translate(748.486328 0)"/>
       <use xlink:href="#DejaVuSans-32" transform="translate(780.273438 0)"/>
       <use xlink:href="#DejaVuSans-35" transform="translate(843.896484 0)"/>
       <use xlink:href="#DejaVuSans-35" transform="translate(907.519531 0)"/>
       <use xlink:href="#DejaVuSans-20" transform="translate(971.142578 0)"/>
       <use xlink:href="#DejaVuSans-66" transform="translate(1002.929688 0)"/>
       <use xlink:href="#DejaVuSans-72" transform="translate(1038.134766 0)"/>
       <use xlink:href="#DejaVuSans-6f" transform="translate(1076.998047 0)"/>
       <use xlink:href="#DejaVuSans-6d" transform="translate(1138.179688 0)"/>
       <use xlink:href="#DejaVuSans-20" transform="translate(1235.591797 0)"/>
       <use xlink:href="#DejaVuSans-73" transform="translate(1267.378906 0)"/>
       <use xlink:href="#DejaVuSans-74" transform="translate(1319.478516 0)"/>
       <use xlink:href="#DejaVuSans-72" transform="translate(1358.6875 0)"/>
       <use xlink:href="#DejaVuSans-65" transform="translate(1397.550781 0)"/>
       <use xlink:href="#DejaVuSans-61" transform="translate(1459.074219 0)"/>
       <use xlink:href="#DejaVuSans-6d" transform="translate(1520.353516 0)"/>
       <use xlink:href="#DejaVuSans-20" transform="translate(1617.765625 0)"/>
       <use xlink:href="#DejaVuSans-73" transform="translate(1649.552734 0)"/>
       <use xlink:href="#DejaVuSans-74" transform="translate(1701.652344 0)"/>
       <use xlink:href="#DejaVuSans-61" transform="translate(1740.861328 0)"/>
       <use xlink:href="#DejaVuSans-72" transform="translate(1802.140625 0)"/>
       <use xlink:href="#DejaVuSans-74" transform="translate(1843.253906 0)"/>
      </g>
     </g>
    </g>
    <g id="ytick_9">
     <g id="line2d_18">
      <g>
       <use xlink:href="#m54403098d2" x="216.117188" y="145.239635" style="stroke: #000000; stroke-width: 0.8"/>
      </g>
     </g>
     <g id="text_19">
      <!-- Minutes 445 to 450 from stream start -->
      <g transform="translate(20.878125 149.038854) scale(0.1 -0.1)">
       <use xlink:href="#DejaVuSans-4d"/>
       <use xlink:href="#DejaVuSans-69" transform="translate(86.279297 0)"/>
       <use xlink:href="#DejaVuSans-6e" transform="translate(114.0625 0)"/>
       <use xlink:href="#DejaVuSans-75" transform="translate(177.441406 0)"/>
       <use xlink:href="#DejaVuSans-74" transform="translate(240.820312 0)"/>
       <use xlink:href="#DejaVuSans-65" transform="translate(280.029297 0)"/>
       <use xlink:href="#DejaVuSans-73" transform="translate(341.552734 0)"/>
       <use xlink:href="#DejaVuSans-20" transform="translate(393.652344 0)"/>
       <use xlink:href="#DejaVuSans-34" transform="translate(425.439453 0)"/>
       <use xlink:href="#DejaVuSans-34" transform="translate(489.0625 0)"/>
       <use xlink:href="#DejaVuSans-35" transform="translate(552.685547 0)"/>
       <use xlink:href="#DejaVuSans-20" transform="translate(616.308594 0)"/>
       <use xlink:href="#DejaVuSans-74" transform="translate(648.095703 0)"/>
       <use xlink:href="#DejaVuSans-6f" transform="translate(687.304688 0)"/>
       <use xlink:href="#DejaVuSans-20" transform="translate(748.486328 0)"/>
       <use xlink:href="#DejaVuSans-34" transform="translate(780.273438 0)"/>
       <use xlink:href="#DejaVuSans-35" transform="translate(843.896484 0)"/>
       <use xlink:href="#DejaVuSans-30" transform="translate(907.519531 0)"/>
       <use xlink:href="#DejaVuSans-20" transform="translate(971.142578 0)"/>
       <use xlink:href="#DejaVuSans-66" transform="translate(1002.929688 0)"/>
       <use xlink:href="#DejaVuSans-72" transform="translate(1038.134766 0)"/>
       <use xlink:href="#DejaVuSans-6f" transform="translate(1076.998047 0)"/>
       <use xlink:href="#DejaVuSans-6d" transform="translate(1138.179688 0)"/>
       <use xlink:href="#DejaVuSans-20" transform="translate(1235.591797 0)"/>
       <use xlink:href="#DejaVuSans-73" transform="translate(1267.378906 0)"/>
       <use xlink:href="#DejaVuSans-74" transform="translate(1319.478516 0)"/>
       <use xlink:href="#DejaVuSans-72" transform="translate(1358.6875 0)"/>
       <use xlink:href="#DejaVuSans-65" transform="translate(1397.550781 0)"/>
       <use xlink:href="#DejaVuSans-61" transform="translate(1459.074219 0)"/>
       <use xlink:href="#DejaVuSans-6d" transform="translate(1520.353516 0)"/>
       <use xlink:href="#DejaVuSans-20" transform="translate(1617.765625 0)"/>
       <use xlink:href="#DejaVuSans-73" transform="translate(1649.552734 0)"/>
       <use xlink:href="#DejaVuSans-74" transform="translate(1701.652344 0)"/>
       <use xlink:href="#DejaVuSans-61" transform="translate(1740.861328 0)"/>
       <use xlink:href="#DejaVuSans-72" transform="translate(1802.140625 0)"/>
       <use xlink:href="#DejaVuSans-74" transform="translate(1843.253906 0)"/>
      </g>
     </g>
    </g>
    <g id="ytick_10">
     <g id="line2d_19">
      <g>
       <use xlink:href="#m54403098d2" x="216.117188" y="114.432239" style="stroke: #000000; stroke-width: 0.8"/>
      </g>
     </g>
     <g id="text_20">
      <!-- Minutes 370 to 375 from stream start -->
      <g transform="translate(20.878125 118.231458) scale(0.1 -0.1)">
       <use xlink:href="#DejaVuSans-4d"/>
       <use xlink:href="#DejaVuSans-69" transform="translate(86.279297 0)"/>
       <use xlink:href="#DejaVuSans-6e" transform="translate(114.0625 0)"/>
       <use xlink:href="#DejaVuSans-75" transform="translate(177.441406 0)"/>
       <use xlink:href="#DejaVuSans-74" transform="translate(240.820312 0)"/>
       <use xlink:href="#DejaVuSans-65" transform="translate(280.029297 0)"/>
       <use xlink:href="#DejaVuSans-73" transform="translate(341.552734 0)"/>
       <use xlink:href="#DejaVuSans-20" transform="translate(393.652344 0)"/>
       <use xlink:href="#DejaVuSans-33" transform="translate(425.439453 0)"/>
       <use xlink:href="#DejaVuSans-37" transform="translate(489.0625 0)"/>
       <use xlink:href="#DejaVuSans-30" transform="translate(552.685547 0)"/>
       <use xlink:href="#DejaVuSans-20" transform="translate(616.308594 0)"/>
       <use xlink:href="#DejaVuSans-74" transform="translate(648.095703 0)"/>
       <use xlink:href="#DejaVuSans-6f" transform="translate(687.304688 0)"/>
       <use xlink:href="#DejaVuSans-20" transform="translate(748.486328 0)"/>
       <use xlink:href="#DejaVuSans-33" transform="translate(780.273438 0)"/>
       <use xlink:href="#DejaVuSans-37" transform="translate(843.896484 0)"/>
       <use xlink:href="#DejaVuSans-35" transform="translate(907.519531 0)"/>
       <use xlink:href="#DejaVuSans-20" transform="translate(971.142578 0)"/>
       <use xlink:href="#DejaVuSans-66" transform="translate(1002.929688 0)"/>
       <use xlink:href="#DejaVuSans-72" transform="translate(1038.134766 0)"/>
       <use xlink:href="#DejaVuSans-6f" transform="translate(1076.998047 0)"/>
       <use xlink:href="#DejaVuSans-6d" transform="translate(1138.179688 0)"/>
       <use xlink:href="#DejaVuSans-20" transform="translate(1235.591797 0)"/>
       <use xlink:href="#DejaVuSans-73" transform="translate(1267.378906 0)"/>
       <use xlink:href="#DejaVuSans-74" transform="translate(1319.478516 0)"/>
       <use xlink:href="#DejaVuSans-72" transform="translate(1358.6875 0)"/>
       <use xlink:href="#DejaVuSans-65" transform="translate(1397.550781 0)"/>
       <use xlink:href="#DejaVuSans-61" transform="translate(1459.074219 0)"/>
       <use xlink:href="#DejaVuSans-6d" transform="translate(1520.353516 0)"/>
       <use xlink:href="#DejaVuSans-20" transform="translate(1617.765625 0)"/>
       <use xlink:href="#DejaVuSans-73" transform="translate(1649.552734 0)"/>
       <use xlink:href="#DejaVuSans-74" transform="translate(1701.652344 0)"/>
       <use xlink:href="#DejaVuSans-61" transform="translate(1740.861328 0)"/>
       <use xlink:href="#DejaVuSans-72" transform="translate(1802.140625 0)"/>
       <use xlink:href="#DejaVuSans-74" transform="translate(1843.253906 0)"/>
      </g>
     </g>
    </g>
    <g id="ytick_11">
     <g id="line2d_20">
      <g>
       <use xlink:href="#m54403098d2" x="216.117188" y="83.624843" style="stroke: #000000; stroke-width: 0.8"/>
      </g>
     </g>
     <g id="text_21">
      <!-- Minutes 320 to 325 from stream start -->
      <g transform="translate(20.878125 87.424062) scale(0.1 -0.1)">
       <use xlink:href="#DejaVuSans-4d"/>
       <use xlink:href="#DejaVuSans-69" transform="translate(86.279297 0)"/>
       <use xlink:href="#DejaVuSans-6e" transform="translate(114.0625 0)"/>
       <use xlink:href="#DejaVuSans-75" transform="translate(177.441406 0)"/>
       <use xlink:href="#DejaVuSans-74" transform="translate(240.820312 0)"/>
       <use xlink:href="#DejaVuSans-65" transform="translate(280.029297 0)"/>
       <use xlink:href="#DejaVuSans-73" transform="translate(341.552734 0)"/>
       <use xlink:href="#DejaVuSans-20" transform="translate(393.652344 0)"/>
       <use xlink:href="#DejaVuSans-33" transform="translate(425.439453 0)"/>
       <use xlink:href="#DejaVuSans-32" transform="translate(489.0625 0)"/>
       <use xlink:href="#DejaVuSans-30" transform="translate(552.685547 0)"/>
       <use xlink:href="#DejaVuSans-20" transform="translate(616.308594 0)"/>
       <use xlink:href="#DejaVuSans-74" transform="translate(648.095703 0)"/>
       <use xlink:href="#DejaVuSans-6f" transform="translate(687.304688 0)"/>
       <use xlink:href="#DejaVuSans-20" transform="translate(748.486328 0)"/>
       <use xlink:href="#DejaVuSans-33" transform="translate(780.273438 0)"/>
       <use xlink:href="#DejaVuSans-32" transform="translate(843.896484 0)"/>
       <use xlink:href="#DejaVuSans-35" transform="translate(907.519531 0)"/>
       <use xlink:href="#DejaVuSans-20" transform="translate(971.142578 0)"/>
       <use xlink:href="#DejaVuSans-66" transform="translate(1002.929688 0)"/>
       <use xlink:href="#DejaVuSans-72" transform="translate(1038.134766 0)"/>
       <use xlink:href="#DejaVuSans-6f" transform="translate(1076.998047 0)"/>
       <use xlink:href="#DejaVuSans-6d" transform="translate(1138.179688 0)"/>
       <use xlink:href="#DejaVuSans-20" transform="translate(1235.591797 0)"/>
       <use xlink:href="#DejaVuSans-73" transform="translate(1267.378906 0)"/>
       <use xlink:href="#DejaVuSans-74" transform="translate(1319.478516 0)"/>
       <use xlink:href="#DejaVuSans-72" transform="translate(1358.6875 0)"/>
       <use xlink:href="#DejaVuSans-65" transform="translate(1397.550781 0)"/>
       <use xlink:href="#DejaVuSans-61" transform="translate(1459.074219 0)"/>
       <use xlink:href="#DejaVuSans-6d" transform="translate(1520.353516 0)"/>
       <use xlink:href="#DejaVuSans-20" transform="translate(1617.765625 0)"/>
       <use xlink:href="#DejaVuSans-73" transform="translate(1649.552734 0)"/>
       <use xlink:href="#DejaVuSans-74" transform="translate(1701.652344 0)"/>
       <use xlink:href="#DejaVuSans-61" transform="translate(1740.861328 0)"/>
       <use xlink:href="#DejaVuSans-72" transform="translate(1802.140625 0)"/>
       <use xlink:href="#DejaVuSans-74" transform="translate(1843.253906 0)"/>
      </g>
     </g>
    </g>
    <g id="ytick_12">
     <g id="line2d_21">
      <g>
       <use xlink:href="#m54403098d2" x="216.117188" y="52.817447" style="stroke: #000000; stroke-width: 0.8"/>
      </g>
     </g>
     <g id="text_22">
      <!-- Minutes 385 to 390 from stream start -->
      <g transform="translate(20.878125 56.616666) scale(0.1 -0.1)">
       <use xlink:href="#DejaVuSans-4d"/>
       <use xlink:href="#DejaVuSans-69" transform="translate(86.279297 0)"/>
       <use xlink:href="#DejaVuSans-6e" transform="translate(114.0625 0)"/>
       <use xlink:href="#DejaVuSans-75" transform="translate(177.441406 0)"/>
       <use xlink:href="#DejaVuSans-74" transform="translate(240.820312 0)"/>
       <use xlink:href="#DejaVuSans-65" transform="translate(280.029297 0)"/>
       <use xlink:href="#DejaVuSans-73" transform="translate(341.552734 0)"/>
       <use xlink:href="#DejaVuSans-20" transform="translate(393.652344 0)"/>
       <use xlink:href="#DejaVuSans-33" transform="translate(425.439453 0)"/>
       <use xlink:href="#DejaVuSans-38" transform="translate(489.0625 0)"/>
       <use xlink:href="#DejaVuSans-35" transform="translate(552.685547 0)"/>
       <use xlink:href="#DejaVuSans-20" transform="translate(616.308594 0)"/>
       <use xlink:href="#DejaVuSans-74" transform="translate(648.095703 0)"/>
       <use xlink:href="#DejaVuSans-6f" transform="translate(687.304688 0)"/>
       <use xlink:href="#DejaVuSans-20" transform="translate(748.486328 0)"/>
       <use xlink:href="#DejaVuSans-33" transform="translate(780.273438 0)"/>
       <use xlink:href="#DejaVuSans-39" transform="translate(843.896484 0)"/>
       <use xlink:href="#DejaVuSans-30" transform="translate(907.519531 0)"/>
       <use xlink:href="#DejaVuSans-20" transform="translate(971.142578 0)"/>
       <use xlink:href="#DejaVuSans-66" transform="translate(1002.929688 0)"/>
       <use xlink:href="#DejaVuSans-72" transform="translate(1038.134766 0)"/>
       <use xlink:href="#DejaVuSans-6f" transform="translate(1076.998047 0)"/>
       <use xlink:href="#DejaVuSans-6d" transform="translate(1138.179688 0)"/>
       <use xlink:href="#DejaVuSans-20" transform="translate(1235.591797 0)"/>
       <use xlink:href="#DejaVuSans-73" transform="translate(1267.378906 0)"/>
       <use xlink:href="#DejaVuSans-74" transform="translate(1319.478516 0)"/>
       <use xlink:href="#DejaVuSans-72" transform="translate(1358.6875 0)"/>
       <use xlink:href="#DejaVuSans-65" transform="translate(1397.550781 0)"/>
       <use xlink:href="#DejaVuSans-61" transform="translate(1459.074219 0)"/>
       <use xlink:href="#DejaVuSans-6d" transform="translate(1520.353516 0)"/>
       <use xlink:href="#DejaVuSans-20" transform="translate(1617.765625 0)"/>
       <use xlink:href="#DejaVuSans-73" transform="translate(1649.552734 0)"/>
       <use xlink:href="#DejaVuSans-74" transform="translate(1701.652344 0)"/>
       <use xlink:href="#DejaVuSans-61" transform="translate(1740.861328 0)"/>
       <use xlink:href="#DejaVuSans-72" transform="translate(1802.140625 0)"/>
       <use xlink:href="#DejaVuSans-74" transform="translate(1843.253906 0)"/>
      </g>
     </g>
    </g>
    <g id="text_23">
     <!-- Time window -->
     <g transform="translate(14.798438 255.050312) rotate(-90) scale(0.1 -0.1)">
      <defs>
       <path id="DejaVuSans-54" d="M -19 4666 
L 3928 4666 
L 3928 4134 
L 2272 4134 
L 2272 0 
L 1638 0 
L 1638 4134 
L -19 4134 
L -19 4666 
z
" transform="scale(0.015625)"/>
       <path id="DejaVuSans-77" d="M 269 3500 
L 844 3500 
L 1563 769 
L 2278 3500 
L 2956 3500 
L 3675 769 
L 4391 3500 
L 4966 3500 
L 4050 0 
L 3372 0 
L 2619 2869 
L 1863 0 
L 1184 0 
L 269 3500 
z
" transform="scale(0.015625)"/>
       <path id="DejaVuSans-64" d="M 2906 2969 
L 2906 4863 
L 3481 4863 
L 3481 0 
L 2906 0 
L 2906 525 
Q 2725 213 2448 61 
Q 2172 -91 1784 -91 
Q 1150 -91 751 415 
Q 353 922 353 1747 
Q 353 2572 751 3078 
Q 1150 3584 1784 3584 
Q 2172 3584 2448 3432 
Q 2725 3281 2906 2969 
z
M 947 1747 
Q 947 1113 1208 752 
Q 1469 391 1925 391 
Q 2381 391 2643 752 
Q 2906 1113 2906 1747 
Q 2906 2381 2643 2742 
Q 2381 3103 1925 3103 
Q 1469 3103 1208 2742 
Q 947 2381 947 1747 
z
" transform="scale(0.015625)"/>
      </defs>
      <use xlink:href="#DejaVuSans-54"/>
      <use xlink:href="#DejaVuSans-69" transform="translate(57.958984 0)"/>
      <use xlink:href="#DejaVuSans-6d" transform="translate(85.742188 0)"/>
      <use xlink:href="#DejaVuSans-65" transform="translate(183.154297 0)"/>
      <use xlink:href="#DejaVuSans-20" transform="translate(244.677734 0)"/>
      <use xlink:href="#DejaVuSans-77" transform="translate(276.464844 0)"/>
      <use xlink:href="#DejaVuSans-69" transform="translate(358.251953 0)"/>
      <use xlink:href="#DejaVuSans-6e" transform="translate(386.035156 0)"/>
      <use xlink:href="#DejaVuSans-64" transform="translate(449.414062 0)"/>
      <use xlink:href="#DejaVuSans-6f" transform="translate(512.890625 0)"/>
      <use xlink:href="#DejaVuSans-77" transform="translate(574.072266 0)"/>
     </g>
    </g>
   </g>
   <g id="patch_15">
    <path d="M 216.117188 422.198125 
L 216.117188 22.318125 
" style="fill: none; stroke: #000000; stroke-width: 0.8; stroke-linejoin: miter; stroke-linecap: square"/>
   </g>
   <g id="patch_16">
    <path d="M 632.977188 422.198125 
L 632.977188 22.318125 
" style="fill: none; stroke: #000000; stroke-width: 0.8; stroke-linejoin: miter; stroke-linecap: square"/>
   </g>
   <g id="patch_17">
    <path d="M 216.117188 422.198125 
L 632.977188 422.198125 
" style="fill: none; stroke: #000000; stroke-width: 0.8; stroke-linejoin: miter; stroke-linecap: square"/>
   </g>
   <g id="patch_18">
    <path d="M 216.117188 22.318125 
L 632.977188 22.318125 
" style="fill: none; stroke: #000000; stroke-width: 0.8; stroke-linejoin: miter; stroke-linecap: square"/>
   </g>
   <g id="text_24">
    <!-- Question 1: Where chat rate peaks on the primary stream (twelve busiest 5-minute windows) -->
    <g transform="translate(143.564375 16.318125) scale(0.12 -0.12)">
     <defs>
      <path id="DejaVuSans-51" d="M 2522 4238 
Q 1834 4238 1429 3725 
Q 1025 3213 1025 2328 
Q 1025 1447 1429 934 
Q 1834 422 2522 422 
Q 3209 422 3611 934 
Q 4013 1447 4013 2328 
Q 4013 3213 3611 3725 
Q 3209 4238 2522 4238 
z
M 3406 84 
L 4238 -825 
L 3475 -825 
L 2784 -78 
Q 2681 -84 2626 -87 
Q 2572 -91 2522 -91 
Q 1538 -91 948 567 
Q 359 1225 359 2328 
Q 359 3434 948 4092 
Q 1538 4750 2522 4750 
Q 3503 4750 4090 4092 
Q 4678 3434 4678 2328 
Q 4678 1516 4351 937 
Q 4025 359 3406 84 
z
" transform="scale(0.015625)"/>
      <path id="DejaVuSans-3a" d="M 750 794 
L 1409 794 
L 1409 0 
L 750 0 
L 750 794 
z
M 750 3309 
L 1409 3309 
L 1409 2516 
L 750 2516 
L 750 3309 
z
" transform="scale(0.015625)"/>
      <path id="DejaVuSans-57" d="M 213 4666 
L 850 4666 
L 1831 722 
L 2809 4666 
L 3519 4666 
L 4500 722 
L 5478 4666 
L 6119 4666 
L 4947 0 
L 4153 0 
L 3169 4050 
L 2175 0 
L 1381 0 
L 213 4666 
z
" transform="scale(0.015625)"/>
      <path id="DejaVuSans-68" d="M 3513 2113 
L 3513 0 
L 2938 0 
L 2938 2094 
Q 2938 2591 2744 2837 
Q 2550 3084 2163 3084 
Q 1697 3084 1428 2787 
Q 1159 2491 1159 1978 
L 1159 0 
L 581 0 
L 581 4863 
L 1159 4863 
L 1159 2956 
Q 1366 3272 1645 3428 
Q 1925 3584 2291 3584 
Q 2894 3584 3203 3211 
Q 3513 2838 3513 2113 
z
" transform="scale(0.015625)"/>
      <path id="DejaVuSans-63" d="M 3122 3366 
L 3122 2828 
Q 2878 2963 2633 3030 
Q 2388 3097 2138 3097 
Q 1578 3097 1268 2742 
Q 959 2388 959 1747 
Q 959 1106 1268 751 
Q 1578 397 2138 397 
Q 2388 397 2633 464 
Q 2878 531 3122 666 
L 3122 134 
Q 2881 22 2623 -34 
Q 2366 -91 2075 -91 
Q 1284 -91 818 406 
Q 353 903 353 1747 
Q 353 2603 823 3093 
Q 1294 3584 2113 3584 
Q 2378 3584 2631 3529 
Q 2884 3475 3122 3366 
z
" transform="scale(0.015625)"/>
      <path id="DejaVuSans-6b" d="M 581 4863 
L 1159 4863 
L 1159 1991 
L 2875 3500 
L 3609 3500 
L 1753 1863 
L 3688 0 
L 2938 0 
L 1159 1709 
L 1159 0 
L 581 0 
L 581 4863 
z
" transform="scale(0.015625)"/>
      <path id="DejaVuSans-79" d="M 2059 -325 
Q 1816 -950 1584 -1140 
Q 1353 -1331 966 -1331 
L 506 -1331 
L 506 -850 
L 844 -850 
Q 1081 -850 1212 -737 
Q 1344 -625 1503 -206 
L 1606 56 
L 191 3500 
L 800 3500 
L 1894 763 
L 2988 3500 
L 3597 3500 
L 2059 -325 
z
" transform="scale(0.015625)"/>
      <path id="DejaVuSans-6c" d="M 603 4863 
L 1178 4863 
L 1178 0 
L 603 0 
L 603 4863 
z
" transform="scale(0.015625)"/>
      <path id="DejaVuSans-76" d="M 191 3500 
L 800 3500 
L 1894 563 
L 2988 3500 
L 3597 3500 
L 2284 0 
L 1503 0 
L 191 3500 
z
" transform="scale(0.015625)"/>
     </defs>
     <use xlink:href="#DejaVuSans-51"/>
     <use xlink:href="#DejaVuSans-75" transform="translate(78.710938 0)"/>
     <use xlink:href="#DejaVuSans-65" transform="translate(142.089844 0)"/>
     <use xlink:href="#DejaVuSans-73" transform="translate(203.613281 0)"/>
     <use xlink:href="#DejaVuSans-74" transform="translate(255.712891 0)"/>
     <use xlink:href="#DejaVuSans-69" transform="translate(294.921875 0)"/>
     <use xlink:href="#DejaVuSans-6f" transform="translate(322.705078 0)"/>
     <use xlink:href="#DejaVuSans-6e" transform="translate(383.886719 0)"/>
     <use xlink:href="#DejaVuSans-20" transform="translate(447.265625 0)"/>
     <use xlink:href="#DejaVuSans-31" transform="translate(479.052734 0)"/>
     <use xlink:href="#DejaVuSans-3a" transform="translate(542.675781 0)"/>
     <use xlink:href="#DejaVuSans-20" transform="translate(576.367188 0)"/>
     <use xlink:href="#DejaVuSans-57" transform="translate(608.154297 0)"/>
     <use xlink:href="#DejaVuSans-68" transform="translate(707.03125 0)"/>
     <use xlink:href="#DejaVuSans-65" transform="translate(770.410156 0)"/>
     <use xlink:href="#DejaVuSans-72" transform="translate(831.933594 0)"/>
     <use xlink:href="#DejaVuSans-65" transform="translate(870.796875 0)"/>
     <use xlink:href="#DejaVuSans-20" transform="translate(932.320312 0)"/>
     <use xlink:href="#DejaVuSans-63" transform="translate(964.107422 0)"/>
     <use xlink:href="#DejaVuSans-68" transform="translate(1019.087891 0)"/>
     <use xlink:href="#DejaVuSans-61" transform="translate(1082.466797 0)"/>
     <use xlink:href="#DejaVuSans-74" transform="translate(1143.746094 0)"/>
     <use xlink:href="#DejaVuSans-20" transform="translate(1182.955078 0)"/>
     <use xlink:href="#DejaVuSans-72" transform="translate(1214.742188 0)"/>
     <use xlink:href="#DejaVuSans-61" transform="translate(1255.855469 0)"/>
     <use xlink:href="#DejaVuSans-74" transform="translate(1317.134766 0)"/>
     <use xlink:href="#DejaVuSans-65" transform="translate(1356.34375 0)"/>
     <use xlink:href="#DejaVuSans-20" transform="translate(1417.867188 0)"/>
     <use xlink:href="#DejaVuSans-70" transform="translate(1449.654297 0)"/>
     <use xlink:href="#DejaVuSans-65" transform="translate(1513.130859 0)"/>
     <use xlink:href="#DejaVuSans-61" transform="translate(1574.654297 0)"/>
     <use xlink:href="#DejaVuSans-6b" transform="translate(1635.933594 0)"/>
     <use xlink:href="#DejaVuSans-73" transform="translate(1693.84375 0)"/>
     <use xlink:href="#DejaVuSans-20" transform="translate(1745.943359 0)"/>
     <use xlink:href="#DejaVuSans-6f" transform="translate(1777.730469 0)"/>
     <use xlink:href="#DejaVuSans-6e" transform="translate(1838.912109 0)"/>
     <use xlink:href="#DejaVuSans-20" transform="translate(1902.291016 0)"/>
     <use xlink:href="#DejaVuSans-74" transform="translate(1934.078125 0)"/>
     <use xlink:href="#DejaVuSans-68" transform="translate(1973.287109 0)"/>
     <use xlink:href="#DejaVuSans-65" transform="translate(2036.666016 0)"/>
     <use xlink:href="#DejaVuSans-20" transform="translate(2098.189453 0)"/>
     <use xlink:href="#DejaVuSans-70" transform="translate(2129.976562 0)"/>
     <use xlink:href="#DejaVuSans-72" transform="translate(2193.453125 0)"/>
     <use xlink:href="#DejaVuSans-69" transform="translate(2234.566406 0)"/>
     <use xlink:href="#DejaVuSans-6d" transform="translate(2262.349609 0)"/>
     <use xlink:href="#DejaVuSans-61" transform="translate(2359.761719 0)"/>
     <use xlink:href="#DejaVuSans-72" transform="translate(2421.041016 0)"/>
     <use xlink:href="#DejaVuSans-79" transform="translate(2462.154297 0)"/>
     <use xlink:href="#DejaVuSans-20" transform="translate(2521.333984 0)"/>
     <use xlink:href="#DejaVuSans-73" transform="translate(2553.121094 0)"/>
     <use xlink:href="#DejaVuSans-74" transform="translate(2605.220703 0)"/>
     <use xlink:href="#DejaVuSans-72" transform="translate(2644.429688 0)"/>
     <use xlink:href="#DejaVuSans-65" transform="translate(2683.292969 0)"/>
     <use xlink:href="#DejaVuSans-61" transform="translate(2744.816406 0)"/>
     <use xlink:href="#DejaVuSans-6d" transform="translate(2806.095703 0)"/>
     <use xlink:href="#DejaVuSans-20" transform="translate(2903.507812 0)"/>
     <use xlink:href="#DejaVuSans-28" transform="translate(2935.294922 0)"/>
     <use xlink:href="#DejaVuSans-74" transform="translate(2974.308594 0)"/>
     <use xlink:href="#DejaVuSans-77" transform="translate(3013.517578 0)"/>
     <use xlink:href="#DejaVuSans-65" transform="translate(3095.304688 0)"/>
     <use xlink:href="#DejaVuSans-6c" transform="translate(3156.828125 0)"/>
     <use xlink:href="#DejaVuSans-76" transform="translate(3184.611328 0)"/>
     <use xlink:href="#DejaVuSans-65" transform="translate(3243.791016 0)"/>
     <use xlink:href="#DejaVuSans-20" transform="translate(3305.314453 0)"/>
     <use xlink:href="#DejaVuSans-62" transform="translate(3337.101562 0)"/>
     <use xlink:href="#DejaVuSans-75" transform="translate(3400.578125 0)"/>
     <use xlink:href="#DejaVuSans-73" transform="translate(3463.957031 0)"/>
     <use xlink:href="#DejaVuSans-69" transform="translate(3516.056641 0)"/>
     <use xlink:href="#DejaVuSans-65" transform="translate(3543.839844 0)"/>
     <use xlink:href="#DejaVuSans-73" transform="translate(3605.363281 0)"/>
     <use xlink:href="#DejaVuSans-74" transform="translate(3657.462891 0)"/>
     <use xlink:href="#DejaVuSans-20" transform="translate(3696.671875 0)"/>
     <use xlink:href="#DejaVuSans-35" transform="translate(3728.458984 0)"/>
     <use xlink:href="#DejaVuSans-2d" transform="translate(3792.082031 0)"/>
     <use xlink:href="#DejaVuSans-6d" transform="translate(3828.166016 0)"/>
     <use xlink:href="#DejaVuSans-69" transform="translate(3925.578125 0)"/>
     <use xlink:href="#DejaVuSans-6e" transform="translate(3953.361328 0)"/>
     <use xlink:href="#DejaVuSans-75" transform="translate(4016.740234 0)"/>
     <use xlink:href="#DejaVuSans-74" transform="translate(4080.119141 0)"/>
     <use xlink:href="#DejaVuSans-65" transform="translate(4119.328125 0)"/>
     <use xlink:href="#DejaVuSans-20" transform="translate(4180.851562 0)"/>
     <use xlink:href="#DejaVuSans-77" transform="translate(4212.638672 0)"/>
     <use xlink:href="#DejaVuSans-69" transform="translate(4294.425781 0)"/>
     <use xlink:href="#DejaVuSans-6e" transform="translate(4322.208984 0)"/>
     <use xlink:href="#DejaVuSans-64" transform="translate(4385.587891 0)"/>
     <use xlink:href="#DejaVuSans-6f" transform="translate(4449.064453 0)"/>
     <use xlink:href="#DejaVuSans-77" transform="translate(4510.246094 0)"/>
     <use xlink:href="#DejaVuSans-73" transform="translate(4592.033203 0)"/>
     <use xlink:href="#DejaVuSans-29" transform="translate(4644.132812 0)"/>
    </g>
   </g>
  </g>
 </g>
 <defs>
  <clipPath id="pc873e51c4c">
   <rect x="216.117188" y="22.318125" width="416.86" height="399.88"/>
  </clipPath>
 </defs>
</svg>
