<?xml version="1.0" encoding="utf-8" standalone="no"?>
<!DOCTYPE svg PUBLIC "-//W3C//DTD SVG 1.1//EN"
  "http://www.w3.org/Graphics/SVG/1.1/DTD/svg11.dtd">
<svg xmlns:xlink="http://www.w3.org/1999/xlink" width="803.46375pt" height="390.671719pt" viewBox="0 0 803.46375 390.671719" xmlns="http://www.w3.org/2000/svg" version="1.1">
 <metadata>
  <rdf:RDF xmlns:dc="http://purl.org/dc/elements/1.1/" xmlns:cc="http://creativecommons.org/ns#" xmlns:rdf="http://www.w3.org/1999/02/22-rdf-syntax-ns#">
   <cc:Work>
    <dc:type rdf:resource="http://purl.org/dc/dcmitype/StillImage"/>
    <dc:date>2026-05-13T01:28:31.961006</dc:date>
    <dc:format>image/svg+xml</dc:format>
    <dc:creator>
     <cc:Agent>
      <dc:title>Matplotlib v3.10.9, https://matplotlib.org/</dc:title>
     </cc:Agent>
    </dc:creator>
   </cc:Work>
  </rdf:RDF>
 </metadata>
 <defs>
  <style type="text/css">*{stroke-linejoin: round; stroke-linecap: butt}</style>
 </defs>
 <g id="figure_1">
  <g id="patch_1">
   <path d="M 0 390.671719 
L 803.46375 390.671719 
L 803.46375 -0 
L 0 -0 
z
" style="fill: #ffffff"/>
  </g>
  <g id="axes_1">
   <g id="patch_2">
    <path d="M 50.391875 313.864 
L 396.331875 313.864 
L 396.331875 63.24 
L 50.391875 63.24 
z
" style="fill: #ffffff"/>
   </g>
   <g id="patch_3">
    <path d="M 66.11642 313.864 
L 177.709969 313.864 
L 177.709969 230.170939 
L 66.11642 230.170939 
z
" clip-path="url(#pf7ea4371dc)" style="fill: #636efa"/>
   </g>
   <g id="patch_4">
    <path d="M 269.013781 313.864 
L 380.60733 313.864 
L 380.60733 75.174476 
L 269.013781 75.174476 
z
" clip-path="url(#pf7ea4371dc)" style="fill: #636efa"/>
   </g>
   <g id="matplotlib.axis_1">
    <g id="xtick_1">
     <g id="line2d_1">
      <defs>
       <path id="m8246750633" d="M 0 0 
L 0 3.5 
" style="stroke: #000000; stroke-width: 0.8"/>
      </defs>
      <g>
       <use xlink:href="#m8246750633" x="121.913195" y="313.864" style="stroke: #000000; stroke-width: 0.8"/>
      </g>
     </g>
     <g id="text_1">
      <!-- Quieter bins -->
      <g transform="translate(94.383742 327.702594) scale(0.09 -0.09)">
       <defs>
        <path id="DejaVuSans-51" d="M 2522 4238 
Q 1834 4238 1429 3725 
Q 1025 3213 1025 2328 
Q 1025 1447 1429 934 
Q 1834 422 2522 422 
Q 3209 422 3611 934 
Q 4013 1447 4013 2328 
Q 4013 3213 3611 3725 
Q 3209 4238 2522 4238 
z
M 3406 84 
L 4238 -825 
L 3475 -825 
L 2784 -78 
Q 2681 -84 2626 -87 
Q 2572 -91 2522 -91 
Q 1538 -91 948 567 
Q 359 1225 359 2328 
Q 359 3434 948 4092 
Q 1538 4750 2522 4750 
Q 3503 4750 4090 4092 
Q 4678 3434 4678 2328 
Q 4678 1516 4351 937 
Q 4025 359 3406 84 
z
" transform="scale(0.015625)"/>
        <path id="DejaVuSans-75" d="M 544 1381 
L 544 3500 
L 1119 3500 
L 1119 1403 
Q 1119 906 1312 657 
Q 1506 409 1894 409 
Q 2359 409 2629 706 
Q 2900 1003 2900 1516 
L 2900 3500 
L 3475 3500 
L 3475 0 
L 2900 0 
L 2900 538 
Q 2691 219 2414 64 
Q 2138 -91 1772 -91 
Q 1169 -91 856 284 
Q 544 659 544 1381 
z
M 1991 3584 
L 1991 3584 
z
" transform="scale(0.015625)"/>
        <path id="DejaVuSans-69" d="M 603 3500 
L 1178 3500 
L 1178 0 
L 603 0 
L 603 3500 
z
M 603 4863 
L 1178 4863 
L 1178 4134 
L 603 4134 
L 603 4863 
z
" transform="scale(0.015625)"/>
        <path id="DejaVuSans-65" d="M 3597 1894 
L 3597 1613 
L 953 1613 
Q 991 1019 1311 708 
Q 1631 397 2203 397 
Q 2534 397 2845 478 
Q 3156 559 3463 722 
L 3463 178 
Q 3153 47 2828 -22 
Q 2503 -91 2169 -91 
Q 1331 -91 842 396 
Q 353 884 353 1716 
Q 353 2575 817 3079 
Q 1281 3584 2069 3584 
Q 2775 3584 3186 3129 
Q 3597 2675 3597 1894 
z
M 3022 2063 
Q 3016 2534 2758 2815 
Q 2500 3097 2075 3097 
Q 1594 3097 1305 2825 
Q 1016 2553 972 2059 
L 3022 2063 
z
" transform="scale(0.015625)"/>
        <path id="DejaVuSans-74" d="M 1172 4494 
L 1172 3500 
L 2356 3500 
L 2356 3053 
L 1172 3053 
L 1172 1153 
Q 1172 725 1289 603 
Q 1406 481 1766 481 
L 2356 481 
L 2356 0 
L 1766 0 
Q 1100 0 847 248 
Q 594 497 594 1153 
L 594 3053 
L 172 3053 
L 172 3500 
L 594 3500 
L 594 4494 
L 1172 4494 
z
" transform="scale(0.015625)"/>
        <path id="DejaVuSans-72" d="M 2631 2963 
Q 2534 3019 2420 3045 
Q 2306 3072 2169 3072 
Q 1681 3072 1420 2755 
Q 1159 2438 1159 1844 
L 1159 0 
L 581 0 
L 581 3500 
L 1159 3500 
L 1159 2956 
Q 1341 3275 1631 3429 
Q 1922 3584 2338 3584 
Q 2397 3584 2469 3576 
Q 2541 3569 2628 3553 
L 2631 2963 
z
" transform="scale(0.015625)"/>
        <path id="DejaVuSans-20" transform="scale(0.015625)"/>
        <path id="DejaVuSans-62" d="M 3116 1747 
Q 3116 2381 2855 2742 
Q 2594 3103 2138 3103 
Q 1681 3103 1420 2742 
Q 1159 2381 1159 1747 
Q 1159 1113 1420 752 
Q 1681 391 2138 391 
Q 2594 391 2855 752 
Q 3116 1113 3116 1747 
z
M 1159 2969 
Q 1341 3281 1617 3432 
Q 1894 3584 2278 3584 
Q 2916 3584 3314 3078 
Q 3713 2572 3713 1747 
Q 3713 922 3314 415 
Q 2916 -91 2278 -91 
Q 1894 -91 1617 61 
Q 1341 213 1159 525 
L 1159 0 
L 581 0 
L 581 4863 
L 1159 4863 
L 1159 2969 
z
" transform="scale(0.015625)"/>
        <path id="DejaVuSans-6e" d="M 3513 2113 
L 3513 0 
L 2938 0 
L 2938 2094 
Q 2938 2591 2744 2837 
Q 2550 3084 2163 3084 
Q 1697 3084 1428 2787 
Q 1159 2491 1159 1978 
L 1159 0 
L 581 0 
L 581 3500 
L 1159 3500 
L 1159 2956 
Q 1366 3272 1645 3428 
Q 1925 3584 2291 3584 
Q 2894 3584 3203 3211 
Q 3513 2838 3513 2113 
z
" transform="scale(0.015625)"/>
        <path id="DejaVuSans-73" d="M 2834 3397 
L 2834 2853 
Q 2591 2978 2328 3040 
Q 2066 3103 1784 3103 
Q 1356 3103 1142 2972 
Q 928 2841 928 2578 
Q 928 2378 1081 2264 
Q 1234 2150 1697 2047 
L 1894 2003 
Q 2506 1872 2764 1633 
Q 3022 1394 3022 966 
Q 3022 478 2636 193 
Q 2250 -91 1575 -91 
Q 1294 -91 989 -36 
Q 684 19 347 128 
L 347 722 
Q 666 556 975 473 
Q 1284 391 1588 391 
Q 1994 391 2212 530 
Q 2431 669 2431 922 
Q 2431 1156 2273 1281 
Q 2116 1406 1581 1522 
L 1381 1569 
Q 847 1681 609 1914 
Q 372 2147 372 2553 
Q 372 3047 722 3315 
Q 1072 3584 1716 3584 
Q 2034 3584 2315 3537 
Q 2597 3491 2834 3397 
z
" transform="scale(0.015625)"/>
       </defs>
       <use xlink:href="#DejaVuSans-51"/>
       <use xlink:href="#DejaVuSans-75" transform="translate(78.710938 0)"/>
       <use xlink:href="#DejaVuSans-69" transform="translate(142.089844 0)"/>
       <use xlink:href="#DejaVuSans-65" transform="translate(169.873047 0)"/>
       <use xlink:href="#DejaVuSans-74" transform="translate(231.396484 0)"/>
       <use xlink:href="#DejaVuSans-65" transform="translate(270.605469 0)"/>
       <use xlink:href="#DejaVuSans-72" transform="translate(332.128906 0)"/>
       <use xlink:href="#DejaVuSans-20" transform="translate(373.242188 0)"/>
       <use xlink:href="#DejaVuSans-62" transform="translate(405.029297 0)"/>
       <use xlink:href="#DejaVuSans-69" transform="translate(468.505859 0)"/>
       <use xlink:href="#DejaVuSans-6e" transform="translate(496.289062 0)"/>
       <use xlink:href="#DejaVuSans-73" transform="translate(559.667969 0)"/>
      </g>
      <!-- (below median -->
      <g transform="translate(88.54921 337.780625) scale(0.09 -0.09)">
       <defs>
        <path id="DejaVuSans-28" d="M 1984 4856 
Q 1566 4138 1362 3434 
Q 1159 2731 1159 2009 
Q 1159 1288 1364 580 
Q 1569 -128 1984 -844 
L 1484 -844 
Q 1016 -109 783 600 
Q 550 1309 550 2009 
Q 550 2706 781 3412 
Q 1013 4119 1484 4856 
L 1984 4856 
z
" transform="scale(0.015625)"/>
        <path id="DejaVuSans-6c" d="M 603 4863 
L 1178 4863 
L 1178 0 
L 603 0 
L 603 4863 
z
" transform="scale(0.015625)"/>
        <path id="DejaVuSans-6f" d="M 1959 3097 
Q 1497 3097 1228 2736 
Q 959 2375 959 1747 
Q 959 1119 1226 758 
Q 1494 397 1959 397 
Q 2419 397 2687 759 
Q 2956 1122 2956 1747 
Q 2956 2369 2687 2733 
Q 2419 3097 1959 3097 
z
M 1959 3584 
Q 2709 3584 3137 3096 
Q 3566 2609 3566 1747 
Q 3566 888 3137 398 
Q 2709 -91 1959 -91 
Q 1206 -91 779 398 
Q 353 888 353 1747 
Q 353 2609 779 3096 
Q 1206 3584 1959 3584 
z
" transform="scale(0.015625)"/>
        <path id="DejaVuSans-77" d="M 269 3500 
L 844 3500 
L 1563 769 
L 2278 3500 
L 2956 3500 
L 3675 769 
L 4391 3500 
L 4966 3500 
L 4050 0 
L 3372 0 
L 2619 2869 
L 1863 0 
L 1184 0 
L 269 3500 
z
" transform="scale(0.015625)"/>
        <path id="DejaVuSans-6d" d="M 3328 2828 
Q 3544 3216 3844 3400 
Q 4144 3584 4550 3584 
Q 5097 3584 5394 3201 
Q 5691 2819 5691 2113 
L 5691 0 
L 5113 0 
L 5113 2094 
Q 5113 2597 4934 2840 
Q 4756 3084 4391 3084 
Q 3944 3084 3684 2787 
Q 3425 2491 3425 1978 
L 3425 0 
L 2847 0 
L 2847 2094 
Q 2847 2600 2669 2842 
Q 2491 3084 2119 3084 
Q 1678 3084 1418 2786 
Q 1159 2488 1159 1978 
L 1159 0 
L 581 0 
L 581 3500 
L 1159 3500 
L 1159 2956 
Q 1356 3278 1631 3431 
Q 1906 3584 2284 3584 
Q 2666 3584 2933 3390 
Q 3200 3197 3328 2828 
z
" transform="scale(0.015625)"/>
        <path id="DejaVuSans-64" d="M 2906 2969 
L 2906 4863 
L 3481 4863 
L 3481 0 
L 2906 0 
L 2906 525 
Q 2725 213 2448 61 
Q 2172 -91 1784 -91 
Q 1150 -91 751 415 
Q 353 922 353 1747 
Q 353 2572 751 3078 
Q 1150 3584 1784 3584 
Q 2172 3584 2448 3432 
Q 2725 3281 2906 2969 
z
M 947 1747 
Q 947 1113 1208 752 
Q 1469 391 1925 391 
Q 2381 391 2643 752 
Q 2906 1113 2906 1747 
Q 2906 2381 2643 2742 
Q 2381 3103 1925 3103 
Q 1469 3103 1208 2742 
Q 947 2381 947 1747 
z
" transform="scale(0.015625)"/>
        <path id="DejaVuSans-61" d="M 2194 1759 
Q 1497 1759 1228 1600 
Q 959 1441 959 1056 
Q 959 750 1161 570 
Q 1363 391 1709 391 
Q 2188 391 2477 730 
Q 2766 1069 2766 1631 
L 2766 1759 
L 2194 1759 
z
M 3341 1997 
L 3341 0 
L 2766 0 
L 2766 531 
Q 2569 213 2275 61 
Q 1981 -91 1556 -91 
Q 1019 -91 701 211 
Q 384 513 384 1019 
Q 384 1609 779 1909 
Q 1175 2209 1959 2209 
L 2766 2209 
L 2766 2266 
Q 2766 2663 2505 2880 
Q 2244 3097 1772 3097 
Q 1472 3097 1187 3025 
Q 903 2953 641 2809 
L 641 3341 
Q 956 3463 1253 3523 
Q 1550 3584 1831 3584 
Q 2591 3584 2966 3190 
Q 3341 2797 3341 1997 
z
" transform="scale(0.015625)"/>
       </defs>
       <use xlink:href="#DejaVuSans-28"/>
       <use xlink:href="#DejaVuSans-62" transform="translate(39.013672 0)"/>
       <use xlink:href="#DejaVuSans-65" transform="translate(102.490234 0)"/>
       <use xlink:href="#DejaVuSans-6c" transform="translate(164.013672 0)"/>
       <use xlink:href="#DejaVuSans-6f" transform="translate(191.796875 0)"/>
       <use xlink:href="#DejaVuSans-77" transform="translate(252.978516 0)"/>
       <use xlink:href="#DejaVuSans-20" transform="translate(334.765625 0)"/>
       <use xlink:href="#DejaVuSans-6d" transform="translate(366.552734 0)"/>
       <use xlink:href="#DejaVuSans-65" transform="translate(463.964844 0)"/>
       <use xlink:href="#DejaVuSans-64" transform="translate(525.488281 0)"/>
       <use xlink:href="#DejaVuSans-69" transform="translate(588.964844 0)"/>
       <use xlink:href="#DejaVuSans-61" transform="translate(616.748047 0)"/>
       <use xlink:href="#DejaVuSans-6e" transform="translate(678.027344 0)"/>
      </g>
      <!-- messages per window) -->
      <g transform="translate(70.180773 347.858656) scale(0.09 -0.09)">
       <defs>
        <path id="DejaVuSans-67" d="M 2906 1791 
Q 2906 2416 2648 2759 
Q 2391 3103 1925 3103 
Q 1463 3103 1205 2759 
Q 947 2416 947 1791 
Q 947 1169 1205 825 
Q 1463 481 1925 481 
Q 2391 481 2648 825 
Q 2906 1169 2906 1791 
z
M 3481 434 
Q 3481 -459 3084 -895 
Q 2688 -1331 1869 -1331 
Q 1566 -1331 1297 -1286 
Q 1028 -1241 775 -1147 
L 775 -588 
Q 1028 -725 1275 -790 
Q 1522 -856 1778 -856 
Q 2344 -856 2625 -561 
Q 2906 -266 2906 331 
L 2906 616 
Q 2728 306 2450 153 
Q 2172 0 1784 0 
Q 1141 0 747 490 
Q 353 981 353 1791 
Q 353 2603 747 3093 
Q 1141 3584 1784 3584 
Q 2172 3584 2450 3431 
Q 2728 3278 2906 2969 
L 2906 3500 
L 3481 3500 
L 3481 434 
z
" transform="scale(0.015625)"/>
        <path id="DejaVuSans-70" d="M 1159 525 
L 1159 -1331 
L 581 -1331 
L 581 3500 
L 1159 3500 
L 1159 2969 
Q 1341 3281 1617 3432 
Q 1894 3584 2278 3584 
Q 2916 3584 3314 3078 
Q 3713 2572 3713 1747 
Q 3713 922 3314 415 
Q 2916 -91 2278 -91 
Q 1894 -91 1617 61 
Q 1341 213 1159 525 
z
M 3116 1747 
Q 3116 2381 2855 2742 
Q 2594 3103 2138 3103 
Q 1681 3103 1420 2742 
Q 1159 2381 1159 1747 
Q 1159 1113 1420 752 
Q 1681 391 2138 391 
Q 2594 391 2855 752 
Q 3116 1113 3116 1747 
z
" transform="scale(0.015625)"/>
        <path id="DejaVuSans-29" d="M 513 4856 
L 1013 4856 
Q 1481 4119 1714 3412 
Q 1947 2706 1947 2009 
Q 1947 1309 1714 600 
Q 1481 -109 1013 -844 
L 513 -844 
Q 928 -128 1133 580 
Q 1338 1288 1338 2009 
Q 1338 2731 1133 3434 
Q 928 4138 513 4856 
z
" transform="scale(0.015625)"/>
       </defs>
       <use xlink:href="#DejaVuSans-6d"/>
       <use xlink:href="#DejaVuSans-65" transform="translate(97.412109 0)"/>
       <use xlink:href="#DejaVuSans-73" transform="translate(158.935547 0)"/>
       <use xlink:href="#DejaVuSans-73" transform="translate(211.035156 0)"/>
       <use xlink:href="#DejaVuSans-61" transform="translate(263.134766 0)"/>
       <use xlink:href="#DejaVuSans-67" transform="translate(324.414062 0)"/>
       <use xlink:href="#DejaVuSans-65" transform="translate(387.890625 0)"/>
       <use xlink:href="#DejaVuSans-73" transform="translate(449.414062 0)"/>
       <use xlink:href="#DejaVuSans-20" transform="translate(501.513672 0)"/>
       <use xlink:href="#DejaVuSans-70" transform="translate(533.300781 0)"/>
       <use xlink:href="#DejaVuSans-65" transform="translate(596.777344 0)"/>
       <use xlink:href="#DejaVuSans-72" transform="translate(658.300781 0)"/>
       <use xlink:href="#DejaVuSans-20" transform="translate(699.414062 0)"/>
       <use xlink:href="#DejaVuSans-77" transform="translate(731.201172 0)"/>
       <use xlink:href="#DejaVuSans-69" transform="translate(812.988281 0)"/>
       <use xlink:href="#DejaVuSans-6e" transform="translate(840.771484 0)"/>
       <use xlink:href="#DejaVuSans-64" transform="translate(904.150391 0)"/>
       <use xlink:href="#DejaVuSans-6f" transform="translate(967.626953 0)"/>
       <use xlink:href="#DejaVuSans-77" transform="translate(1028.808594 0)"/>
       <use xlink:href="#DejaVuSans-29" transform="translate(1110.595703 0)"/>
      </g>
     </g>
    </g>
    <g id="xtick_2">
     <g id="line2d_2">
      <g>
       <use xlink:href="#m8246750633" x="324.810555" y="313.864" style="stroke: #000000; stroke-width: 0.8"/>
      </g>
     </g>
     <g id="text_2">
      <!-- Busier bins -->
      <g transform="translate(299.924852 327.702594) scale(0.09 -0.09)">
       <defs>
        <path id="DejaVuSans-42" d="M 1259 2228 
L 1259 519 
L 2272 519 
Q 2781 519 3026 730 
Q 3272 941 3272 1375 
Q 3272 1813 3026 2020 
Q 2781 2228 2272 2228 
L 1259 2228 
z
M 1259 4147 
L 1259 2741 
L 2194 2741 
Q 2656 2741 2882 2914 
Q 3109 3088 3109 3444 
Q 3109 3797 2882 3972 
Q 2656 4147 2194 4147 
L 1259 4147 
z
M 628 4666 
L 2241 4666 
Q 2963 4666 3353 4366 
Q 3744 4066 3744 3513 
Q 3744 3084 3544 2831 
Q 3344 2578 2956 2516 
Q 3422 2416 3680 2098 
Q 3938 1781 3938 1306 
Q 3938 681 3513 340 
Q 3088 0 2303 0 
L 628 0 
L 628 4666 
z
" transform="scale(0.015625)"/>
       </defs>
       <use xlink:href="#DejaVuSans-42"/>
       <use xlink:href="#DejaVuSans-75" transform="translate(68.603516 0)"/>
       <use xlink:href="#DejaVuSans-73" transform="translate(131.982422 0)"/>
       <use xlink:href="#DejaVuSans-69" transform="translate(184.082031 0)"/>
       <use xlink:href="#DejaVuSans-65" transform="translate(211.865234 0)"/>
       <use xlink:href="#DejaVuSans-72" transform="translate(273.388672 0)"/>
       <use xlink:href="#DejaVuSans-20" transform="translate(314.501953 0)"/>
       <use xlink:href="#DejaVuSans-62" transform="translate(346.289062 0)"/>
       <use xlink:href="#DejaVuSans-69" transform="translate(409.765625 0)"/>
       <use xlink:href="#DejaVuSans-6e" transform="translate(437.548828 0)"/>
       <use xlink:href="#DejaVuSans-73" transform="translate(500.927734 0)"/>
      </g>
      <!-- (at or above median -->
      <g transform="translate(278.970321 337.780625) scale(0.09 -0.09)">
       <defs>
        <path id="DejaVuSans-76" d="M 191 3500 
L 800 3500 
L 1894 563 
L 2988 3500 
L 3597 3500 
L 2284 0 
L 1503 0 
L 191 3500 
z
" transform="scale(0.015625)"/>
       </defs>
       <use xlink:href="#DejaVuSans-28"/>
       <use xlink:href="#DejaVuSans-61" transform="translate(39.013672 0)"/>
       <use xlink:href="#DejaVuSans-74" transform="translate(100.292969 0)"/>
       <use xlink:href="#DejaVuSans-20" transform="translate(139.501953 0)"/>
       <use xlink:href="#DejaVuSans-6f" transform="translate(171.289062 0)"/>
       <use xlink:href="#DejaVuSans-72" transform="translate(232.470703 0)"/>
       <use xlink:href="#DejaVuSans-20" transform="translate(273.583984 0)"/>
       <use xlink:href="#DejaVuSans-61" transform="translate(305.371094 0)"/>
       <use xlink:href="#DejaVuSans-62" transform="translate(366.650391 0)"/>
       <use xlink:href="#DejaVuSans-6f" transform="translate(430.126953 0)"/>
       <use xlink:href="#DejaVuSans-76" transform="translate(491.308594 0)"/>
       <use xlink:href="#DejaVuSans-65" transform="translate(550.488281 0)"/>
       <use xlink:href="#DejaVuSans-20" transform="translate(612.011719 0)"/>
       <use xlink:href="#DejaVuSans-6d" transform="translate(643.798828 0)"/>
       <use xlink:href="#DejaVuSans-65" transform="translate(741.210938 0)"/>
       <use xlink:href="#DejaVuSans-64" transform="translate(802.734375 0)"/>
       <use xlink:href="#DejaVuSans-69" transform="translate(866.210938 0)"/>
       <use xlink:href="#DejaVuSans-61" transform="translate(893.994141 0)"/>
       <use xlink:href="#DejaVuSans-6e" transform="translate(955.273438 0)"/>
      </g>
      <!-- messages per window) -->
      <g transform="translate(273.078133 347.858656) scale(0.09 -0.09)">
       <use xlink:href="#DejaVuSans-6d"/>
       <use xlink:href="#DejaVuSans-65" transform="translate(97.412109 0)"/>
       <use xlink:href="#DejaVuSans-73" transform="translate(158.935547 0)"/>
       <use xlink:href="#DejaVuSans-73" transform="translate(211.035156 0)"/>
       <use xlink:href="#DejaVuSans-61" transform="translate(263.134766 0)"/>
       <use xlink:href="#DejaVuSans-67" transform="translate(324.414062 0)"/>
       <use xlink:href="#DejaVuSans-65" transform="translate(387.890625 0)"/>
       <use xlink:href="#DejaVuSans-73" transform="translate(449.414062 0)"/>
       <use xlink:href="#DejaVuSans-20" transform="translate(501.513672 0)"/>
       <use xlink:href="#DejaVuSans-70" transform="translate(533.300781 0)"/>
       <use xlink:href="#DejaVuSans-65" transform="translate(596.777344 0)"/>
       <use xlink:href="#DejaVuSans-72" transform="translate(658.300781 0)"/>
       <use xlink:href="#DejaVuSans-20" transform="translate(699.414062 0)"/>
       <use xlink:href="#DejaVuSans-77" transform="translate(731.201172 0)"/>
       <use xlink:href="#DejaVuSans-69" transform="translate(812.988281 0)"/>
       <use xlink:href="#DejaVuSans-6e" transform="translate(840.771484 0)"/>
       <use xlink:href="#DejaVuSans-64" transform="translate(904.150391 0)"/>
       <use xlink:href="#DejaVuSans-6f" transform="translate(967.626953 0)"/>
       <use xlink:href="#DejaVuSans-77" transform="translate(1028.808594 0)"/>
       <use xlink:href="#DejaVuSans-29" transform="translate(1110.595703 0)"/>
      </g>
     </g>
    </g>
    <g id="text_3">
     <!-- Activity group (median split on messages per bin) -->
     <g transform="translate(98.515781 361.328812) scale(0.1 -0.1)">
      <defs>
       <path id="DejaVuSans-41" d="M 2188 4044 
L 1331 1722 
L 3047 1722 
L 2188 4044 
z
M 1831 4666 
L 2547 4666 
L 4325 0 
L 3669 0 
L 3244 1197 
L 1141 1197 
L 716 0 
L 50 0 
L 1831 4666 
z
" transform="scale(0.015625)"/>
       <path id="DejaVuSans-63" d="M 3122 3366 
L 3122 2828 
Q 2878 2963 2633 3030 
Q 2388 3097 2138 3097 
Q 1578 3097 1268 2742 
Q 959 2388 959 1747 
Q 959 1106 1268 751 
Q 1578 397 2138 397 
Q 2388 397 2633 464 
Q 2878 531 3122 666 
L 3122 134 
Q 2881 22 2623 -34 
Q 2366 -91 2075 -91 
Q 1284 -91 818 406 
Q 353 903 353 1747 
Q 353 2603 823 3093 
Q 1294 3584 2113 3584 
Q 2378 3584 2631 3529 
Q 2884 3475 3122 3366 
z
" transform="scale(0.015625)"/>
       <path id="DejaVuSans-79" d="M 2059 -325 
Q 1816 -950 1584 -1140 
Q 1353 -1331 966 -1331 
L 506 -1331 
L 506 -850 
L 844 -850 
Q 1081 -850 1212 -737 
Q 1344 -625 1503 -206 
L 1606 56 
L 191 3500 
L 800 3500 
L 1894 763 
L 2988 3500 
L 3597 3500 
L 2059 -325 
z
" transform="scale(0.015625)"/>
      </defs>
      <use xlink:href="#DejaVuSans-41"/>
      <use xlink:href="#DejaVuSans-63" transform="translate(66.658203 0)"/>
      <use xlink:href="#DejaVuSans-74" transform="translate(121.638672 0)"/>
      <use xlink:href="#DejaVuSans-69" transform="translate(160.847656 0)"/>
      <use xlink:href="#DejaVuSans-76" transform="translate(188.630859 0)"/>
      <use xlink:href="#DejaVuSans-69" transform="translate(247.810547 0)"/>
      <use xlink:href="#DejaVuSans-74" transform="translate(275.59375 0)"/>
      <use xlink:href="#DejaVuSans-79" transform="translate(314.802734 0)"/>
      <use xlink:href="#DejaVuSans-20" transform="translate(373.982422 0)"/>
      <use xlink:href="#DejaVuSans-67" transform="translate(405.769531 0)"/>
      <use xlink:href="#DejaVuSans-72" transform="translate(469.246094 0)"/>
      <use xlink:href="#DejaVuSans-6f" transform="translate(508.109375 0)"/>
      <use xlink:href="#DejaVuSans-75" transform="translate(569.291016 0)"/>
      <use xlink:href="#DejaVuSans-70" transform="translate(632.669922 0)"/>
      <use xlink:href="#DejaVuSans-20" transform="translate(696.146484 0)"/>
      <use xlink:href="#DejaVuSans-28" transform="translate(727.933594 0)"/>
      <use xlink:href="#DejaVuSans-6d" transform="translate(766.947266 0)"/>
      <use xlink:href="#DejaVuSans-65" transform="translate(864.359375 0)"/>
      <use xlink:href="#DejaVuSans-64" transform="translate(925.882812 0)"/>
      <use xlink:href="#DejaVuSans-69" transform="translate(989.359375 0)"/>
      <use xlink:href="#DejaVuSans-61" transform="translate(1017.142578 0)"/>
      <use xlink:href="#DejaVuSans-6e" transform="translate(1078.421875 0)"/>
      <use xlink:href="#DejaVuSans-20" transform="translate(1141.800781 0)"/>
      <use xlink:href="#DejaVuSans-73" transform="translate(1173.587891 0)"/>
      <use xlink:href="#DejaVuSans-70" transform="translate(1225.6875 0)"/>
      <use xlink:href="#DejaVuSans-6c" transform="translate(1289.164062 0)"/>
      <use xlink:href="#DejaVuSans-69" transform="translate(1316.947266 0)"/>
      <use xlink:href="#DejaVuSans-74" transform="translate(1344.730469 0)"/>
      <use xlink:href="#DejaVuSans-20" transform="translate(1383.939453 0)"/>
      <use xlink:href="#DejaVuSans-6f" transform="translate(1415.726562 0)"/>
      <use xlink:href="#DejaVuSans-6e" transform="translate(1476.908203 0)"/>
      <use xlink:href="#DejaVuSans-20" transform="translate(1540.287109 0)"/>
      <use xlink:href="#DejaVuSans-6d" transform="translate(1572.074219 0)"/>
      <use xlink:href="#DejaVuSans-65" transform="translate(1669.486328 0)"/>
      <use xlink:href="#DejaVuSans-73" transform="translate(1731.009766 0)"/>
      <use xlink:href="#DejaVuSans-73" transform="translate(1783.109375 0)"/>
      <use xlink:href="#DejaVuSans-61" transform="translate(1835.208984 0)"/>
      <use xlink:href="#DejaVuSans-67" transform="translate(1896.488281 0)"/>
      <use xlink:href="#DejaVuSans-65" transform="translate(1959.964844 0)"/>
      <use xlink:href="#DejaVuSans-73" transform="translate(2021.488281 0)"/>
      <use xlink:href="#DejaVuSans-20" transform="translate(2073.587891 0)"/>
      <use xlink:href="#DejaVuSans-70" transform="translate(2105.375 0)"/>
      <use xlink:href="#DejaVuSans-65" transform="translate(2168.851562 0)"/>
      <use xlink:href="#DejaVuSans-72" transform="translate(2230.375 0)"/>
      <use xlink:href="#DejaVuSans-20" transform="translate(2271.488281 0)"/>
      <use xlink:href="#DejaVuSans-62" transform="translate(2303.275391 0)"/>
      <use xlink:href="#DejaVuSans-69" transform="translate(2366.751953 0)"/>
      <use xlink:href="#DejaVuSans-6e" transform="translate(2394.535156 0)"/>
      <use xlink:href="#DejaVuSans-29" transform="translate(2457.914062 0)"/>
     </g>
    </g>
   </g>
   <g id="matplotlib.axis_2">
    <g id="ytick_1">
     <g id="line2d_3">
      <defs>
       <path id="m6d70255015" d="M 0 0 
L -3.5 0 
" style="stroke: #000000; stroke-width: 0.8"/>
      </defs>
      <g>
       <use xlink:href="#m6d70255015" x="50.391875" y="313.864" style="stroke: #000000; stroke-width: 0.8"/>
      </g>
     </g>
     <g id="text_4">
      <!-- 0 -->
      <g transform="translate(37.029375 317.663219) scale(0.1 -0.1)">
       <defs>
        <path id="DejaVuSans-30" d="M 2034 4250 
Q 1547 4250 1301 3770 
Q 1056 3291 1056 2328 
Q 1056 1369 1301 889 
Q 1547 409 2034 409 
Q 2525 409 2770 889 
Q 3016 1369 3016 2328 
Q 3016 3291 2770 3770 
Q 2525 4250 2034 4250 
z
M 2034 4750 
Q 2819 4750 3233 4129 
Q 3647 3509 3647 2328 
Q 3647 1150 3233 529 
Q 2819 -91 2034 -91 
Q 1250 -91 836 529 
Q 422 1150 422 2328 
Q 422 3509 836 4129 
Q 1250 4750 2034 4750 
z
" transform="scale(0.015625)"/>
       </defs>
       <use xlink:href="#DejaVuSans-30"/>
      </g>
     </g>
    </g>
    <g id="ytick_2">
     <g id="line2d_4">
      <g>
       <use xlink:href="#m6d70255015" x="50.391875" y="276.845916" style="stroke: #000000; stroke-width: 0.8"/>
      </g>
     </g>
     <g id="text_5">
      <!-- 10 -->
      <g transform="translate(30.666875 280.645134) scale(0.1 -0.1)">
       <defs>
        <path id="DejaVuSans-31" d="M 794 531 
L 1825 531 
L 1825 4091 
L 703 3866 
L 703 4441 
L 1819 4666 
L 2450 4666 
L 2450 531 
L 3481 531 
L 3481 0 
L 794 0 
L 794 531 
z
" transform="scale(0.015625)"/>
       </defs>
       <use xlink:href="#DejaVuSans-31"/>
       <use xlink:href="#DejaVuSans-30" transform="translate(63.623047 0)"/>
      </g>
     </g>
    </g>
    <g id="ytick_3">
     <g id="line2d_5">
      <g>
       <use xlink:href="#m6d70255015" x="50.391875" y="239.827831" style="stroke: #000000; stroke-width: 0.8"/>
      </g>
     </g>
     <g id="text_6">
      <!-- 20 -->
      <g transform="translate(30.666875 243.62705) scale(0.1 -0.1)">
       <defs>
        <path id="DejaVuSans-32" d="M 1228 531 
L 3431 531 
L 3431 0 
L 469 0 
L 469 531 
Q 828 903 1448 1529 
Q 2069 2156 2228 2338 
Q 2531 2678 2651 2914 
Q 2772 3150 2772 3378 
Q 2772 3750 2511 3984 
Q 2250 4219 1831 4219 
Q 1534 4219 1204 4116 
Q 875 4013 500 3803 
L 500 4441 
Q 881 4594 1212 4672 
Q 1544 4750 1819 4750 
Q 2544 4750 2975 4387 
Q 3406 4025 3406 3419 
Q 3406 3131 3298 2873 
Q 3191 2616 2906 2266 
Q 2828 2175 2409 1742 
Q 1991 1309 1228 531 
z
" transform="scale(0.015625)"/>
       </defs>
       <use xlink:href="#DejaVuSans-32"/>
       <use xlink:href="#DejaVuSans-30" transform="translate(63.623047 0)"/>
      </g>
     </g>
    </g>
    <g id="ytick_4">
     <g id="line2d_6">
      <g>
       <use xlink:href="#m6d70255015" x="50.391875" y="202.809747" style="stroke: #000000; stroke-width: 0.8"/>
      </g>
     </g>
     <g id="text_7">
      <!-- 30 -->
      <g transform="translate(30.666875 206.608965) scale(0.1 -0.1)">
       <defs>
        <path id="DejaVuSans-33" d="M 2597 2516 
Q 3050 2419 3304 2112 
Q 3559 1806 3559 1356 
Q 3559 666 3084 287 
Q 2609 -91 1734 -91 
Q 1441 -91 1130 -33 
Q 819 25 488 141 
L 488 750 
Q 750 597 1062 519 
Q 1375 441 1716 441 
Q 2309 441 2620 675 
Q 2931 909 2931 1356 
Q 2931 1769 2642 2001 
Q 2353 2234 1838 2234 
L 1294 2234 
L 1294 2753 
L 1863 2753 
Q 2328 2753 2575 2939 
Q 2822 3125 2822 3475 
Q 2822 3834 2567 4026 
Q 2313 4219 1838 4219 
Q 1578 4219 1281 4162 
Q 984 4106 628 3988 
L 628 4550 
Q 988 4650 1302 4700 
Q 1616 4750 1894 4750 
Q 2613 4750 3031 4423 
Q 3450 4097 3450 3541 
Q 3450 3153 3228 2886 
Q 3006 2619 2597 2516 
z
" transform="scale(0.015625)"/>
       </defs>
       <use xlink:href="#DejaVuSans-33"/>
       <use xlink:href="#DejaVuSans-30" transform="translate(63.623047 0)"/>
      </g>
     </g>
    </g>
    <g id="ytick_5">
     <g id="line2d_7">
      <g>
       <use xlink:href="#m6d70255015" x="50.391875" y="165.791662" style="stroke: #000000; stroke-width: 0.8"/>
      </g>
     </g>
     <g id="text_8">
      <!-- 40 -->
      <g transform="translate(30.666875 169.590881) scale(0.1 -0.1)">
       <defs>
        <path id="DejaVuSans-34" d="M 2419 4116 
L 825 1625 
L 2419 1625 
L 2419 4116 
z
M 2253 4666 
L 3047 4666 
L 3047 1625 
L 3713 1625 
L 3713 1100 
L 3047 1100 
L 3047 0 
L 2419 0 
L 2419 1100 
L 313 1100 
L 313 1709 
L 2253 4666 
z
" transform="scale(0.015625)"/>
       </defs>
       <use xlink:href="#DejaVuSans-34"/>
       <use xlink:href="#DejaVuSans-30" transform="translate(63.623047 0)"/>
      </g>
     </g>
    </g>
    <g id="ytick_6">
     <g id="line2d_8">
      <g>
       <use xlink:href="#m6d70255015" x="50.391875" y="128.773578" style="stroke: #000000; stroke-width: 0.8"/>
      </g>
     </g>
     <g id="text_9">
      <!-- 50 -->
      <g transform="translate(30.666875 132.572796) scale(0.1 -0.1)">
       <defs>
        <path id="DejaVuSans-35" d="M 691 4666 
L 3169 4666 
L 3169 4134 
L 1269 4134 
L 1269 2991 
Q 1406 3038 1543 3061 
Q 1681 3084 1819 3084 
Q 2600 3084 3056 2656 
Q 3513 2228 3513 1497 
Q 3513 744 3044 326 
Q 2575 -91 1722 -91 
Q 1428 -91 1123 -41 
Q 819 9 494 109 
L 494 744 
Q 775 591 1075 516 
Q 1375 441 1709 441 
Q 2250 441 2565 725 
Q 2881 1009 2881 1497 
Q 2881 1984 2565 2268 
Q 2250 2553 1709 2553 
Q 1456 2553 1204 2497 
Q 953 2441 691 2322 
L 691 4666 
z
" transform="scale(0.015625)"/>
       </defs>
       <use xlink:href="#DejaVuSans-35"/>
       <use xlink:href="#DejaVuSans-30" transform="translate(63.623047 0)"/>
      </g>
     </g>
    </g>
    <g id="ytick_7">
     <g id="line2d_9">
      <g>
       <use xlink:href="#m6d70255015" x="50.391875" y="91.755493" style="stroke: #000000; stroke-width: 0.8"/>
      </g>
     </g>
     <g id="text_10">
      <!-- 60 -->
      <g transform="translate(30.666875 95.554712) scale(0.1 -0.1)">
       <defs>
        <path id="DejaVuSans-36" d="M 2113 2584 
Q 1688 2584 1439 2293 
Q 1191 2003 1191 1497 
Q 1191 994 1439 701 
Q 1688 409 2113 409 
Q 2538 409 2786 701 
Q 3034 994 3034 1497 
Q 3034 2003 2786 2293 
Q 2538 2584 2113 2584 
z
M 3366 4563 
L 3366 3988 
Q 3128 4100 2886 4159 
Q 2644 4219 2406 4219 
Q 1781 4219 1451 3797 
Q 1122 3375 1075 2522 
Q 1259 2794 1537 2939 
Q 1816 3084 2150 3084 
Q 2853 3084 3261 2657 
Q 3669 2231 3669 1497 
Q 3669 778 3244 343 
Q 2819 -91 2113 -91 
Q 1303 -91 875 529 
Q 447 1150 447 2328 
Q 447 3434 972 4092 
Q 1497 4750 2381 4750 
Q 2619 4750 2861 4703 
Q 3103 4656 3366 4563 
z
" transform="scale(0.015625)"/>
       </defs>
       <use xlink:href="#DejaVuSans-36"/>
       <use xlink:href="#DejaVuSans-30" transform="translate(63.623047 0)"/>
      </g>
     </g>
    </g>
    <g id="text_11">
     <!-- Mean count (unique authors per 5-min bin) -->
     <g transform="translate(24.587188 296.396531) rotate(-90) scale(0.1 -0.1)">
      <defs>
       <path id="DejaVuSans-4d" d="M 628 4666 
L 1569 4666 
L 2759 1491 
L 3956 4666 
L 4897 4666 
L 4897 0 
L 4281 0 
L 4281 4097 
L 3078 897 
L 2444 897 
L 1241 4097 
L 1241 0 
L 628 0 
L 628 4666 
z
" transform="scale(0.015625)"/>
       <path id="DejaVuSans-71" d="M 947 1747 
Q 947 1113 1208 752 
Q 1469 391 1925 391 
Q 2381 391 2643 752 
Q 2906 1113 2906 1747 
Q 2906 2381 2643 2742 
Q 2381 3103 1925 3103 
Q 1469 3103 1208 2742 
Q 947 2381 947 1747 
z
M 2906 525 
Q 2725 213 2448 61 
Q 2172 -91 1784 -91 
Q 1150 -91 751 415 
Q 353 922 353 1747 
Q 353 2572 751 3078 
Q 1150 3584 1784 3584 
Q 2172 3584 2448 3432 
Q 2725 3281 2906 2969 
L 2906 3500 
L 3481 3500 
L 3481 -1331 
L 2906 -1331 
L 2906 525 
z
" transform="scale(0.015625)"/>
       <path id="DejaVuSans-68" d="M 3513 2113 
L 3513 0 
L 2938 0 
L 2938 2094 
Q 2938 2591 2744 2837 
Q 2550 3084 2163 3084 
Q 1697 3084 1428 2787 
Q 1159 2491 1159 1978 
L 1159 0 
L 581 0 
L 581 4863 
L 1159 4863 
L 1159 2956 
Q 1366 3272 1645 3428 
Q 1925 3584 2291 3584 
Q 2894 3584 3203 3211 
Q 3513 2838 3513 2113 
z
" transform="scale(0.015625)"/>
       <path id="DejaVuSans-2d" d="M 313 2009 
L 1997 2009 
L 1997 1497 
L 313 1497 
L 313 2009 
z
" transform="scale(0.015625)"/>
      </defs>
      <use xlink:href="#DejaVuSans-4d"/>
      <use xlink:href="#DejaVuSans-65" transform="translate(86.279297 0)"/>
      <use xlink:href="#DejaVuSans-61" transform="translate(147.802734 0)"/>
      <use xlink:href="#DejaVuSans-6e" transform="translate(209.082031 0)"/>
      <use xlink:href="#DejaVuSans-20" transform="translate(272.460938 0)"/>
      <use xlink:href="#DejaVuSans-63" transform="translate(304.248047 0)"/>
      <use xlink:href="#DejaVuSans-6f" transform="translate(359.228516 0)"/>
      <use xlink:href="#DejaVuSans-75" transform="translate(420.410156 0)"/>
      <use xlink:href="#DejaVuSans-6e" transform="translate(483.789062 0)"/>
      <use xlink:href="#DejaVuSans-74" transform="translate(547.167969 0)"/>
      <use xlink:href="#DejaVuSans-20" transform="translate(586.376953 0)"/>
      <use xlink:href="#DejaVuSans-28" transform="translate(618.164062 0)"/>
      <use xlink:href="#DejaVuSans-75" transform="translate(657.177734 0)"/>
      <use xlink:href="#DejaVuSans-6e" transform="translate(720.556641 0)"/>
      <use xlink:href="#DejaVuSans-69" transform="translate(783.935547 0)"/>
      <use xlink:href="#DejaVuSans-71" transform="translate(811.71875 0)"/>
      <use xlink:href="#DejaVuSans-75" transform="translate(875.195312 0)"/>
      <use xlink:href="#DejaVuSans-65" transform="translate(938.574219 0)"/>
      <use xlink:href="#DejaVuSans-20" transform="translate(1000.097656 0)"/>
      <use xlink:href="#DejaVuSans-61" transform="translate(1031.884766 0)"/>
      <use xlink:href="#DejaVuSans-75" transform="translate(1093.164062 0)"/>
      <use xlink:href="#DejaVuSans-74" transform="translate(1156.542969 0)"/>
      <use xlink:href="#DejaVuSans-68" transform="translate(1195.751953 0)"/>
      <use xlink:href="#DejaVuSans-6f" transform="translate(1259.130859 0)"/>
      <use xlink:href="#DejaVuSans-72" transform="translate(1320.3125 0)"/>
      <use xlink:href="#DejaVuSans-73" transform="translate(1361.425781 0)"/>
      <use xlink:href="#DejaVuSans-20" transform="translate(1413.525391 0)"/>
      <use xlink:href="#DejaVuSans-70" transform="translate(1445.3125 0)"/>
      <use xlink:href="#DejaVuSans-65" transform="translate(1508.789062 0)"/>
      <use xlink:href="#DejaVuSans-72" transform="translate(1570.3125 0)"/>
      <use xlink:href="#DejaVuSans-20" transform="translate(1611.425781 0)"/>
      <use xlink:href="#DejaVuSans-35" transform="translate(1643.212891 0)"/>
      <use xlink:href="#DejaVuSans-2d" transform="translate(1706.835938 0)"/>
      <use xlink:href="#DejaVuSans-6d" transform="translate(1742.919922 0)"/>
      <use xlink:href="#DejaVuSans-69" transform="translate(1840.332031 0)"/>
      <use xlink:href="#DejaVuSans-6e" transform="translate(1868.115234 0)"/>
      <use xlink:href="#DejaVuSans-20" transform="translate(1931.494141 0)"/>
      <use xlink:href="#DejaVuSans-62" transform="translate(1963.28125 0)"/>
      <use xlink:href="#DejaVuSans-69" transform="translate(2026.757812 0)"/>
      <use xlink:href="#DejaVuSans-6e" transform="translate(2054.541016 0)"/>
      <use xlink:href="#DejaVuSans-29" transform="translate(2117.919922 0)"/>
     </g>
    </g>
   </g>
   <g id="patch_5">
    <path d="M 50.391875 313.864 
L 50.391875 63.24 
" style="fill: none; stroke: #000000; stroke-width: 0.8; stroke-linejoin: miter; stroke-linecap: square"/>
   </g>
   <g id="patch_6">
    <path d="M 396.331875 313.864 
L 396.331875 63.24 
" style="fill: none; stroke: #000000; stroke-width: 0.8; stroke-linejoin: miter; stroke-linecap: square"/>
   </g>
   <g id="patch_7">
    <path d="M 50.391875 313.864 
L 396.331875 313.864 
" style="fill: none; stroke: #000000; stroke-width: 0.8; stroke-linejoin: miter; stroke-linecap: square"/>
   </g>
   <g id="patch_8">
    <path d="M 50.391875 63.24 
L 396.331875 63.24 
" style="fill: none; stroke: #000000; stroke-width: 0.8; stroke-linejoin: miter; stroke-linecap: square"/>
   </g>
   <g id="text_12">
    <!-- Mean unique authors per 5-minute bin -->
    <g transform="translate(107.618125 57.24) scale(0.12 -0.12)">
     <use xlink:href="#DejaVuSans-4d"/>
     <use xlink:href="#DejaVuSans-65" transform="translate(86.279297 0)"/>
     <use xlink:href="#DejaVuSans-61" transform="translate(147.802734 0)"/>
     <use xlink:href="#DejaVuSans-6e" transform="translate(209.082031 0)"/>
     <use xlink:href="#DejaVuSans-20" transform="translate(272.460938 0)"/>
     <use xlink:href="#DejaVuSans-75" transform="translate(304.248047 0)"/>
     <use xlink:href="#DejaVuSans-6e" transform="translate(367.626953 0)"/>
     <use xlink:href="#DejaVuSans-69" transform="translate(431.005859 0)"/>
     <use xlink:href="#DejaVuSans-71" transform="translate(458.789062 0)"/>
     <use xlink:href="#DejaVuSans-75" transform="translate(522.265625 0)"/>
     <use xlink:href="#DejaVuSans-65" transform="translate(585.644531 0)"/>
     <use xlink:href="#DejaVuSans-20" transform="translate(647.167969 0)"/>
     <use xlink:href="#DejaVuSans-61" transform="translate(678.955078 0)"/>
     <use xlink:href="#DejaVuSans-75" transform="translate(740.234375 0)"/>
     <use xlink:href="#DejaVuSans-74" transform="translate(803.613281 0)"/>
     <use xlink:href="#DejaVuSans-68" transform="translate(842.822266 0)"/>
     <use xlink:href="#DejaVuSans-6f" transform="translate(906.201172 0)"/>
     <use xlink:href="#DejaVuSans-72" transform="translate(967.382812 0)"/>
     <use xlink:href="#DejaVuSans-73" transform="translate(1008.496094 0)"/>
     <use xlink:href="#DejaVuSans-20" transform="translate(1060.595703 0)"/>
     <use xlink:href="#DejaVuSans-70" transform="translate(1092.382812 0)"/>
     <use xlink:href="#DejaVuSans-65" transform="translate(1155.859375 0)"/>
     <use xlink:href="#DejaVuSans-72" transform="translate(1217.382812 0)"/>
     <use xlink:href="#DejaVuSans-20" transform="translate(1258.496094 0)"/>
     <use xlink:href="#DejaVuSans-35" transform="translate(1290.283203 0)"/>
     <use xlink:href="#DejaVuSans-2d" transform="translate(1353.90625 0)"/>
     <use xlink:href="#DejaVuSans-6d" transform="translate(1389.990234 0)"/>
     <use xlink:href="#DejaVuSans-69" transform="translate(1487.402344 0)"/>
     <use xlink:href="#DejaVuSans-6e" transform="translate(1515.185547 0)"/>
     <use xlink:href="#DejaVuSans-75" transform="translate(1578.564453 0)"/>
     <use xlink:href="#DejaVuSans-74" transform="translate(1641.943359 0)"/>
     <use xlink:href="#DejaVuSans-65" transform="translate(1681.152344 0)"/>
     <use xlink:href="#DejaVuSans-20" transform="translate(1742.675781 0)"/>
     <use xlink:href="#DejaVuSans-62" transform="translate(1774.462891 0)"/>
     <use xlink:href="#DejaVuSans-69" transform="translate(1837.939453 0)"/>
     <use xlink:href="#DejaVuSans-6e" transform="translate(1865.722656 0)"/>
    </g>
   </g>
  </g>
  <g id="axes_2">
   <g id="patch_9">
    <path d="M 440.991875 313.864 
L 786.931875 313.864 
L 786.931875 63.24 
L 440.991875 63.24 
z
" style="fill: #ffffff"/>
   </g>
   <g id="patch_10">
    <path d="M 456.71642 313.864 
L 568.309969 313.864 
L 568.309969 75.174476 
L 456.71642 75.174476 
z
" clip-path="url(#p892abafa66)" style="fill: #ef553b"/>
   </g>
   <g id="patch_11">
    <path d="M 659.613781 313.864 
L 771.20733 313.864 
L 771.20733 85.037416 
L 659.613781 85.037416 
z
" clip-path="url(#p892abafa66)" style="fill: #ef553b"/>
   </g>
   <g id="matplotlib.axis_3">
    <g id="xtick_3">
     <g id="line2d_10">
      <g>
       <use xlink:href="#m8246750633" x="512.513195" y="313.864" style="stroke: #000000; stroke-width: 0.8"/>
      </g>
     </g>
     <g id="text_13">
      <!-- Quieter bins -->
      <g transform="translate(484.983742 327.702594) scale(0.09 -0.09)">
       <use xlink:href="#DejaVuSans-51"/>
       <use xlink:href="#DejaVuSans-75" transform="translate(78.710938 0)"/>
       <use xlink:href="#DejaVuSans-69" transform="translate(142.089844 0)"/>
       <use xlink:href="#DejaVuSans-65" transform="translate(169.873047 0)"/>
       <use xlink:href="#DejaVuSans-74" transform="translate(231.396484 0)"/>
       <use xlink:href="#DejaVuSans-65" transform="translate(270.605469 0)"/>
       <use xlink:href="#DejaVuSans-72" transform="translate(332.128906 0)"/>
       <use xlink:href="#DejaVuSans-20" transform="translate(373.242188 0)"/>
       <use xlink:href="#DejaVuSans-62" transform="translate(405.029297 0)"/>
       <use xlink:href="#DejaVuSans-69" transform="translate(468.505859 0)"/>
       <use xlink:href="#DejaVuSans-6e" transform="translate(496.289062 0)"/>
       <use xlink:href="#DejaVuSans-73" transform="translate(559.667969 0)"/>
      </g>
      <!-- (below median -->
      <g transform="translate(479.14921 337.780625) scale(0.09 -0.09)">
       <use xlink:href="#DejaVuSans-28"/>
       <use xlink:href="#DejaVuSans-62" transform="translate(39.013672 0)"/>
       <use xlink:href="#DejaVuSans-65" transform="translate(102.490234 0)"/>
       <use xlink:href="#DejaVuSans-6c" transform="translate(164.013672 0)"/>
       <use xlink:href="#DejaVuSans-6f" transform="translate(191.796875 0)"/>
       <use xlink:href="#DejaVuSans-77" transform="translate(252.978516 0)"/>
       <use xlink:href="#DejaVuSans-20" transform="translate(334.765625 0)"/>
       <use xlink:href="#DejaVuSans-6d" transform="translate(366.552734 0)"/>
       <use xlink:href="#DejaVuSans-65" transform="translate(463.964844 0)"/>
       <use xlink:href="#DejaVuSans-64" transform="translate(525.488281 0)"/>
       <use xlink:href="#DejaVuSans-69" transform="translate(588.964844 0)"/>
       <use xlink:href="#DejaVuSans-61" transform="translate(616.748047 0)"/>
       <use xlink:href="#DejaVuSans-6e" transform="translate(678.027344 0)"/>
      </g>
      <!-- messages per window) -->
      <g transform="translate(460.780773 347.858656) scale(0.09 -0.09)">
       <use xlink:href="#DejaVuSans-6d"/>
       <use xlink:href="#DejaVuSans-65" transform="translate(97.412109 0)"/>
       <use xlink:href="#DejaVuSans-73" transform="translate(158.935547 0)"/>
       <use xlink:href="#DejaVuSans-73" transform="translate(211.035156 0)"/>
       <use xlink:href="#DejaVuSans-61" transform="translate(263.134766 0)"/>
       <use xlink:href="#DejaVuSans-67" transform="translate(324.414062 0)"/>
       <use xlink:href="#DejaVuSans-65" transform="translate(387.890625 0)"/>
       <use xlink:href="#DejaVuSans-73" transform="translate(449.414062 0)"/>
       <use xlink:href="#DejaVuSans-20" transform="translate(501.513672 0)"/>
       <use xlink:href="#DejaVuSans-70" transform="translate(533.300781 0)"/>
       <use xlink:href="#DejaVuSans-65" transform="translate(596.777344 0)"/>
       <use xlink:href="#DejaVuSans-72" transform="translate(658.300781 0)"/>
       <use xlink:href="#DejaVuSans-20" transform="translate(699.414062 0)"/>
       <use xlink:href="#DejaVuSans-77" transform="translate(731.201172 0)"/>
       <use xlink:href="#DejaVuSans-69" transform="translate(812.988281 0)"/>
       <use xlink:href="#DejaVuSans-6e" transform="translate(840.771484 0)"/>
       <use xlink:href="#DejaVuSans-64" transform="translate(904.150391 0)"/>
       <use xlink:href="#DejaVuSans-6f" transform="translate(967.626953 0)"/>
       <use xlink:href="#DejaVuSans-77" transform="translate(1028.808594 0)"/>
       <use xlink:href="#DejaVuSans-29" transform="translate(1110.595703 0)"/>
      </g>
     </g>
    </g>
    <g id="xtick_4">
     <g id="line2d_11">
      <g>
       <use xlink:href="#m8246750633" x="715.410555" y="313.864" style="stroke: #000000; stroke-width: 0.8"/>
      </g>
     </g>
     <g id="text_14">
      <!-- Busier bins -->
      <g transform="translate(690.524852 327.702594) scale(0.09 -0.09)">
       <use xlink:href="#DejaVuSans-42"/>
       <use xlink:href="#DejaVuSans-75" transform="translate(68.603516 0)"/>
       <use xlink:href="#DejaVuSans-73" transform="translate(131.982422 0)"/>
       <use xlink:href="#DejaVuSans-69" transform="translate(184.082031 0)"/>
       <use xlink:href="#DejaVuSans-65" transform="translate(211.865234 0)"/>
       <use xlink:href="#DejaVuSans-72" transform="translate(273.388672 0)"/>
       <use xlink:href="#DejaVuSans-20" transform="translate(314.501953 0)"/>
       <use xlink:href="#DejaVuSans-62" transform="translate(346.289062 0)"/>
       <use xlink:href="#DejaVuSans-69" transform="translate(409.765625 0)"/>
       <use xlink:href="#DejaVuSans-6e" transform="translate(437.548828 0)"/>
       <use xlink:href="#DejaVuSans-73" transform="translate(500.927734 0)"/>
      </g>
      <!-- (at or above median -->
      <g transform="translate(669.570321 337.780625) scale(0.09 -0.09)">
       <use xlink:href="#DejaVuSans-28"/>
       <use xlink:href="#DejaVuSans-61" transform="translate(39.013672 0)"/>
       <use xlink:href="#DejaVuSans-74" transform="translate(100.292969 0)"/>
       <use xlink:href="#DejaVuSans-20" transform="translate(139.501953 0)"/>
       <use xlink:href="#DejaVuSans-6f" transform="translate(171.289062 0)"/>
       <use xlink:href="#DejaVuSans-72" transform="translate(232.470703 0)"/>
       <use xlink:href="#DejaVuSans-20" transform="translate(273.583984 0)"/>
       <use xlink:href="#DejaVuSans-61" transform="translate(305.371094 0)"/>
       <use xlink:href="#DejaVuSans-62" transform="translate(366.650391 0)"/>
       <use xlink:href="#DejaVuSans-6f" transform="translate(430.126953 0)"/>
       <use xlink:href="#DejaVuSans-76" transform="translate(491.308594 0)"/>
       <use xlink:href="#DejaVuSans-65" transform="translate(550.488281 0)"/>
       <use xlink:href="#DejaVuSans-20" transform="translate(612.011719 0)"/>
       <use xlink:href="#DejaVuSans-6d" transform="translate(643.798828 0)"/>
       <use xlink:href="#DejaVuSans-65" transform="translate(741.210938 0)"/>
       <use xlink:href="#DejaVuSans-64" transform="translate(802.734375 0)"/>
       <use xlink:href="#DejaVuSans-69" transform="translate(866.210938 0)"/>
       <use xlink:href="#DejaVuSans-61" transform="translate(893.994141 0)"/>
       <use xlink:href="#DejaVuSans-6e" transform="translate(955.273438 0)"/>
      </g>
      <!-- messages per window) -->
      <g transform="translate(663.678133 347.858656) scale(0.09 -0.09)">
       <use xlink:href="#DejaVuSans-6d"/>
       <use xlink:href="#DejaVuSans-65" transform="translate(97.412109 0)"/>
       <use xlink:href="#DejaVuSans-73" transform="translate(158.935547 0)"/>
       <use xlink:href="#DejaVuSans-73" transform="translate(211.035156 0)"/>
       <use xlink:href="#DejaVuSans-61" transform="translate(263.134766 0)"/>
       <use xlink:href="#DejaVuSans-67" transform="translate(324.414062 0)"/>
       <use xlink:href="#DejaVuSans-65" transform="translate(387.890625 0)"/>
       <use xlink:href="#DejaVuSans-73" transform="translate(449.414062 0)"/>
       <use xlink:href="#DejaVuSans-20" transform="translate(501.513672 0)"/>
       <use xlink:href="#DejaVuSans-70" transform="translate(533.300781 0)"/>
       <use xlink:href="#DejaVuSans-65" transform="translate(596.777344 0)"/>
       <use xlink:href="#DejaVuSans-72" transform="translate(658.300781 0)"/>
       <use xlink:href="#DejaVuSans-20" transform="translate(699.414062 0)"/>
       <use xlink:href="#DejaVuSans-77" transform="translate(731.201172 0)"/>
       <use xlink:href="#DejaVuSans-69" transform="translate(812.988281 0)"/>
       <use xlink:href="#DejaVuSans-6e" transform="translate(840.771484 0)"/>
       <use xlink:href="#DejaVuSans-64" transform="translate(904.150391 0)"/>
       <use xlink:href="#DejaVuSans-6f" transform="translate(967.626953 0)"/>
       <use xlink:href="#DejaVuSans-77" transform="translate(1028.808594 0)"/>
       <use xlink:href="#DejaVuSans-29" transform="translate(1110.595703 0)"/>
      </g>
     </g>
    </g>
    <g id="text_15">
     <!-- Activity group (median split on messages per bin) -->
     <g transform="translate(489.115781 361.328812) scale(0.1 -0.1)">
      <use xlink:href="#DejaVuSans-41"/>
      <use xlink:href="#DejaVuSans-63" transform="translate(66.658203 0)"/>
      <use xlink:href="#DejaVuSans-74" transform="translate(121.638672 0)"/>
      <use xlink:href="#DejaVuSans-69" transform="translate(160.847656 0)"/>
      <use xlink:href="#DejaVuSans-76" transform="translate(188.630859 0)"/>
      <use xlink:href="#DejaVuSans-69" transform="translate(247.810547 0)"/>
      <use xlink:href="#DejaVuSans-74" transform="translate(275.59375 0)"/>
      <use xlink:href="#DejaVuSans-79" transform="translate(314.802734 0)"/>
      <use xlink:href="#DejaVuSans-20" transform="translate(373.982422 0)"/>
      <use xlink:href="#DejaVuSans-67" transform="translate(405.769531 0)"/>
      <use xlink:href="#DejaVuSans-72" transform="translate(469.246094 0)"/>
      <use xlink:href="#DejaVuSans-6f" transform="translate(508.109375 0)"/>
      <use xlink:href="#DejaVuSans-75" transform="translate(569.291016 0)"/>
      <use xlink:href="#DejaVuSans-70" transform="translate(632.669922 0)"/>
      <use xlink:href="#DejaVuSans-20" transform="translate(696.146484 0)"/>
      <use xlink:href="#DejaVuSans-28" transform="translate(727.933594 0)"/>
      <use xlink:href="#DejaVuSans-6d" transform="translate(766.947266 0)"/>
      <use xlink:href="#DejaVuSans-65" transform="translate(864.359375 0)"/>
      <use xlink:href="#DejaVuSans-64" transform="translate(925.882812 0)"/>
      <use xlink:href="#DejaVuSans-69" transform="translate(989.359375 0)"/>
      <use xlink:href="#DejaVuSans-61" transform="translate(1017.142578 0)"/>
      <use xlink:href="#DejaVuSans-6e" transform="translate(1078.421875 0)"/>
      <use xlink:href="#DejaVuSans-20" transform="translate(1141.800781 0)"/>
      <use xlink:href="#DejaVuSans-73" transform="translate(1173.587891 0)"/>
      <use xlink:href="#DejaVuSans-70" transform="translate(1225.6875 0)"/>
      <use xlink:href="#DejaVuSans-6c" transform="translate(1289.164062 0)"/>
      <use xlink:href="#DejaVuSans-69" transform="translate(1316.947266 0)"/>
      <use xlink:href="#DejaVuSans-74" transform="translate(1344.730469 0)"/>
      <use xlink:href="#DejaVuSans-20" transform="translate(1383.939453 0)"/>
      <use xlink:href="#DejaVuSans-6f" transform="translate(1415.726562 0)"/>
      <use xlink:href="#DejaVuSans-6e" transform="translate(1476.908203 0)"/>
      <use xlink:href="#DejaVuSans-20" transform="translate(1540.287109 0)"/>
      <use xlink:href="#DejaVuSans-6d" transform="translate(1572.074219 0)"/>
      <use xlink:href="#DejaVuSans-65" transform="translate(1669.486328 0)"/>
      <use xlink:href="#DejaVuSans-73" transform="translate(1731.009766 0)"/>
      <use xlink:href="#DejaVuSans-73" transform="translate(1783.109375 0)"/>
      <use xlink:href="#DejaVuSans-61" transform="translate(1835.208984 0)"/>
      <use xlink:href="#DejaVuSans-67" transform="translate(1896.488281 0)"/>
      <use xlink:href="#DejaVuSans-65" transform="translate(1959.964844 0)"/>
      <use xlink:href="#DejaVuSans-73" transform="translate(2021.488281 0)"/>
      <use xlink:href="#DejaVuSans-20" transform="translate(2073.587891 0)"/>
      <use xlink:href="#DejaVuSans-70" transform="translate(2105.375 0)"/>
      <use xlink:href="#DejaVuSans-65" transform="translate(2168.851562 0)"/>
      <use xlink:href="#DejaVuSans-72" transform="translate(2230.375 0)"/>
      <use xlink:href="#DejaVuSans-20" transform="translate(2271.488281 0)"/>
      <use xlink:href="#DejaVuSans-62" transform="translate(2303.275391 0)"/>
      <use xlink:href="#DejaVuSans-69" transform="translate(2366.751953 0)"/>
      <use xlink:href="#DejaVuSans-6e" transform="translate(2394.535156 0)"/>
      <use xlink:href="#DejaVuSans-29" transform="translate(2457.914062 0)"/>
     </g>
    </g>
   </g>
   <g id="matplotlib.axis_4">
    <g id="ytick_8">
     <g id="line2d_12">
      <g>
       <use xlink:href="#m6d70255015" x="440.991875" y="313.864" style="stroke: #000000; stroke-width: 0.8"/>
      </g>
     </g>
     <g id="text_16">
      <!-- 0 -->
      <g transform="translate(427.629375 317.663219) scale(0.1 -0.1)">
       <use xlink:href="#DejaVuSans-30"/>
      </g>
     </g>
    </g>
    <g id="ytick_9">
     <g id="line2d_13">
      <g>
       <use xlink:href="#m6d70255015" x="440.991875" y="278.852206" style="stroke: #000000; stroke-width: 0.8"/>
      </g>
     </g>
     <g id="text_17">
      <!-- 10 -->
      <g transform="translate(421.266875 282.651425) scale(0.1 -0.1)">
       <use xlink:href="#DejaVuSans-31"/>
       <use xlink:href="#DejaVuSans-30" transform="translate(63.623047 0)"/>
      </g>
     </g>
    </g>
    <g id="ytick_10">
     <g id="line2d_14">
      <g>
       <use xlink:href="#m6d70255015" x="440.991875" y="243.840413" style="stroke: #000000; stroke-width: 0.8"/>
      </g>
     </g>
     <g id="text_18">
      <!-- 20 -->
      <g transform="translate(421.266875 247.639632) scale(0.1 -0.1)">
       <use xlink:href="#DejaVuSans-32"/>
       <use xlink:href="#DejaVuSans-30" transform="translate(63.623047 0)"/>
      </g>
     </g>
    </g>
    <g id="ytick_11">
     <g id="line2d_15">
      <g>
       <use xlink:href="#m6d70255015" x="440.991875" y="208.828619" style="stroke: #000000; stroke-width: 0.8"/>
      </g>
     </g>
     <g id="text_19">
      <!-- 30 -->
      <g transform="translate(421.266875 212.627838) scale(0.1 -0.1)">
       <use xlink:href="#DejaVuSans-33"/>
       <use xlink:href="#DejaVuSans-30" transform="translate(63.623047 0)"/>
      </g>
     </g>
    </g>
    <g id="ytick_12">
     <g id="line2d_16">
      <g>
       <use xlink:href="#m6d70255015" x="440.991875" y="173.816826" style="stroke: #000000; stroke-width: 0.8"/>
      </g>
     </g>
     <g id="text_20">
      <!-- 40 -->
      <g transform="translate(421.266875 177.616044) scale(0.1 -0.1)">
       <use xlink:href="#DejaVuSans-34"/>
       <use xlink:href="#DejaVuSans-30" transform="translate(63.623047 0)"/>
      </g>
     </g>
    </g>
    <g id="ytick_13">
     <g id="line2d_17">
      <g>
       <use xlink:href="#m6d70255015" x="440.991875" y="138.805032" style="stroke: #000000; stroke-width: 0.8"/>
      </g>
     </g>
     <g id="text_21">
      <!-- 50 -->
      <g transform="translate(421.266875 142.604251) scale(0.1 -0.1)">
       <use xlink:href="#DejaVuSans-35"/>
       <use xlink:href="#DejaVuSans-30" transform="translate(63.623047 0)"/>
      </g>
     </g>
    </g>
    <g id="ytick_14">
     <g id="line2d_18">
      <g>
       <use xlink:href="#m6d70255015" x="440.991875" y="103.793238" style="stroke: #000000; stroke-width: 0.8"/>
      </g>
     </g>
     <g id="text_22">
      <!-- 60 -->
      <g transform="translate(421.266875 107.592457) scale(0.1 -0.1)">
       <use xlink:href="#DejaVuSans-36"/>
       <use xlink:href="#DejaVuSans-30" transform="translate(63.623047 0)"/>
      </g>
     </g>
    </g>
    <g id="ytick_15">
     <g id="line2d_19">
      <g>
       <use xlink:href="#m6d70255015" x="440.991875" y="68.781445" style="stroke: #000000; stroke-width: 0.8"/>
      </g>
     </g>
     <g id="text_23">
      <!-- 70 -->
      <g transform="translate(421.266875 72.580663) scale(0.1 -0.1)">
       <defs>
        <path id="DejaVuSans-37" d="M 525 4666 
L 3525 4666 
L 3525 4397 
L 1831 0 
L 1172 0 
L 2766 4134 
L 525 4134 
L 525 4666 
z
" transform="scale(0.015625)"/>
       </defs>
       <use xlink:href="#DejaVuSans-37"/>
       <use xlink:href="#DejaVuSans-30" transform="translate(63.623047 0)"/>
      </g>
     </g>
    </g>
    <g id="text_24">
     <!-- Mean percent of lines from heaviest 10% of posters (%) -->
     <g transform="translate(415.187187 328.125437) rotate(-90) scale(0.1 -0.1)">
      <defs>
       <path id="DejaVuSans-66" d="M 2375 4863 
L 2375 4384 
L 1825 4384 
Q 1516 4384 1395 4259 
Q 1275 4134 1275 3809 
L 1275 3500 
L 2222 3500 
L 2222 3053 
L 1275 3053 
L 1275 0 
L 697 0 
L 697 3053 
L 147 3053 
L 147 3500 
L 697 3500 
L 697 3744 
Q 697 4328 969 4595 
Q 1241 4863 1831 4863 
L 2375 4863 
z
" transform="scale(0.015625)"/>
       <path id="DejaVuSans-25" d="M 4653 2053 
Q 4381 2053 4226 1822 
Q 4072 1591 4072 1178 
Q 4072 772 4226 539 
Q 4381 306 4653 306 
Q 4919 306 5073 539 
Q 5228 772 5228 1178 
Q 5228 1588 5073 1820 
Q 4919 2053 4653 2053 
z
M 4653 2450 
Q 5147 2450 5437 2106 
Q 5728 1763 5728 1178 
Q 5728 594 5436 251 
Q 5144 -91 4653 -91 
Q 4153 -91 3862 251 
Q 3572 594 3572 1178 
Q 3572 1766 3864 2108 
Q 4156 2450 4653 2450 
z
M 1428 4353 
Q 1159 4353 1004 4120 
Q 850 3888 850 3481 
Q 850 3069 1003 2837 
Q 1156 2606 1428 2606 
Q 1700 2606 1854 2837 
Q 2009 3069 2009 3481 
Q 2009 3884 1853 4118 
Q 1697 4353 1428 4353 
z
M 4250 4750 
L 4750 4750 
L 1831 -91 
L 1331 -91 
L 4250 4750 
z
M 1428 4750 
Q 1922 4750 2215 4408 
Q 2509 4066 2509 3481 
Q 2509 2891 2217 2550 
Q 1925 2209 1428 2209 
Q 931 2209 642 2551 
Q 353 2894 353 3481 
Q 353 4063 643 4406 
Q 934 4750 1428 4750 
z
" transform="scale(0.015625)"/>
      </defs>
      <use xlink:href="#DejaVuSans-4d"/>
      <use xlink:href="#DejaVuSans-65" transform="translate(86.279297 0)"/>
      <use xlink:href="#DejaVuSans-61" transform="translate(147.802734 0)"/>
      <use xlink:href="#DejaVuSans-6e" transform="translate(209.082031 0)"/>
      <use xlink:href="#DejaVuSans-20" transform="translate(272.460938 0)"/>
      <use xlink:href="#DejaVuSans-70" transform="translate(304.248047 0)"/>
      <use xlink:href="#DejaVuSans-65" transform="translate(367.724609 0)"/>
      <use xlink:href="#DejaVuSans-72" transform="translate(429.248047 0)"/>
      <use xlink:href="#DejaVuSans-63" transform="translate(468.111328 0)"/>
      <use xlink:href="#DejaVuSans-65" transform="translate(523.091797 0)"/>
      <use xlink:href="#DejaVuSans-6e" transform="translate(584.615234 0)"/>
      <use xlink:href="#DejaVuSans-74" transform="translate(647.994141 0)"/>
      <use xlink:href="#DejaVuSans-20" transform="translate(687.203125 0)"/>
      <use xlink:href="#DejaVuSans-6f" transform="translate(718.990234 0)"/>
      <use xlink:href="#DejaVuSans-66" transform="translate(780.171875 0)"/>
      <use xlink:href="#DejaVuSans-20" transform="translate(815.376953 0)"/>
      <use xlink:href="#DejaVuSans-6c" transform="translate(847.164062 0)"/>
      <use xlink:href="#DejaVuSans-69" transform="translate(874.947266 0)"/>
      <use xlink:href="#DejaVuSans-6e" transform="translate(902.730469 0)"/>
      <use xlink:href="#DejaVuSans-65" transform="translate(966.109375 0)"/>
      <use xlink:href="#DejaVuSans-73" transform="translate(1027.632812 0)"/>
      <use xlink:href="#DejaVuSans-20" transform="translate(1079.732422 0)"/>
      <use xlink:href="#DejaVuSans-66" transform="translate(1111.519531 0)"/>
      <use xlink:href="#DejaVuSans-72" transform="translate(1146.724609 0)"/>
      <use xlink:href="#DejaVuSans-6f" transform="translate(1185.587891 0)"/>
      <use xlink:href="#DejaVuSans-6d" transform="translate(1246.769531 0)"/>
      <use xlink:href="#DejaVuSans-20" transform="translate(1344.181641 0)"/>
      <use xlink:href="#DejaVuSans-68" transform="translate(1375.96875 0)"/>
      <use xlink:href="#DejaVuSans-65" transform="translate(1439.347656 0)"/>
      <use xlink:href="#DejaVuSans-61" transform="translate(1500.871094 0)"/>
      <use xlink:href="#DejaVuSans-76" transform="translate(1562.150391 0)"/>
      <use xlink:href="#DejaVuSans-69" transform="translate(1621.330078 0)"/>
      <use xlink:href="#DejaVuSans-65" transform="translate(1649.113281 0)"/>
      <use xlink:href="#DejaVuSans-73" transform="translate(1710.636719 0)"/>
      <use xlink:href="#DejaVuSans-74" transform="translate(1762.736328 0)"/>
      <use xlink:href="#DejaVuSans-20" transform="translate(1801.945312 0)"/>
      <use xlink:href="#DejaVuSans-31" transform="translate(1833.732422 0)"/>
      <use xlink:href="#DejaVuSans-30" transform="translate(1897.355469 0)"/>
      <use xlink:href="#DejaVuSans-25" transform="translate(1960.978516 0)"/>
      <use xlink:href="#DejaVuSans-20" transform="translate(2055.998047 0)"/>
      <use xlink:href="#DejaVuSans-6f" transform="translate(2087.785156 0)"/>
      <use xlink:href="#DejaVuSans-66" transform="translate(2148.966797 0)"/>
      <use xlink:href="#DejaVuSans-20" transform="translate(2184.171875 0)"/>
      <use xlink:href="#DejaVuSans-70" transform="translate(2215.958984 0)"/>
      <use xlink:href="#DejaVuSans-6f" transform="translate(2279.435547 0)"/>
      <use xlink:href="#DejaVuSans-73" transform="translate(2340.617188 0)"/>
      <use xlink:href="#DejaVuSans-74" transform="translate(2392.716797 0)"/>
      <use xlink:href="#DejaVuSans-65" transform="translate(2431.925781 0)"/>
      <use xlink:href="#DejaVuSans-72" transform="translate(2493.449219 0)"/>
      <use xlink:href="#DejaVuSans-73" transform="translate(2534.5625 0)"/>
      <use xlink:href="#DejaVuSans-20" transform="translate(2586.662109 0)"/>
      <use xlink:href="#DejaVuSans-28" transform="translate(2618.449219 0)"/>
      <use xlink:href="#DejaVuSans-25" transform="translate(2657.462891 0)"/>
      <use xlink:href="#DejaVuSans-29" transform="translate(2752.482422 0)"/>
     </g>
    </g>
   </g>
   <g id="patch_12">
    <path d="M 440.991875 313.864 
L 440.991875 63.24 
" style="fill: none; stroke: #000000; stroke-width: 0.8; stroke-linejoin: miter; stroke-linecap: square"/>
   </g>
   <g id="patch_13">
    <path d="M 786.931875 313.864 
L 786.931875 63.24 
" style="fill: none; stroke: #000000; stroke-width: 0.8; stroke-linejoin: miter; stroke-linecap: square"/>
   </g>
   <g id="patch_14">
    <path d="M 440.991875 313.864 
L 786.931875 313.864 
" style="fill: none; stroke: #000000; stroke-width: 0.8; stroke-linejoin: miter; stroke-linecap: square"/>
   </g>
   <g id="patch_15">
    <path d="M 440.991875 63.24 
L 786.931875 63.24 
" style="fill: none; stroke: #000000; stroke-width: 0.8; stroke-linejoin: miter; stroke-linecap: square"/>
   </g>
   <g id="text_25">
    <!-- Mean percent of lines from heaviest 10% of posters -->
    <g transform="translate(458.763438 57.24) scale(0.12 -0.12)">
     <use xlink:href="#DejaVuSans-4d"/>
     <use xlink:href="#DejaVuSans-65" transform="translate(86.279297 0)"/>
     <use xlink:href="#DejaVuSans-61" transform="translate(147.802734 0)"/>
     <use xlink:href="#DejaVuSans-6e" transform="translate(209.082031 0)"/>
     <use xlink:href="#DejaVuSans-20" transform="translate(272.460938 0)"/>
     <use xlink:href="#DejaVuSans-70" transform="translate(304.248047 0)"/>
     <use xlink:href="#DejaVuSans-65" transform="translate(367.724609 0)"/>
     <use xlink:href="#DejaVuSans-72" transform="translate(429.248047 0)"/>
     <use xlink:href="#DejaVuSans-63" transform="translate(468.111328 0)"/>
     <use xlink:href="#DejaVuSans-65" transform="translate(523.091797 0)"/>
     <use xlink:href="#DejaVuSans-6e" transform="translate(584.615234 0)"/>
     <use xlink:href="#DejaVuSans-74" transform="translate(647.994141 0)"/>
     <use xlink:href="#DejaVuSans-20" transform="translate(687.203125 0)"/>
     <use xlink:href="#DejaVuSans-6f" transform="translate(718.990234 0)"/>
     <use xlink:href="#DejaVuSans-66" transform="translate(780.171875 0)"/>
     <use xlink:href="#DejaVuSans-20" transform="translate(815.376953 0)"/>
     <use xlink:href="#DejaVuSans-6c" transform="translate(847.164062 0)"/>
     <use xlink:href="#DejaVuSans-69" transform="translate(874.947266 0)"/>
     <use xlink:href="#DejaVuSans-6e" transform="translate(902.730469 0)"/>
     <use xlink:href="#DejaVuSans-65" transform="translate(966.109375 0)"/>
     <use xlink:href="#DejaVuSans-73" transform="translate(1027.632812 0)"/>
     <use xlink:href="#DejaVuSans-20" transform="translate(1079.732422 0)"/>
     <use xlink:href="#DejaVuSans-66" transform="translate(1111.519531 0)"/>
     <use xlink:href="#DejaVuSans-72" transform="translate(1146.724609 0)"/>
     <use xlink:href="#DejaVuSans-6f" transform="translate(1185.587891 0)"/>
     <use xlink:href="#DejaVuSans-6d" transform="translate(1246.769531 0)"/>
     <use xlink:href="#DejaVuSans-20" transform="translate(1344.181641 0)"/>
     <use xlink:href="#DejaVuSans-68" transform="translate(1375.96875 0)"/>
     <use xlink:href="#DejaVuSans-65" transform="translate(1439.347656 0)"/>
     <use xlink:href="#DejaVuSans-61" transform="translate(1500.871094 0)"/>
     <use xlink:href="#DejaVuSans-76" transform="translate(1562.150391 0)"/>
     <use xlink:href="#DejaVuSans-69" transform="translate(1621.330078 0)"/>
     <use xlink:href="#DejaVuSans-65" transform="translate(1649.113281 0)"/>
     <use xlink:href="#DejaVuSans-73" transform="translate(1710.636719 0)"/>
     <use xlink:href="#DejaVuSans-74" transform="translate(1762.736328 0)"/>
     <use xlink:href="#DejaVuSans-20" transform="translate(1801.945312 0)"/>
     <use xlink:href="#DejaVuSans-31" transform="translate(1833.732422 0)"/>
     <use xlink:href="#DejaVuSans-30" transform="translate(1897.355469 0)"/>
     <use xlink:href="#DejaVuSans-25" transform="translate(1960.978516 0)"/>
     <use xlink:href="#DejaVuSans-20" transform="translate(2055.998047 0)"/>
     <use xlink:href="#DejaVuSans-6f" transform="translate(2087.785156 0)"/>
     <use xlink:href="#DejaVuSans-66" transform="translate(2148.966797 0)"/>
     <use xlink:href="#DejaVuSans-20" transform="translate(2184.171875 0)"/>
     <use xlink:href="#DejaVuSans-70" transform="translate(2215.958984 0)"/>
     <use xlink:href="#DejaVuSans-6f" transform="translate(2279.435547 0)"/>
     <use xlink:href="#DejaVuSans-73" transform="translate(2340.617188 0)"/>
     <use xlink:href="#DejaVuSans-74" transform="translate(2392.716797 0)"/>
     <use xlink:href="#DejaVuSans-65" transform="translate(2431.925781 0)"/>
     <use xlink:href="#DejaVuSans-72" transform="translate(2493.449219 0)"/>
     <use xlink:href="#DejaVuSans-73" transform="translate(2534.5625 0)"/>
    </g>
   </g>
  </g>
  <g id="text_26">
   <!-- Question 3: Participation breadth vs heavy-poster dominance in quieter versus busier 5-minute bins (median split, primary stream) -->
   <g transform="translate(7.2 16.318125) scale(0.12 -0.12)">
    <defs>
     <path id="DejaVuSans-3a" d="M 750 794 
L 1409 794 
L 1409 0 
L 750 0 
L 750 794 
z
M 750 3309 
L 1409 3309 
L 1409 2516 
L 750 2516 
L 750 3309 
z
" transform="scale(0.015625)"/>
     <path id="DejaVuSans-50" d="M 1259 4147 
L 1259 2394 
L 2053 2394 
Q 2494 2394 2734 2622 
Q 2975 2850 2975 3272 
Q 2975 3691 2734 3919 
Q 2494 4147 2053 4147 
L 1259 4147 
z
M 628 4666 
L 2053 4666 
Q 2838 4666 3239 4311 
Q 3641 3956 3641 3272 
Q 3641 2581 3239 2228 
Q 2838 1875 2053 1875 
L 1259 1875 
L 1259 0 
L 628 0 
L 628 4666 
z
" transform="scale(0.015625)"/>
     <path id="DejaVuSans-2c" d="M 750 794 
L 1409 794 
L 1409 256 
L 897 -744 
L 494 -744 
L 750 256 
L 750 794 
z
" transform="scale(0.015625)"/>
    </defs>
    <use xlink:href="#DejaVuSans-51"/>
    <use xlink:href="#DejaVuSans-75" transform="translate(78.710938 0)"/>
    <use xlink:href="#DejaVuSans-65" transform="translate(142.089844 0)"/>
    <use xlink:href="#DejaVuSans-73" transform="translate(203.613281 0)"/>
    <use xlink:href="#DejaVuSans-74" transform="translate(255.712891 0)"/>
    <use xlink:href="#DejaVuSans-69" transform="translate(294.921875 0)"/>
    <use xlink:href="#DejaVuSans-6f" transform="translate(322.705078 0)"/>
    <use xlink:href="#DejaVuSans-6e" transform="translate(383.886719 0)"/>
    <use xlink:href="#DejaVuSans-20" transform="translate(447.265625 0)"/>
    <use xlink:href="#DejaVuSans-33" transform="translate(479.052734 0)"/>
    <use xlink:href="#DejaVuSans-3a" transform="translate(542.675781 0)"/>
    <use xlink:href="#DejaVuSans-20" transform="translate(576.367188 0)"/>
    <use xlink:href="#DejaVuSans-50" transform="translate(608.154297 0)"/>
    <use xlink:href="#DejaVuSans-61" transform="translate(663.957031 0)"/>
    <use xlink:href="#DejaVuSans-72" transform="translate(725.236328 0)"/>
    <use xlink:href="#DejaVuSans-74" transform="translate(766.349609 0)"/>
    <use xlink:href="#DejaVuSans-69" transform="translate(805.558594 0)"/>
    <use xlink:href="#DejaVuSans-63" transform="translate(833.341797 0)"/>
    <use xlink:href="#DejaVuSans-69" transform="translate(888.322266 0)"/>
    <use xlink:href="#DejaVuSans-70" transform="translate(916.105469 0)"/>
    <use xlink:href="#DejaVuSans-61" transform="translate(979.582031 0)"/>
    <use xlink:href="#DejaVuSans-74" transform="translate(1040.861328 0)"/>
    <use xlink:href="#DejaVuSans-69" transform="translate(1080.070312 0)"/>
    <use xlink:href="#DejaVuSans-6f" transform="translate(1107.853516 0)"/>
    <use xlink:href="#DejaVuSans-6e" transform="translate(1169.035156 0)"/>
    <use xlink:href="#DejaVuSans-20" transform="translate(1232.414062 0)"/>
    <use xlink:href="#DejaVuSans-62" transform="translate(1264.201172 0)"/>
    <use xlink:href="#DejaVuSans-72" transform="translate(1327.677734 0)"/>
    <use xlink:href="#DejaVuSans-65" transform="translate(1366.541016 0)"/>
    <use xlink:href="#DejaVuSans-61" transform="translate(1428.064453 0)"/>
    <use xlink:href="#DejaVuSans-64" transform="translate(1489.34375 0)"/>
    <use xlink:href="#DejaVuSans-74" transform="translate(1552.820312 0)"/>
    <use xlink:href="#DejaVuSans-68" transform="translate(1592.029297 0)"/>
    <use xlink:href="#DejaVuSans-20" transform="translate(1655.408203 0)"/>
    <use xlink:href="#DejaVuSans-76" transform="translate(1687.195312 0)"/>
    <use xlink:href="#DejaVuSans-73" transform="translate(1746.375 0)"/>
    <use xlink:href="#DejaVuSans-20" transform="translate(1798.474609 0)"/>
    <use xlink:href="#DejaVuSans-68" transform="translate(1830.261719 0)"/>
    <use xlink:href="#DejaVuSans-65" transform="translate(1893.640625 0)"/>
    <use xlink:href="#DejaVuSans-61" transform="translate(1955.164062 0)"/>
    <use xlink:href="#DejaVuSans-76" transform="translate(2016.443359 0)"/>
    <use xlink:href="#DejaVuSans-79" transform="translate(2075.623047 0)"/>
    <use xlink:href="#DejaVuSans-2d" transform="translate(2133.052734 0)"/>
    <use xlink:href="#DejaVuSans-70" transform="translate(2169.136719 0)"/>
    <use xlink:href="#DejaVuSans-6f" transform="translate(2232.613281 0)"/>
    <use xlink:href="#DejaVuSans-73" transform="translate(2293.794922 0)"/>
    <use xlink:href="#DejaVuSans-74" transform="translate(2345.894531 0)"/>
    <use xlink:href="#DejaVuSans-65" transform="translate(2385.103516 0)"/>
    <use xlink:href="#DejaVuSans-72" transform="translate(2446.626953 0)"/>
    <use xlink:href="#DejaVuSans-20" transform="translate(2487.740234 0)"/>
    <use xlink:href="#DejaVuSans-64" transform="translate(2519.527344 0)"/>
    <use xlink:href="#DejaVuSans-6f" transform="translate(2583.003906 0)"/>
    <use xlink:href="#DejaVuSans-6d" transform="translate(2644.185547 0)"/>
    <use xlink:href="#DejaVuSans-69" transform="translate(2741.597656 0)"/>
    <use xlink:href="#DejaVuSans-6e" transform="translate(2769.380859 0)"/>
    <use xlink:href="#DejaVuSans-61" transform="translate(2832.759766 0)"/>
    <use xlink:href="#DejaVuSans-6e" transform="translate(2894.039062 0)"/>
    <use xlink:href="#DejaVuSans-63" transform="translate(2957.417969 0)"/>
    <use xlink:href="#DejaVuSans-65" transform="translate(3012.398438 0)"/>
    <use xlink:href="#DejaVuSans-20" transform="translate(3073.921875 0)"/>
    <use xlink:href="#DejaVuSans-69" transform="translate(3105.708984 0)"/>
    <use xlink:href="#DejaVuSans-6e" transform="translate(3133.492188 0)"/>
    <use xlink:href="#DejaVuSans-20" transform="translate(3196.871094 0)"/>
    <use xlink:href="#DejaVuSans-71" transform="translate(3228.658203 0)"/>
    <use xlink:href="#DejaVuSans-75" transform="translate(3292.134766 0)"/>
    <use xlink:href="#DejaVuSans-69" transform="translate(3355.513672 0)"/>
    <use xlink:href="#DejaVuSans-65" transform="translate(3383.296875 0)"/>
    <use xlink:href="#DejaVuSans-74" transform="translate(3444.820312 0)"/>
    <use xlink:href="#DejaVuSans-65" transform="translate(3484.029297 0)"/>
    <use xlink:href="#DejaVuSans-72" transform="translate(3545.552734 0)"/>
    <use xlink:href="#DejaVuSans-20" transform="translate(3586.666016 0)"/>
    <use xlink:href="#DejaVuSans-76" transform="translate(3618.453125 0)"/>
    <use xlink:href="#DejaVuSans-65" transform="translate(3677.632812 0)"/>
    <use xlink:href="#DejaVuSans-72" transform="translate(3739.15625 0)"/>
    <use xlink:href="#DejaVuSans-73" transform="translate(3780.269531 0)"/>
    <use xlink:href="#DejaVuSans-75" transform="translate(3832.369141 0)"/>
    <use xlink:href="#DejaVuSans-73" transform="translate(3895.748047 0)"/>
    <use xlink:href="#DejaVuSans-20" transform="translate(3947.847656 0)"/>
    <use xlink:href="#DejaVuSans-62" transform="translate(3979.634766 0)"/>
    <use xlink:href="#DejaVuSans-75" transform="translate(4043.111328 0)"/>
    <use xlink:href="#DejaVuSans-73" transform="translate(4106.490234 0)"/>
    <use xlink:href="#DejaVuSans-69" transform="translate(4158.589844 0)"/>
    <use xlink:href="#DejaVuSans-65" transform="translate(4186.373047 0)"/>
    <use xlink:href="#DejaVuSans-72" transform="translate(4247.896484 0)"/>
    <use xlink:href="#DejaVuSans-20" transform="translate(4289.009766 0)"/>
    <use xlink:href="#DejaVuSans-35" transform="translate(4320.796875 0)"/>
    <use xlink:href="#DejaVuSans-2d" transform="translate(4384.419922 0)"/>
    <use xlink:href="#DejaVuSans-6d" transform="translate(4420.503906 0)"/>
    <use xlink:href="#DejaVuSans-69" transform="translate(4517.916016 0)"/>
    <use xlink:href="#DejaVuSans-6e" transform="translate(4545.699219 0)"/>
    <use xlink:href="#DejaVuSans-75" transform="translate(4609.078125 0)"/>
    <use xlink:href="#DejaVuSans-74" transform="translate(4672.457031 0)"/>
    <use xlink:href="#DejaVuSans-65" transform="translate(4711.666016 0)"/>
    <use xlink:href="#DejaVuSans-20" transform="translate(4773.189453 0)"/>
    <use xlink:href="#DejaVuSans-62" transform="translate(4804.976562 0)"/>
    <use xlink:href="#DejaVuSans-69" transform="translate(4868.453125 0)"/>
    <use xlink:href="#DejaVuSans-6e" transform="translate(4896.236328 0)"/>
    <use xlink:href="#DejaVuSans-73" transform="translate(4959.615234 0)"/>
    <use xlink:href="#DejaVuSans-20" transform="translate(5011.714844 0)"/>
    <use xlink:href="#DejaVuSans-28" transform="translate(5043.501953 0)"/>
    <use xlink:href="#DejaVuSans-6d" transform="translate(5082.515625 0)"/>
    <use xlink:href="#DejaVuSans-65" transform="translate(5179.927734 0)"/>
    <use xlink:href="#DejaVuSans-64" transform="translate(5241.451172 0)"/>
    <use xlink:href="#DejaVuSans-69" transform="translate(5304.927734 0)"/>
    <use xlink:href="#DejaVuSans-61" transform="translate(5332.710938 0)"/>
    <use xlink:href="#DejaVuSans-6e" transform="translate(5393.990234 0)"/>
    <use xlink:href="#DejaVuSans-20" transform="translate(5457.369141 0)"/>
    <use xlink:href="#DejaVuSans-73" transform="translate(5489.15625 0)"/>
    <use xlink:href="#DejaVuSans-70" transform="translate(5541.255859 0)"/>
    <use xlink:href="#DejaVuSans-6c" transform="translate(5604.732422 0)"/>
    <use xlink:href="#DejaVuSans-69" transform="translate(5632.515625 0)"/>
    <use xlink:href="#DejaVuSans-74" transform="translate(5660.298828 0)"/>
    <use xlink:href="#DejaVuSans-2c" transform="translate(5699.507812 0)"/>
    <use xlink:href="#DejaVuSans-20" transform="translate(5731.294922 0)"/>
    <use xlink:href="#DejaVuSans-70" transform="translate(5763.082031 0)"/>
    <use xlink:href="#DejaVuSans-72" transform="translate(5826.558594 0)"/>
    <use xlink:href="#DejaVuSans-69" transform="translate(5867.671875 0)"/>
    <use xlink:href="#DejaVuSans-6d" transform="translate(5895.455078 0)"/>
    <use xlink:href="#DejaVuSans-61" transform="translate(5992.867188 0)"/>
    <use xlink:href="#DejaVuSans-72" transform="translate(6054.146484 0)"/>
    <use xlink:href="#DejaVuSans-79" transform="translate(6095.259766 0)"/>
    <use xlink:href="#DejaVuSans-20" transform="translate(6154.439453 0)"/>
    <use xlink:href="#DejaVuSans-73" transform="translate(6186.226562 0)"/>
    <use xlink:href="#DejaVuSans-74" transform="translate(6238.326172 0)"/>
    <use xlink:href="#DejaVuSans-72" transform="translate(6277.535156 0)"/>
    <use xlink:href="#DejaVuSans-65" transform="translate(6316.398438 0)"/>
    <use xlink:href="#DejaVuSans-61" transform="translate(6377.921875 0)"/>
    <use xlink:href="#DejaVuSans-6d" transform="translate(6439.201172 0)"/>
    <use xlink:href="#DejaVuSans-29" transform="translate(6536.613281 0)"/>
   </g>
  </g>
  <g id="text_27">
   <!-- Quieter or busier = bins below or above the median message count per 5-minute window (not first vs second half of runtime). -->
   <g transform="translate(13.651875 381.6) scale(0.09 -0.09)">
    <defs>
     <path id="DejaVuSans-3d" d="M 678 2906 
L 4684 2906 
L 4684 2381 
L 678 2381 
L 678 2906 
z
M 678 1631 
L 4684 1631 
L 4684 1100 
L 678 1100 
L 678 1631 
z
" transform="scale(0.015625)"/>
     <path id="DejaVuSans-2e" d="M 684 794 
L 1344 794 
L 1344 0 
L 684 0 
L 684 794 
z
" transform="scale(0.015625)"/>
    </defs>
    <use xlink:href="#DejaVuSans-51"/>
    <use xlink:href="#DejaVuSans-75" transform="translate(78.710938 0)"/>
    <use xlink:href="#DejaVuSans-69" transform="translate(142.089844 0)"/>
    <use xlink:href="#DejaVuSans-65" transform="translate(169.873047 0)"/>
    <use xlink:href="#DejaVuSans-74" transform="translate(231.396484 0)"/>
    <use xlink:href="#DejaVuSans-65" transform="translate(270.605469 0)"/>
    <use xlink:href="#DejaVuSans-72" transform="translate(332.128906 0)"/>
    <use xlink:href="#DejaVuSans-20" transform="translate(373.242188 0)"/>
    <use xlink:href="#DejaVuSans-6f" transform="translate(405.029297 0)"/>
    <use xlink:href="#DejaVuSans-72" transform="translate(466.210938 0)"/>
    <use xlink:href="#DejaVuSans-20" transform="translate(507.324219 0)"/>
    <use xlink:href="#DejaVuSans-62" transform="translate(539.111328 0)"/>
    <use xlink:href="#DejaVuSans-75" transform="translate(602.587891 0)"/>
    <use xlink:href="#DejaVuSans-73" transform="translate(665.966797 0)"/>
    <use xlink:href="#DejaVuSans-69" transform="translate(718.066406 0)"/>
    <use xlink:href="#DejaVuSans-65" transform="translate(745.849609 0)"/>
    <use xlink:href="#DejaVuSans-72" transform="translate(807.373047 0)"/>
    <use xlink:href="#DejaVuSans-20" transform="translate(848.486328 0)"/>
    <use xlink:href="#DejaVuSans-3d" transform="translate(880.273438 0)"/>
    <use xlink:href="#DejaVuSans-20" transform="translate(964.0625 0)"/>
    <use xlink:href="#DejaVuSans-62" transform="translate(995.849609 0)"/>
    <use xlink:href="#DejaVuSans-69" transform="translate(1059.326172 0)"/>
    <use xlink:href="#DejaVuSans-6e" transform="translate(1087.109375 0)"/>
    <use xlink:href="#DejaVuSans-73" transform="translate(1150.488281 0)"/>
    <use xlink:href="#DejaVuSans-20" transform="translate(1202.587891 0)"/>
    <use xlink:href="#DejaVuSans-62" transform="translate(1234.375 0)"/>
    <use xlink:href="#DejaVuSans-65" transform="translate(1297.851562 0)"/>
    <use xlink:href="#DejaVuSans-6c" transform="translate(1359.375 0)"/>
    <use xlink:href="#DejaVuSans-6f" transform="translate(1387.158203 0)"/>
    <use xlink:href="#DejaVuSans-77" transform="translate(1448.339844 0)"/>
    <use xlink:href="#DejaVuSans-20" transform="translate(1530.126953 0)"/>
    <use xlink:href="#DejaVuSans-6f" transform="translate(1561.914062 0)"/>
    <use xlink:href="#DejaVuSans-72" transform="translate(1623.095703 0)"/>
    <use xlink:href="#DejaVuSans-20" transform="translate(1664.208984 0)"/>
    <use xlink:href="#DejaVuSans-61" transform="translate(1695.996094 0)"/>
    <use xlink:href="#DejaVuSans-62" transform="translate(1757.275391 0)"/>
    <use xlink:href="#DejaVuSans-6f" transform="translate(1820.751953 0)"/>
    <use xlink:href="#DejaVuSans-76" transform="translate(1881.933594 0)"/>
    <use xlink:href="#DejaVuSans-65" transform="translate(1941.113281 0)"/>
    <use xlink:href="#DejaVuSans-20" transform="translate(2002.636719 0)"/>
    <use xlink:href="#DejaVuSans-74" transform="translate(2034.423828 0)"/>
    <use xlink:href="#DejaVuSans-68" transform="translate(2073.632812 0)"/>
    <use xlink:href="#DejaVuSans-65" transform="translate(2137.011719 0)"/>
    <use xlink:href="#DejaVuSans-20" transform="translate(2198.535156 0)"/>
    <use xlink:href="#DejaVuSans-6d" transform="translate(2230.322266 0)"/>
    <use xlink:href="#DejaVuSans-65" transform="translate(2327.734375 0)"/>
    <use xlink:href="#DejaVuSans-64" transform="translate(2389.257812 0)"/>
    <use xlink:href="#DejaVuSans-69" transform="translate(2452.734375 0)"/>
    <use xlink:href="#DejaVuSans-61" transform="translate(2480.517578 0)"/>
    <use xlink:href="#DejaVuSans-6e" transform="translate(2541.796875 0)"/>
    <use xlink:href="#DejaVuSans-20" transform="translate(2605.175781 0)"/>
    <use xlink:href="#DejaVuSans-6d" transform="translate(2636.962891 0)"/>
    <use xlink:href="#DejaVuSans-65" transform="translate(2734.375 0)"/>
    <use xlink:href="#DejaVuSans-73" transform="translate(2795.898438 0)"/>
    <use xlink:href="#DejaVuSans-73" transform="translate(2847.998047 0)"/>
    <use xlink:href="#DejaVuSans-61" transform="translate(2900.097656 0)"/>
    <use xlink:href="#DejaVuSans-67" transform="translate(2961.376953 0)"/>
    <use xlink:href="#DejaVuSans-65" transform="translate(3024.853516 0)"/>
    <use xlink:href="#DejaVuSans-20" transform="translate(3086.376953 0)"/>
    <use xlink:href="#DejaVuSans-63" transform="translate(3118.164062 0)"/>
    <use xlink:href="#DejaVuSans-6f" transform="translate(3173.144531 0)"/>
    <use xlink:href="#DejaVuSans-75" transform="translate(3234.326172 0)"/>
    <use xlink:href="#DejaVuSans-6e" transform="translate(3297.705078 0)"/>
    <use xlink:href="#DejaVuSans-74" transform="translate(3361.083984 0)"/>
    <use xlink:href="#DejaVuSans-20" transform="translate(3400.292969 0)"/>
    <use xlink:href="#DejaVuSans-70" transform="translate(3432.080078 0)"/>
    <use xlink:href="#DejaVuSans-65" transform="translate(3495.556641 0)"/>
    <use xlink:href="#DejaVuSans-72" transform="translate(3557.080078 0)"/>
    <use xlink:href="#DejaVuSans-20" transform="translate(3598.193359 0)"/>
    <use xlink:href="#DejaVuSans-35" transform="translate(3629.980469 0)"/>
    <use xlink:href="#DejaVuSans-2d" transform="translate(3693.603516 0)"/>
    <use xlink:href="#DejaVuSans-6d" transform="translate(3729.6875 0)"/>
    <use xlink:href="#DejaVuSans-69" transform="translate(3827.099609 0)"/>
    <use xlink:href="#DejaVuSans-6e" transform="translate(3854.882812 0)"/>
    <use xlink:href="#DejaVuSans-75" transform="translate(3918.261719 0)"/>
    <use xlink:href="#DejaVuSans-74" transform="translate(3981.640625 0)"/>
    <use xlink:href="#DejaVuSans-65" transform="translate(4020.849609 0)"/>
    <use xlink:href="#DejaVuSans-20" transform="translate(4082.373047 0)"/>
    <use xlink:href="#DejaVuSans-77" transform="translate(4114.160156 0)"/>
    <use xlink:href="#DejaVuSans-69" transform="translate(4195.947266 0)"/>
    <use xlink:href="#DejaVuSans-6e" transform="translate(4223.730469 0)"/>
    <use xlink:href="#DejaVuSans-64" transform="translate(4287.109375 0)"/>
    <use xlink:href="#DejaVuSans-6f" transform="translate(4350.585938 0)"/>
    <use xlink:href="#DejaVuSans-77" transform="translate(4411.767578 0)"/>
    <use xlink:href="#DejaVuSans-20" transform="translate(4493.554688 0)"/>
    <use xlink:href="#DejaVuSans-28" transform="translate(4525.341797 0)"/>
    <use xlink:href="#DejaVuSans-6e" transform="translate(4564.355469 0)"/>
    <use xlink:href="#DejaVuSans-6f" transform="translate(4627.734375 0)"/>
    <use xlink:href="#DejaVuSans-74" transform="translate(4688.916016 0)"/>
    <use xlink:href="#DejaVuSans-20" transform="translate(4728.125 0)"/>
    <use xlink:href="#DejaVuSans-66" transform="translate(4759.912109 0)"/>
    <use xlink:href="#DejaVuSans-69" transform="translate(4795.117188 0)"/>
    <use xlink:href="#DejaVuSans-72" transform="translate(4822.900391 0)"/>
    <use xlink:href="#DejaVuSans-73" transform="translate(4864.013672 0)"/>
    <use xlink:href="#DejaVuSans-74" transform="translate(4916.113281 0)"/>
    <use xlink:href="#DejaVuSans-20" transform="translate(4955.322266 0)"/>
    <use xlink:href="#DejaVuSans-76" transform="translate(4987.109375 0)"/>
    <use xlink:href="#DejaVuSans-73" transform="translate(5046.289062 0)"/>
    <use xlink:href="#DejaVuSans-20" transform="translate(5098.388672 0)"/>
    <use xlink:href="#DejaVuSans-73" transform="translate(5130.175781 0)"/>
    <use xlink:href="#DejaVuSans-65" transform="translate(5182.275391 0)"/>
    <use xlink:href="#DejaVuSans-63" transform="translate(5243.798828 0)"/>
    <use xlink:href="#DejaVuSans-6f" transform="translate(5298.779297 0)"/>
    <use xlink:href="#DejaVuSans-6e" transform="translate(5359.960938 0)"/>
    <use xlink:href="#DejaVuSans-64" transform="translate(5423.339844 0)"/>
    <use xlink:href="#DejaVuSans-20" transform="translate(5486.816406 0)"/>
    <use xlink:href="#DejaVuSans-68" transform="translate(5518.603516 0)"/>
    <use xlink:href="#DejaVuSans-61" transform="translate(5581.982422 0)"/>
    <use xlink:href="#DejaVuSans-6c" transform="translate(5643.261719 0)"/>
    <use xlink:href="#DejaVuSans-66" transform="translate(5671.044922 0)"/>
    <use xlink:href="#DejaVuSans-20" transform="translate(5706.25 0)"/>
    <use xlink:href="#DejaVuSans-6f" transform="translate(5738.037109 0)"/>
    <use xlink:href="#DejaVuSans-66" transform="translate(5799.21875 0)"/>
    <use xlink:href="#DejaVuSans-20" transform="translate(5834.423828 0)"/>
    <use xlink:href="#DejaVuSans-72" transform="translate(5866.210938 0)"/>
    <use xlink:href="#DejaVuSans-75" transform="translate(5907.324219 0)"/>
    <use xlink:href="#DejaVuSans-6e" transform="translate(5970.703125 0)"/>
    <use xlink:href="#DejaVuSans-74" transform="translate(6034.082031 0)"/>
    <use xlink:href="#DejaVuSans-69" transform="translate(6073.291016 0)"/>
    <use xlink:href="#DejaVuSans-6d" transform="translate(6101.074219 0)"/>
    <use xlink:href="#DejaVuSans-65" transform="translate(6198.486328 0)"/>
    <use xlink:href="#DejaVuSans-29" transform="translate(6260.009766 0)"/>
    <use xlink:href="#DejaVuSans-2e" transform="translate(6299.023438 0)"/>
   </g>
  </g>
 </g>
 <defs>
  <clipPath id="pf7ea4371dc">
   <rect x="50.391875" y="63.24" width="345.94" height="250.624"/>
  </clipPath>
  <clipPath id="p892abafa66">
   <rect x="440.991875" y="63.24" width="345.94" height="250.624"/>
  </clipPath>
 </defs>
</svg>
